# SSTK version 0.8.0
# 29
mtllib original-29.mtl
o 3dw.61c6c6a47e5b9d34496c7671bf276db5/Model/distancia1/distancia/mesh1/mesh1-geometry/material_2/component_2#mesh1-geometry
v -0.094575 0.100978 0.073697
v -0.097414 0.091738 0.083196
v -0.097414 0.091738 0.073697
v -0.097414 0.091738 0.083196
v -0.094575 0.100978 0.073697
v -0.094575 0.100978 0.083196
v -0.113274 0.119975 0.073697
v -0.094575 0.100978 0.083196
v -0.094575 0.100978 0.073697
v -0.094575 0.100978 0.083196
v -0.113274 0.119975 0.073697
v -0.113274 0.119975 0.083196
v -0.113274 0.119975 0.073697
v -0.177053 0.056446 0.083196
v -0.113274 0.119975 0.083196
v -0.177053 0.056446 0.083196
v -0.113274 0.119975 0.073697
v -0.177053 0.056446 0.073697
v -0.103663 0.053650 0.073697
v -0.103925 0.043986 0.083196
v -0.103925 0.043986 0.073697
v -0.103925 0.043986 0.083196
v -0.103663 0.053650 0.073697
v -0.103663 0.053650 0.083196
v -0.102878 0.063285 0.073697
v -0.103663 0.053650 0.083196
v -0.103663 0.053650 0.073697
v -0.103663 0.053650 0.083196
v -0.102878 0.063285 0.073697
v -0.102878 0.063285 0.083196
v -0.101572 0.072863 0.073697
v -0.102878 0.063285 0.083196
v -0.102878 0.063285 0.073697
v -0.102878 0.063285 0.083196
v -0.101572 0.072863 0.073697
v -0.101572 0.072863 0.083196
v -0.099749 0.082357 0.073697
v -0.101572 0.072863 0.083196
v -0.101572 0.072863 0.073697
v -0.101572 0.072863 0.083196
v -0.099749 0.082357 0.073697
v -0.099749 0.082357 0.083196
v -0.097414 0.091738 0.073697
v -0.099749 0.082357 0.083196
v -0.099749 0.082357 0.073697
v -0.099749 0.082357 0.083196
v -0.097414 0.091738 0.073697
v -0.097414 0.091738 0.083196
v -0.113274 0.119975 0.083196
v -0.099749 0.082357 0.083196
v -0.097414 0.091738 0.083196
v -0.113274 0.119975 0.083196
v -0.101572 0.072863 0.083196
v -0.099749 0.082357 0.083196
v -0.113274 0.119975 0.083196
v -0.102878 0.063285 0.083196
v -0.101572 0.072863 0.083196
v -0.113274 0.119975 0.083196
v -0.113274 -0.032003 0.083196
v -0.102878 0.063285 0.083196
v -0.113274 0.119975 0.083196
v -0.177053 0.031527 0.083196
v -0.113274 -0.032003 0.083196
v -0.177053 0.056446 0.083196
v -0.177053 0.031527 0.083196
v -0.113274 0.119975 0.083196
v -0.178866 0.054862 0.083196
v -0.177053 0.031527 0.083196
v -0.177053 0.056446 0.083196
v -0.178866 0.054862 0.083196
v -0.178866 0.033110 0.083196
v -0.177053 0.031527 0.083196
v -0.178866 0.054862 0.083196
v -0.180412 0.034955 0.083196
v -0.178866 0.033110 0.083196
v -0.180412 0.053018 0.083196
v -0.180412 0.034955 0.083196
v -0.178866 0.054862 0.083196
v -0.181656 0.050957 0.083196
v -0.180412 0.034955 0.083196
v -0.180412 0.053018 0.083196
v -0.181656 0.050957 0.083196
v -0.181656 0.037016 0.083196
v -0.180412 0.034955 0.083196
v -0.181656 0.050957 0.083196
v -0.182566 0.039244 0.083196
v -0.181656 0.037016 0.083196
v -0.182566 0.048728 0.083196
v -0.182566 0.039244 0.083196
v -0.181656 0.050957 0.083196
v -0.183120 0.046386 0.083196
v -0.182566 0.039244 0.083196
v -0.182566 0.048728 0.083196
v -0.183120 0.046386 0.083196
v -0.183120 0.041587 0.083196
v -0.182566 0.039244 0.083196
v -0.183120 0.041587 0.083196
v -0.183120 0.046386 0.083196
v -0.183307 0.043986 0.083196
v -0.183120 0.046386 0.083196
v -0.183307 0.043986 0.073697
v -0.183307 0.043986 0.083196
v -0.183307 0.043986 0.073697
v -0.183120 0.046386 0.083196
v -0.183120 0.046386 0.073697
v -0.182566 0.048728 0.083196
v -0.183120 0.046386 0.073697
v -0.183120 0.046386 0.083196
v -0.183120 0.046386 0.073697
v -0.182566 0.048728 0.083196
v -0.182566 0.048728 0.073697
v -0.181656 0.050957 0.083196
v -0.182566 0.048728 0.073697
v -0.182566 0.048728 0.083196
v -0.182566 0.048728 0.073697
v -0.181656 0.050957 0.083196
v -0.181656 0.050957 0.073697
v -0.180412 0.053018 0.083196
v -0.181656 0.050957 0.073697
v -0.181656 0.050957 0.083196
v -0.181656 0.050957 0.073697
v -0.180412 0.053018 0.083196
v -0.180412 0.053018 0.073697
v -0.178866 0.054862 0.083196
v -0.180412 0.053018 0.073697
v -0.180412 0.053018 0.083196
v -0.180412 0.053018 0.073697
v -0.178866 0.054862 0.083196
v -0.178866 0.054862 0.073697
v -0.178866 0.054862 0.083196
v -0.177053 0.056446 0.073697
v -0.178866 0.054862 0.073697
v -0.177053 0.056446 0.073697
v -0.178866 0.054862 0.083196
v -0.177053 0.056446 0.083196
v -0.183120 0.041587 0.073697
v -0.183307 0.043986 0.083196
v -0.183307 0.043986 0.073697
v -0.183307 0.043986 0.083196
v -0.183120 0.041587 0.073697
v -0.183120 0.041587 0.083196
v -0.182566 0.039244 0.073697
v -0.183120 0.041587 0.083196
v -0.183120 0.041587 0.073697
v -0.183120 0.041587 0.083196
v -0.182566 0.039244 0.073697
v -0.182566 0.039244 0.083196
v -0.181656 0.037016 0.073697
v -0.182566 0.039244 0.083196
v -0.182566 0.039244 0.073697
v -0.182566 0.039244 0.083196
v -0.181656 0.037016 0.073697
v -0.181656 0.037016 0.083196
v -0.180412 0.034955 0.073697
v -0.181656 0.037016 0.083196
v -0.181656 0.037016 0.073697
v -0.181656 0.037016 0.083196
v -0.180412 0.034955 0.073697
v -0.180412 0.034955 0.083196
v -0.178866 0.033110 0.073697
v -0.180412 0.034955 0.083196
v -0.180412 0.034955 0.073697
v -0.180412 0.034955 0.083196
v -0.178866 0.033110 0.073697
v -0.178866 0.033110 0.083196
v -0.178866 0.033110 0.073697
v -0.177053 0.031527 0.083196
v -0.178866 0.033110 0.083196
v -0.177053 0.031527 0.083196
v -0.178866 0.033110 0.073697
v -0.177053 0.031527 0.073697
v -0.113274 -0.032003 0.083196
v -0.177053 0.031527 0.073697
v -0.113274 -0.032003 0.073697
v -0.177053 0.031527 0.073697
v -0.113274 -0.032003 0.083196
v -0.177053 0.031527 0.083196
v -0.094575 -0.013005 0.073697
v -0.113274 -0.032003 0.083196
v -0.113274 -0.032003 0.073697
v -0.113274 -0.032003 0.083196
v -0.094575 -0.013005 0.073697
v -0.094575 -0.013005 0.083196
v -0.097414 -0.003765 0.073697
v -0.094575 -0.013005 0.083196
v -0.094575 -0.013005 0.073697
v -0.094575 -0.013005 0.083196
v -0.097414 -0.003765 0.073697
v -0.097414 -0.003765 0.083196
v -0.099749 0.005616 0.073697
v -0.097414 -0.003765 0.083196
v -0.097414 -0.003765 0.073697
v -0.097414 -0.003765 0.083196
v -0.099749 0.005616 0.073697
v -0.099749 0.005616 0.083196
v -0.101572 0.015110 0.073697
v -0.099749 0.005616 0.083196
v -0.099749 0.005616 0.073697
v -0.099749 0.005616 0.083196
v -0.101572 0.015110 0.073697
v -0.101572 0.015110 0.083196
v -0.102878 0.024688 0.073697
v -0.101572 0.015110 0.083196
v -0.101572 0.015110 0.073697
v -0.101572 0.015110 0.083196
v -0.102878 0.024688 0.073697
v -0.102878 0.024688 0.083196
v -0.103663 0.034323 0.073697
v -0.102878 0.024688 0.083196
v -0.102878 0.024688 0.073697
v -0.102878 0.024688 0.083196
v -0.103663 0.034323 0.073697
v -0.103663 0.034323 0.083196
v -0.103925 0.043986 0.073697
v -0.103663 0.034323 0.083196
v -0.103663 0.034323 0.073697
v -0.103663 0.034323 0.083196
v -0.103925 0.043986 0.073697
v -0.103925 0.043986 0.083196
v -0.113274 -0.032003 0.083196
v -0.103663 0.034323 0.083196
v -0.103925 0.043986 0.083196
v -0.103663 0.034323 0.083196
v -0.113274 -0.032003 0.083196
v -0.102878 0.024688 0.083196
v -0.102878 0.024688 0.083196
v -0.113274 -0.032003 0.083196
v -0.101572 0.015110 0.083196
v -0.101572 0.015110 0.083196
v -0.113274 -0.032003 0.083196
v -0.099749 0.005616 0.083196
v -0.099749 0.005616 0.083196
v -0.113274 -0.032003 0.083196
v -0.097414 -0.003765 0.083196
v -0.097414 -0.003765 0.083196
v -0.113274 -0.032003 0.083196
v -0.094575 -0.013005 0.083196
v -0.103663 0.053650 0.083196
v -0.113274 -0.032003 0.083196
v -0.103925 0.043986 0.083196
v -0.102878 0.063285 0.083196
v -0.113274 -0.032003 0.083196
v -0.103663 0.053650 0.083196
v -0.113274 0.119975 0.083196
v -0.097414 0.091738 0.083196
v -0.094575 0.100978 0.083196
vt 13.49242877960205 2.375
vt 13.365214347839355 2.5
vt 13.365214347839355 2.375
vt 13.49242877960205 2.5
vt 8.569488525390625 2.375
vt 8.218693733215332 2.5
vt 8.218693733215332 2.375
vt 8.569488525390625 2.5
vt -10.946466445922852 2.375
vt -9.761811256408691 2.5
vt -10.946466445922852 2.5
vt -9.761811256408691 2.375
vt 12.923969268798828 2.375
vt 12.796753883361816 2.5
vt 12.796753883361816 2.375
vt 12.923969268798828 2.5
vt 13.115114212036133 2.375
vt 12.987897872924805 2.5
vt 12.987897872924805 2.375
vt 13.115114212036133 2.5
vt 13.267924308776855 2.375
vt 13.140707969665527 2.5
vt 13.140707969665527 2.375
vt 13.267924308776855 2.5
vt 13.381950378417969 2.375
vt 13.254734992980957 2.5
vt 13.254734992980957 2.375
vt 13.381950378417969 2.5
vt 13.45685863494873 2.375
vt 13.329644203186035 2.5
vt 13.329644203186035 2.375
vt 13.45685863494873 2.5
vt 1.7535350322723389 13.750584602355957
vt 1.9315299987792969 13.255531311035156
vt 1.9622529745101929 13.37898063659668
vt 1.907541036605835 13.130598068237305
vt 1.8903549909591675 13.004549026489258
vt 1.7535350322723389 11.750584602355957
vt 0.914222002029419 12.586623191833496
vt 0.914222002029419 12.914546012878418
vt 0.8903639912605286 12.893710136413574
vt 0.8903639912605286 12.607460021972656
vt 0.8700100183486938 12.631731986999512
vt 0.8700100183486938 12.869438171386719
vt 0.8536499738693237 12.842313766479492
vt 0.8536499738693237 12.658856391906738
vt 0.8416749835014343 12.688180923461914
vt 0.8416749835014343 12.812989234924316
vt 0.8343729972839355 12.78216552734375
vt 0.8343729972839355 12.719003677368164
vt 0.8319200277328491 12.750584602355957
vt -12.808391571044922 2.5
vt -12.776716232299805 2.375
vt -12.776716232299805 2.5
vt -12.808391571044922 2.375
vt -12.661938667297363 2.5
vt -12.630263328552246 2.375
vt -12.630263328552246 2.5
vt -12.661938667297363 2.375
vt -12.211993217468262 2.5
vt -12.180316925048828 2.375
vt -12.180316925048828 2.5
vt -12.211993217468262 2.375
vt -11.469352722167969 2.5
vt -11.437677383422852 2.375
vt -11.437677383422852 2.5
vt -11.469352722167969 2.375
vt -10.451842308044434 2.5
vt -10.420166015625 2.375
vt -10.420166015625 2.5
vt -10.451842308044434 2.375
vt -9.152201652526855 2.5
vt -9.183877944946289 2.375
vt -9.152201652526855 2.375
vt -9.183877944946289 2.5
vt -12.61616325378418 2.375
vt -12.647838592529297 2.5
vt -12.647838592529297 2.375
vt -12.61616325378418 2.5
vt -12.15245532989502 2.375
vt -12.184130668640137 2.5
vt -12.184130668640137 2.375
vt -12.15245532989502 2.5
vt -11.396721839904785 2.375
vt -11.428398132324219 2.5
vt -11.428398132324219 2.375
vt -11.396721839904785 2.5
vt -10.367100715637207 2.375
vt -10.39877700805664 2.5
vt -10.39877700805664 2.375
vt -10.367100715637207 2.5
vt -9.088300704956055 2.375
vt -9.119976997375488 2.5
vt -9.119976997375488 2.375
vt -9.088300704956055 2.5
vt -7.622686862945557 2.375
vt -7.591011047363281 2.5
vt -7.622686862945557 2.5
vt -7.591011047363281 2.375
vt -7.050303936004639 2.5
vt -8.23495864868164 2.375
vt -7.050303936004639 2.375
vt -8.23495864868164 2.5
vt 9.955163955688477 2.375
vt 9.604369163513184 2.5
vt 9.604369163513184 2.375
vt 9.955163955688477 2.5
vt 11.011163711547852 2.375
vt 10.88394832611084 2.5
vt 10.88394832611084 2.375
vt 11.011163711547852 2.5
vt 11.416717529296875 2.375
vt 11.28950309753418 2.5
vt 11.28950309753418 2.375
vt 11.416717529296875 2.5
vt 11.788926124572754 2.375
vt 11.661710739135742 2.5
vt 11.661710739135742 2.375
vt 11.788926124572754 2.5
vt 12.126694679260254 2.375
vt 11.999480247497559 2.5
vt 11.999480247497559 2.375
vt 12.126694679260254 2.5
vt 12.429033279418945 2.375
vt 12.301817893981934 2.5
vt 12.301817893981934 2.375
vt 12.429033279418945 2.5
vt 12.695051193237305 2.375
vt 12.567835807800293 2.5
vt 12.567835807800293 2.375
vt 12.695051193237305 2.5
vt 1.8800239562988281 12.62341594696045
vt 1.8765759468078613 12.750584602355957
vt 1.8903549909591675 12.496621131896973
vt 1.907541036605835 12.370572090148926
vt 1.9315299987792969 12.245638847351074
vt 1.9622529745101929 12.122188568115234
vt 1.9996180534362793 12.000584602355957
vt 1.8800239562988281 12.877753257751465
vt 1.9996180534362793 13.500584602355957
vn 0.9558924717195001 -0.2937168406986308 0
vn 0.9635006692563474 -0.2677059213812249 0
vn -0.9558924717195001 0.2937168406986308 0
vn -0.9635006692563474 0.2677059213812249 0
vn 0.7126677266204501 0.7015017544052469 0
vn -0.7126677266204501 -0.7015017544052469 0
vn -0.7057229298679524 0.7084879295080426 0
vn 0.7057229298679524 -0.7084879295080426 0
vn 0.9985314009479648 -0.054176021641450474 0
vn 1 0 0
vn -0.9985314009479648 0.054176021641450474 0
vn -1 0 0
vn 0.9941300175402724 -0.10819199704866148 0
vn -0.9941300175402724 0.10819199704866148 0
vn 0.9868086560679356 -0.16189093955312886 0
vn -0.9868086560679356 0.16189093955312886 0
vn 0.9765887392145706 -0.21511493309227844 0
vn -0.9765887392145706 0.21511493309227844 0
vn 0 0 1
vn 0 0 -1
vn -0.9880006152588602 0.154449940913274 0
vn 0.9880006152588602 -0.154449940913274 0
vn -0.9522901827418002 0.3051940495055382 0
vn 0.9522901827418002 -0.3051940495055382 0
vn -0.8937260983031362 0.4486130417317946 0
vn 0.8937260983031362 -0.4486130417317946 0
vn -0.8137134145549269 0.5812662720073838 0
vn 0.8137134145549269 -0.5812662720073838 0
vn -0.7141721255348937 0.6999701244403019 0
vn 0.7141721255348937 -0.6999701244403019 0
vn -0.6578089168174015 0.7531848570938723 0
vn 0.6578089168174015 -0.7531848570938723 0
vn -0.9880006152588602 -0.154449940913274 0
vn 0.9880006152588602 0.154449940913274 0
vn -0.9522901827418002 -0.3051940495055382 0
vn 0.9522901827418002 0.3051940495055382 0
vn -0.8937260983031362 -0.4486130417317946 0
vn 0.8937260983031362 0.4486130417317946 0
vn -0.8137134145549269 -0.5812662720073838 0
vn 0.8137134145549269 0.5812662720073838 0
vn -0.7141721255348937 -0.6999701244403019 0
vn 0.7141721255348937 0.6999701244403019 0
vn -0.6578089168174015 -0.7531848570938723 0
vn 0.6578089168174015 0.7531848570938723 0
vn -0.7057229298679524 -0.7084879295080426 0
vn 0.7057229298679524 0.7084879295080426 0
vn 0.7126677266204501 -0.7015017544052469 0
vn -0.7126677266204501 0.7015017544052469 0
vn 0.9635006692563474 0.2677059213812249 0
vn 0.9558924717195001 0.2937168406986308 0
vn -0.9635006692563474 -0.2677059213812249 0
vn -0.9558924717195001 -0.2937168406986308 0
vn 0.9765887392145706 0.21511493309227844 0
vn -0.9765887392145706 -0.21511493309227844 0
vn 0.9868086560679356 0.16189093955312886 0
vn -0.9868086560679356 -0.16189093955312886 0
vn 0.9941300175402724 0.10819199704866148 0
vn -0.9941300175402724 -0.10819199704866148 0
vn 0.9985314009479648 0.054176021641450474 0
vn -0.9985314009479648 -0.054176021641450474 0
usemtl material_0_2
f 1/1/1 2/2/2 3/3/2
f 3/3/4 2/2/4 1/1/3
f 4/2/2 5/1/1 6/4/1
f 6/4/3 5/1/3 4/2/4
f 7/5/5 8/6/5 9/7/5
f 9/7/6 8/6/6 7/5/6
f 10/6/5 11/5/5 12/8/5
f 12/8/6 11/5/6 10/6/6
f 13/9/7 14/10/7 15/11/7
f 15/11/8 14/10/8 13/9/8
f 16/10/7 17/9/7 18/12/7
f 18/12/8 17/9/8 16/10/8
f 19/13/9 20/14/10 21/15/10
f 21/15/12 20/14/12 19/13/11
f 22/14/10 23/13/9 24/16/9
f 24/16/11 23/13/11 22/14/12
f 25/17/13 26/18/9 27/19/9
f 27/19/11 26/18/11 25/17/14
f 28/18/9 29/17/13 30/20/13
f 30/20/14 29/17/14 28/18/11
f 31/21/15 32/22/13 33/23/13
f 33/23/14 32/22/14 31/21/16
f 34/22/13 35/21/15 36/24/15
f 36/24/16 35/21/16 34/22/14
f 37/25/17 38/26/15 39/27/15
f 39/27/16 38/26/16 37/25/18
f 40/26/15 41/25/17 42/28/17
f 42/28/18 41/25/18 40/26/16
f 43/29/2 44/30/17 45/31/17
f 45/31/18 44/30/18 43/29/4
f 46/30/17 47/29/2 48/32/2
f 48/32/4 47/29/4 46/30/18
f 49/33/19 50/34/19 51/35/19
f 51/35/20 50/34/20 49/33/20
f 52/33/19 53/36/19 54/34/19
f 54/34/20 53/36/20 52/33/20
f 55/33/19 56/37/19 57/36/19
f 57/36/20 56/37/20 55/33/20
f 58/33/19 59/38/19 60/37/19
f 60/37/20 59/38/20 58/33/20
f 61/33/19 62/39/19 63/38/19
f 63/38/20 62/39/20 61/33/20
f 64/40/19 65/39/19 66/33/19
f 66/33/20 65/39/20 64/40/20
f 67/41/19 68/39/19 69/40/19
f 69/40/20 68/39/20 67/41/20
f 70/41/19 71/42/19 72/39/19
f 72/39/20 71/42/20 70/41/20
f 73/41/19 74/43/19 75/42/19
f 75/42/20 74/43/20 73/41/20
f 76/44/19 77/43/19 78/41/19
f 78/41/20 77/43/20 76/44/20
f 79/45/19 80/43/19 81/44/19
f 81/44/20 80/43/20 79/45/20
f 82/45/19 83/46/19 84/43/19
f 84/43/20 83/46/20 82/45/20
f 85/45/19 86/47/19 87/46/19
f 87/46/20 86/47/20 85/45/20
f 88/48/19 89/47/19 90/45/19
f 90/45/20 89/47/20 88/48/20
f 91/49/19 92/47/19 93/48/19
f 93/48/20 92/47/20 91/49/20
f 94/49/19 95/50/19 96/47/19
f 96/47/20 95/50/20 94/49/20
f 97/50/19 98/49/19 99/51/19
f 99/51/20 98/49/20 97/50/20
f 100/52/21 101/53/12 102/54/12
f 102/54/10 101/53/10 100/52/22
f 103/53/12 104/52/21 105/55/21
f 105/55/22 104/52/22 103/53/10
f 106/56/23 107/57/21 108/58/21
f 108/58/22 107/57/22 106/56/24
f 109/57/21 110/56/23 111/59/23
f 111/59/24 110/56/24 109/57/22
f 112/60/25 113/61/23 114/62/23
f 114/62/24 113/61/24 112/60/26
f 115/61/23 116/60/25 117/63/25
f 117/63/26 116/60/26 115/61/24
f 118/64/27 119/65/25 120/66/25
f 120/66/26 119/65/26 118/64/28
f 121/65/25 122/64/27 123/67/27
f 123/67/28 122/64/28 121/65/26
f 124/68/29 125/69/27 126/70/27
f 126/70/28 125/69/28 124/68/30
f 127/69/27 128/68/29 129/71/29
f 129/71/30 128/68/30 127/69/28
f 130/72/29 131/73/31 132/74/29
f 132/74/30 131/73/32 130/72/30
f 133/73/31 134/72/29 135/75/31
f 135/75/32 134/72/30 133/73/32
f 136/76/33 137/77/12 138/78/12
f 138/78/10 137/77/10 136/76/34
f 139/77/12 140/76/33 141/79/33
f 141/79/34 140/76/34 139/77/10
f 142/80/35 143/81/33 144/82/33
f 144/82/34 143/81/34 142/80/36
f 145/81/33 146/80/35 147/83/35
f 147/83/36 146/80/36 145/81/34
f 148/84/37 149/85/35 150/86/35
f 150/86/36 149/85/36 148/84/38
f 151/85/35 152/84/37 153/87/37
f 153/87/38 152/84/38 151/85/36
f 154/88/39 155/89/37 156/90/37
f 156/90/38 155/89/38 154/88/40
f 157/89/37 158/88/39 159/91/39
f 159/91/40 158/88/40 157/89/38
f 160/92/41 161/93/39 162/94/39
f 162/94/40 161/93/40 160/92/42
f 163/93/39 164/92/41 165/95/41
f 165/95/42 164/92/42 163/93/40
f 166/96/41 167/97/43 168/98/41
f 168/98/42 167/97/44 166/96/42
f 169/97/43 170/96/41 171/99/43
f 171/99/44 170/96/42 169/97/44
f 172/100/45 173/101/45 174/102/45
f 174/102/46 173/101/46 172/100/46
f 175/101/45 176/100/45 177/103/45
f 177/103/46 176/100/46 175/101/46
f 178/104/47 179/105/47 180/106/47
f 180/106/48 179/105/48 178/104/48
f 181/105/47 182/104/47 183/107/47
f 183/107/48 182/104/48 181/105/48
f 184/108/49 185/109/50 186/110/50
f 186/110/52 185/109/52 184/108/51
f 187/109/50 188/108/49 189/111/49
f 189/111/51 188/108/51 187/109/52
f 190/112/53 191/113/49 192/114/49
f 192/114/51 191/113/51 190/112/54
f 193/113/49 194/112/53 195/115/53
f 195/115/54 194/112/54 193/113/51
f 196/116/55 197/117/53 198/118/53
f 198/118/54 197/117/54 196/116/56
f 199/117/53 200/116/55 201/119/55
f 201/119/56 200/116/56 199/117/54
f 202/120/57 203/121/55 204/122/55
f 204/122/56 203/121/56 202/120/58
f 205/121/55 206/120/57 207/123/57
f 207/123/58 206/120/58 205/121/56
f 208/124/59 209/125/57 210/126/57
f 210/126/58 209/125/58 208/124/60
f 211/125/57 212/124/59 213/127/59
f 213/127/60 212/124/60 211/125/58
f 214/128/10 215/129/59 216/130/59
f 216/130/60 215/129/60 214/128/12
f 217/129/59 218/128/10 219/131/10
f 219/131/12 218/128/12 217/129/60
f 220/38/19 221/132/19 222/133/19
f 222/133/20 221/132/20 220/38/20
f 223/132/19 224/38/19 225/134/19
f 225/134/20 224/38/20 223/132/20
f 226/134/19 227/38/19 228/135/19
f 228/135/20 227/38/20 226/134/20
f 229/135/19 230/38/19 231/136/19
f 231/136/20 230/38/20 229/135/20
f 232/136/19 233/38/19 234/137/19
f 234/137/20 233/38/20 232/136/20
f 235/137/19 236/38/19 237/138/19
f 237/138/20 236/38/20 235/137/20
f 238/139/19 239/38/19 240/133/19
f 240/133/20 239/38/20 238/139/20
f 241/37/19 242/38/19 243/139/19
f 243/139/20 242/38/20 241/37/20
f 244/33/19 245/35/19 246/140/19
f 246/140/20 245/35/20 244/33/20
