# SSTK version 0.8.0
# 21
mtllib original-21.mtl
o 3dw.61c6c6a47e5b9d34496c7671bf276db5/Model/distancia1/distancia/mesh1/mesh1-geometry/material_0/component_20#mesh1-geometry
v 0.142891 -0.433489 0.083196
v 0.147472 -0.431592 0.073697
v 0.142891 -0.433489 0.073697
v 0.147472 -0.431592 0.073697
v 0.142891 -0.433489 0.083196
v 0.147472 -0.431592 0.083196
v 0.142891 -0.433489 0.083196
v 0.147472 -0.468291 0.083196
v 0.147472 -0.431592 0.083196
v 0.142891 -0.433489 0.083196
v 0.142891 -0.466394 0.083196
v 0.147472 -0.468291 0.083196
v 0.138956 -0.436508 0.083196
v 0.142891 -0.466394 0.083196
v 0.142891 -0.433489 0.083196
v 0.138956 -0.436508 0.083196
v 0.138956 -0.463375 0.083196
v 0.142891 -0.466394 0.083196
v 0.135937 -0.440443 0.083196
v 0.138956 -0.463375 0.083196
v 0.138956 -0.436508 0.083196
v 0.135937 -0.440443 0.083196
v 0.135937 -0.459440 0.083196
v 0.138956 -0.463375 0.083196
v 0.134039 -0.445025 0.083196
v 0.135937 -0.459440 0.083196
v 0.135937 -0.440443 0.083196
v 0.134039 -0.445025 0.083196
v 0.134039 -0.454858 0.083196
v 0.135937 -0.459440 0.083196
v 0.134039 -0.454858 0.083196
v 0.134039 -0.445025 0.083196
v 0.133392 -0.449941 0.083196
v 0.134039 -0.445025 0.083196
v 0.133392 -0.449941 0.073697
v 0.133392 -0.449941 0.083196
v 0.133392 -0.449941 0.073697
v 0.134039 -0.445025 0.083196
v 0.134039 -0.445025 0.073697
v 0.135937 -0.440443 0.083196
v 0.134039 -0.445025 0.073697
v 0.134039 -0.445025 0.083196
v 0.134039 -0.445025 0.073697
v 0.135937 -0.440443 0.083196
v 0.135937 -0.440443 0.073697
v 0.138956 -0.436508 0.083196
v 0.135937 -0.440443 0.073697
v 0.135937 -0.440443 0.083196
v 0.135937 -0.440443 0.073697
v 0.138956 -0.436508 0.083196
v 0.138956 -0.436508 0.073697
v 0.138956 -0.436508 0.083196
v 0.142891 -0.433489 0.073697
v 0.138956 -0.436508 0.073697
v 0.142891 -0.433489 0.073697
v 0.138956 -0.436508 0.083196
v 0.142891 -0.433489 0.083196
v 0.134039 -0.454858 0.073697
v 0.133392 -0.449941 0.083196
v 0.133392 -0.449941 0.073697
v 0.133392 -0.449941 0.083196
v 0.134039 -0.454858 0.073697
v 0.134039 -0.454858 0.083196
v 0.135937 -0.459440 0.073697
v 0.134039 -0.454858 0.083196
v 0.134039 -0.454858 0.073697
v 0.134039 -0.454858 0.083196
v 0.135937 -0.459440 0.073697
v 0.135937 -0.459440 0.083196
v 0.138956 -0.463375 0.073697
v 0.135937 -0.459440 0.083196
v 0.135937 -0.459440 0.073697
v 0.135937 -0.459440 0.083196
v 0.138956 -0.463375 0.073697
v 0.138956 -0.463375 0.083196
v 0.138956 -0.463375 0.073697
v 0.142891 -0.466394 0.083196
v 0.138956 -0.463375 0.083196
v 0.142891 -0.466394 0.083196
v 0.138956 -0.463375 0.073697
v 0.142891 -0.466394 0.073697
v 0.142891 -0.466394 0.073697
v 0.147472 -0.468291 0.083196
v 0.142891 -0.466394 0.083196
v 0.147472 -0.468291 0.083196
v 0.142891 -0.466394 0.073697
v 0.147472 -0.468291 0.073697
v 0.147472 -0.468291 0.073697
v 0.152389 -0.468939 0.083196
v 0.147472 -0.468291 0.083196
v 0.152389 -0.468939 0.083196
v 0.147472 -0.468291 0.073697
v 0.152389 -0.468939 0.073697
v 0.152389 -0.468939 0.073697
v 0.157306 -0.468291 0.083196
v 0.152389 -0.468939 0.083196
v 0.157306 -0.468291 0.083196
v 0.152389 -0.468939 0.073697
v 0.157306 -0.468291 0.073697
v 0.157306 -0.468291 0.073697
v 0.161888 -0.466394 0.083196
v 0.157306 -0.468291 0.083196
v 0.161888 -0.466394 0.083196
v 0.157306 -0.468291 0.073697
v 0.161888 -0.466394 0.073697
v 0.161888 -0.466394 0.073697
v 0.165822 -0.463375 0.083196
v 0.161888 -0.466394 0.083196
v 0.165822 -0.463375 0.083196
v 0.161888 -0.466394 0.073697
v 0.165822 -0.463375 0.073697
v 0.147472 -0.431592 0.083196
v 0.152389 -0.430944 0.073697
v 0.147472 -0.431592 0.073697
v 0.152389 -0.430944 0.073697
v 0.147472 -0.431592 0.083196
v 0.152389 -0.430944 0.083196
v 0.147472 -0.431592 0.083196
v 0.152389 -0.468939 0.083196
v 0.152389 -0.430944 0.083196
v 0.147472 -0.431592 0.083196
v 0.147472 -0.468291 0.083196
v 0.152389 -0.468939 0.083196
v 0.152389 -0.430944 0.083196
v 0.152389 -0.468939 0.083196
v 0.157306 -0.468291 0.083196
v 0.152389 -0.430944 0.083196
v 0.157306 -0.468291 0.083196
v 0.157306 -0.431592 0.083196
v 0.157306 -0.431592 0.083196
v 0.157306 -0.468291 0.083196
v 0.161888 -0.466394 0.083196
v 0.157306 -0.431592 0.083196
v 0.161888 -0.466394 0.083196
v 0.161888 -0.433489 0.083196
v 0.161888 -0.433489 0.083196
v 0.161888 -0.466394 0.083196
v 0.165822 -0.463375 0.083196
v 0.161888 -0.433489 0.083196
v 0.165822 -0.463375 0.083196
v 0.165822 -0.436508 0.083196
v 0.165822 -0.436508 0.083196
v 0.165822 -0.463375 0.083196
v 0.168841 -0.459440 0.083196
v 0.165822 -0.463375 0.083196
v 0.168841 -0.459440 0.073697
v 0.168841 -0.459440 0.083196
v 0.168841 -0.459440 0.073697
v 0.165822 -0.463375 0.083196
v 0.165822 -0.463375 0.073697
v 0.170739 -0.454858 0.073697
v 0.168841 -0.459440 0.083196
v 0.168841 -0.459440 0.073697
v 0.168841 -0.459440 0.083196
v 0.170739 -0.454858 0.073697
v 0.170739 -0.454858 0.083196
v 0.171386 -0.449941 0.073697
v 0.170739 -0.454858 0.083196
v 0.170739 -0.454858 0.073697
v 0.170739 -0.454858 0.083196
v 0.171386 -0.449941 0.073697
v 0.171386 -0.449941 0.083196
v 0.170739 -0.445025 0.073697
v 0.171386 -0.449941 0.083196
v 0.171386 -0.449941 0.073697
v 0.171386 -0.449941 0.083196
v 0.170739 -0.445025 0.073697
v 0.170739 -0.445025 0.083196
v 0.168841 -0.440443 0.073697
v 0.170739 -0.445025 0.083196
v 0.170739 -0.445025 0.073697
v 0.170739 -0.445025 0.083196
v 0.168841 -0.440443 0.073697
v 0.168841 -0.440443 0.083196
v 0.165822 -0.436508 0.073697
v 0.168841 -0.440443 0.083196
v 0.168841 -0.440443 0.073697
v 0.168841 -0.440443 0.083196
v 0.165822 -0.436508 0.073697
v 0.165822 -0.436508 0.083196
v 0.165822 -0.436508 0.073697
v 0.161888 -0.433489 0.083196
v 0.165822 -0.436508 0.083196
v 0.161888 -0.433489 0.083196
v 0.165822 -0.436508 0.073697
v 0.161888 -0.433489 0.073697
v 0.161888 -0.433489 0.073697
v 0.157306 -0.431592 0.083196
v 0.161888 -0.433489 0.083196
v 0.157306 -0.431592 0.083196
v 0.161888 -0.433489 0.073697
v 0.157306 -0.431592 0.073697
v 0.157306 -0.431592 0.073697
v 0.152389 -0.430944 0.083196
v 0.157306 -0.431592 0.083196
v 0.152389 -0.430944 0.083196
v 0.157306 -0.431592 0.073697
v 0.152389 -0.430944 0.073697
v 0.165822 -0.436508 0.083196
v 0.168841 -0.459440 0.083196
v 0.168841 -0.440443 0.083196
v 0.168841 -0.440443 0.083196
v 0.168841 -0.459440 0.083196
v 0.170739 -0.454858 0.083196
v 0.168841 -0.440443 0.083196
v 0.170739 -0.454858 0.083196
v 0.170739 -0.445025 0.083196
v 0.170739 -0.445025 0.083196
v 0.170739 -0.454858 0.083196
v 0.171386 -0.449941 0.083196
vt -7.209377765655518 2.5
vt -7.274641036987305 2.375
vt -7.209377765655518 2.375
vt -7.274641036987305 2.5
vt 5.124618053436279 6.467091083526611
vt 5.184913158416748 6.009102821350098
vt 5.184913158416748 6.492065906524658
vt 5.124618053436279 6.034078121185303
vt 5.072841167449951 6.427361965179443
vt 5.072841167449951 6.073808193206787
vt 5.033111095428467 6.375585079193115
vt 5.033111095428467 6.125585079193115
vt 5.008135795593262 6.3152899742126465
vt 5.008135795593262 6.185880184173584
vt 4.999618053436279 6.250585079193115
vt -6.91495418548584 2.5
vt -6.849690914154053 2.375
vt -6.849690914154053 2.5
vt -6.91495418548584 2.375
vt -7.816360950469971 2.5
vt -7.751098155975342 2.375
vt -7.751098155975342 2.5
vt -7.816360950469971 2.375
vt -8.187318801879883 2.5
vt -8.122056007385254 2.375
vt -8.122056007385254 2.5
vt -8.187318801879883 2.375
vt -7.93728494644165 2.5
vt -8.002548217773438 2.375
vt -7.93728494644165 2.375
vt -8.002548217773438 2.5
vt -5.479266166687012 2.375
vt -5.544528961181641 2.5
vt -5.544528961181641 2.375
vt -5.479266166687012 2.5
vt -3.7332139015197754 2.375
vt -3.7984769344329834 2.5
vt -3.7984769344329834 2.375
vt -3.7332139015197754 2.5
vt -1.7305259704589844 2.375
vt -1.7957890033721924 2.5
vt -1.7957890033721924 2.375
vt -1.7305259704589844 2.5
vt 0.3270550072193146 2.375
vt 0.3923180103302002 2.5
vt 0.3270550072193146 2.5
vt 0.3923180103302002 2.375
vt 2.4253880977630615 2.375
vt 2.4906508922576904 2.5
vt 2.4253880977630615 2.5
vt 2.4906508922576904 2.375
vt 4.356210231781006 2.375
vt 4.421473026275635 2.5
vt 4.356210231781006 2.5
vt 4.421473026275635 2.375
vt 5.987939834594727 2.375
vt 6.053203105926514 2.5
vt 5.987939834594727 2.5
vt 6.053203105926514 2.375
vt 7.209377765655518 2.375
vt 7.274641036987305 2.5
vt 7.209377765655518 2.5
vt 7.274641036987305 2.375
vt 7.93728494644165 2.375
vt 8.002548217773438 2.5
vt 7.93728494644165 2.5
vt 8.002548217773438 2.375
vt -5.987939834594727 2.5
vt -6.053203105926514 2.375
vt -5.987939834594727 2.375
vt -6.053203105926514 2.5
vt 5.249618053436279 6.000585079193115
vt 5.249618053436279 6.500585079193115
vt 5.3143229484558105 6.009102821350098
vt 5.3143229484558105 6.492065906524658
vt 5.374618053436279 6.034078121185303
vt 5.374618053436279 6.467091083526611
vt 5.426394939422607 6.073808193206787
vt 5.426394939422607 6.427361965179443
vt 5.466124057769775 6.125585079193115
vt 8.122056007385254 2.5
vt 8.187318801879883 2.375
vt 8.187318801879883 2.5
vt 8.122056007385254 2.375
vt 7.816360950469971 2.375
vt 7.751098155975342 2.5
vt 7.751098155975342 2.375
vt 7.816360950469971 2.5
vt 6.91495418548584 2.375
vt 6.849690914154053 2.5
vt 6.849690914154053 2.375
vt 6.91495418548584 2.5
vt 5.544528961181641 2.375
vt 5.479266166687012 2.5
vt 5.479266166687012 2.375
vt 5.544528961181641 2.5
vt 3.7984769344329834 2.375
vt 3.7332139015197754 2.5
vt 3.7332139015197754 2.375
vt 3.7984769344329834 2.5
vt 1.7957890033721924 2.375
vt 1.7305259704589844 2.5
vt 1.7305259704589844 2.375
vt 1.7957890033721924 2.5
vt -0.3923180103302002 2.375
vt -0.3270550072193146 2.5
vt -0.3923180103302002 2.5
vt -0.3270550072193146 2.375
vt -2.4906508922576904 2.375
vt -2.4253880977630615 2.5
vt -2.4906508922576904 2.5
vt -2.4253880977630615 2.375
vt -4.421473026275635 2.375
vt -4.356210231781006 2.5
vt -4.421473026275635 2.5
vt -4.356210231781006 2.375
vt 5.466124057769775 6.375585079193115
vt 5.491098880767822 6.185880184173584
vt 5.491098880767822 6.3152899742126465
vt 5.499618053436279 6.250585079193115
vn -0.5000001873976233 0.8660252955903434 0
vn -0.25881897461707376 0.9659258451755842 0
vn 0.5000001873976233 -0.8660252955903434 0
vn 0.25881897461707376 -0.9659258451755842 0
vn 0 0 1
vn 0 0 -1
vn -0.9659258451755842 0.25881897461707376 0
vn -1 0 0
vn 0.9659258451755842 -0.25881897461707376 0
vn 1 0 0
vn -0.8660252955903434 0.5000001873976233 0
vn 0.8660252955903434 -0.5000001873976233 0
vn -0.7071067811865476 0.7071067811865476 0
vn 0.7071067811865476 -0.7071067811865476 0
vn -0.9659258451755842 -0.25881897461707376 0
vn 0.9659258451755842 0.25881897461707376 0
vn -0.8660252955903434 -0.5000001873976233 0
vn 0.8660252955903434 0.5000001873976233 0
vn -0.7071067811865476 -0.7071067811865476 0
vn 0.7071067811865476 0.7071067811865476 0
vn -0.5000001873976233 -0.8660252955903434 0
vn 0.5000001873976233 0.8660252955903434 0
vn -0.25881897461707376 -0.9659258451755842 0
vn 0.25881897461707376 0.9659258451755842 0
vn 0 -1 0
vn 0 1 0
usemtl material_0_2
f 1/1/1 2/2/2 3/3/1
f 3/3/3 2/2/4 1/1/3
f 4/2/2 5/1/1 6/4/2
f 6/4/4 5/1/3 4/2/4
f 7/5/5 8/6/5 9/7/5
f 9/7/6 8/6/6 7/5/6
f 10/5/5 11/8/5 12/6/5
f 12/6/6 11/8/6 10/5/6
f 13/9/5 14/8/5 15/5/5
f 15/5/6 14/8/6 13/9/6
f 16/9/5 17/10/5 18/8/5
f 18/8/6 17/10/6 16/9/6
f 19/11/5 20/10/5 21/9/5
f 21/9/6 20/10/6 19/11/6
f 22/11/5 23/12/5 24/10/5
f 24/10/6 23/12/6 22/11/6
f 25/13/5 26/12/5 27/11/5
f 27/11/6 26/12/6 25/13/6
f 28/13/5 29/14/5 30/12/5
f 30/12/6 29/14/6 28/13/6
f 31/14/5 32/13/5 33/15/5
f 33/15/6 32/13/6 31/14/6
f 34/16/7 35/17/8 36/18/8
f 36/18/10 35/17/10 34/16/9
f 37/17/8 38/16/7 39/19/7
f 39/19/9 38/16/9 37/17/10
f 40/20/11 41/21/7 42/22/7
f 42/22/9 41/21/9 40/20/12
f 43/21/7 44/20/11 45/23/11
f 45/23/12 44/20/12 43/21/9
f 46/24/13 47/25/11 48/26/11
f 48/26/12 47/25/12 46/24/14
f 49/25/11 50/24/13 51/27/13
f 51/27/14 50/24/14 49/25/12
f 52/28/13 53/29/1 54/30/13
f 54/30/14 53/29/3 52/28/14
f 55/29/1 56/28/13 57/31/1
f 57/31/3 56/28/14 55/29/3
f 58/32/15 59/33/8 60/34/8
f 60/34/10 59/33/10 58/32/16
f 61/33/8 62/32/15 63/35/15
f 63/35/16 62/32/16 61/33/10
f 64/36/17 65/37/15 66/38/15
f 66/38/16 65/37/16 64/36/18
f 67/37/15 68/36/17 69/39/17
f 69/39/18 68/36/18 67/37/16
f 70/40/19 71/41/17 72/42/17
f 72/42/18 71/41/18 70/40/20
f 73/41/17 74/40/19 75/43/19
f 75/43/20 74/40/20 73/41/18
f 76/44/19 77/45/21 78/46/19
f 78/46/20 77/45/22 76/44/20
f 79/45/21 80/44/19 81/47/21
f 81/47/22 80/44/20 79/45/22
f 82/48/21 83/49/23 84/50/21
f 84/50/22 83/49/24 82/48/22
f 85/49/23 86/48/21 87/51/23
f 87/51/24 86/48/22 85/49/24
f 88/52/23 89/53/25 90/54/23
f 90/54/24 89/53/26 88/52/24
f 91/53/25 92/52/23 93/55/25
f 93/55/26 92/52/24 91/53/26
f 94/56/25 95/57/4 96/58/25
f 96/58/26 95/57/2 94/56/26
f 97/57/4 98/56/25 99/59/4
f 99/59/2 98/56/26 97/57/2
f 100/60/4 101/61/3 102/62/4
f 102/62/2 101/61/1 100/60/2
f 103/61/3 104/60/4 105/63/3
f 105/63/1 104/60/2 103/61/1
f 106/64/3 107/65/14 108/66/3
f 108/66/1 107/65/13 106/64/1
f 109/65/14 110/64/3 111/67/14
f 111/67/13 110/64/1 109/65/13
f 112/68/2 113/69/26 114/70/2
f 114/70/4 113/69/25 112/68/4
f 115/69/26 116/68/2 117/71/26
f 117/71/25 116/68/4 115/69/25
f 118/7/5 119/72/5 120/73/5
f 120/73/6 119/72/6 118/7/6
f 121/7/5 122/6/5 123/72/5
f 123/72/6 122/6/6 121/7/6
f 124/73/5 125/72/5 126/74/5
f 126/74/6 125/72/6 124/73/6
f 127/73/5 128/74/5 129/75/5
f 129/75/6 128/74/6 127/73/6
f 130/75/5 131/74/5 132/76/5
f 132/76/6 131/74/6 130/75/6
f 133/75/5 134/76/5 135/77/5
f 135/77/6 134/76/6 133/75/6
f 136/77/5 137/76/5 138/78/5
f 138/78/6 137/76/6 136/77/6
f 139/77/5 140/78/5 141/79/5
f 141/79/6 140/78/6 139/77/6
f 142/79/5 143/78/5 144/80/5
f 144/80/6 143/78/6 142/79/6
f 145/81/14 146/82/12 147/83/12
f 147/83/11 146/82/11 145/81/13
f 148/82/12 149/81/14 150/84/14
f 150/84/13 149/81/13 148/82/11
f 151/85/9 152/86/12 153/87/12
f 153/87/11 152/86/11 151/85/7
f 154/86/12 155/85/9 156/88/9
f 156/88/7 155/85/7 154/86/11
f 157/89/10 158/90/9 159/91/9
f 159/91/7 158/90/7 157/89/8
f 160/90/9 161/89/10 162/92/10
f 162/92/8 161/89/8 160/90/7
f 163/93/16 164/94/10 165/95/10
f 165/95/8 164/94/8 163/93/15
f 166/94/10 167/93/16 168/96/16
f 168/96/15 167/93/15 166/94/8
f 169/97/18 170/98/16 171/99/16
f 171/99/15 170/98/15 169/97/17
f 172/98/16 173/97/18 174/100/18
f 174/100/17 173/97/17 172/98/15
f 175/101/20 176/102/18 177/103/18
f 177/103/17 176/102/17 175/101/19
f 178/102/18 179/101/20 180/104/20
f 180/104/19 179/101/19 178/102/17
f 181/105/20 182/106/22 183/107/20
f 183/107/19 182/106/21 181/105/19
f 184/106/22 185/105/20 186/108/22
f 186/108/21 185/105/19 184/106/21
f 187/109/22 188/110/24 189/111/22
f 189/111/21 188/110/23 187/109/21
f 190/110/24 191/109/22 192/112/24
f 192/112/23 191/109/21 190/110/23
f 193/113/24 194/114/26 195/115/24
f 195/115/23 194/114/25 193/113/23
f 196/114/26 197/113/24 198/116/26
f 198/116/25 197/113/23 196/114/25
f 199/79/5 200/80/5 201/117/5
f 201/117/6 200/80/6 199/79/6
f 202/117/5 203/80/5 204/118/5
f 204/118/6 203/80/6 202/117/6
f 205/117/5 206/118/5 207/119/5
f 207/119/6 206/118/6 205/117/6
f 208/119/5 209/118/5 210/120/5
f 210/120/6 209/118/6 208/119/6
