# SSTK version 0.8.0
# 31
mtllib original-31.mtl
o 3dw.61c6c6a47e5b9d34496c7671bf276db5/Model/distancia1/distancia/mesh1/mesh1-geometry/material_2/component_4#mesh1-geometry
v 0.114097 0.119975 0.083196
v 0.177876 0.056446 0.073697
v 0.114097 0.119975 0.073697
v 0.177876 0.056446 0.073697
v 0.114097 0.119975 0.083196
v 0.177876 0.056446 0.083196
v 0.114097 0.119975 0.083196
v 0.177876 0.031527 0.083196
v 0.177876 0.056446 0.083196
v 0.114097 0.119975 0.083196
v 0.114097 -0.032003 0.083196
v 0.177876 0.031527 0.083196
v 0.114097 0.119975 0.083196
v 0.104747 0.043986 0.083196
v 0.114097 -0.032003 0.083196
v 0.114097 0.119975 0.083196
v 0.104485 0.053650 0.083196
v 0.104747 0.043986 0.083196
v 0.114097 0.119975 0.083196
v 0.103700 0.063285 0.083196
v 0.104485 0.053650 0.083196
v 0.114097 0.119975 0.083196
v 0.102394 0.072863 0.083196
v 0.103700 0.063285 0.083196
v 0.114097 0.119975 0.083196
v 0.100571 0.082357 0.083196
v 0.102394 0.072863 0.083196
v 0.114097 0.119975 0.083196
v 0.098237 0.091738 0.083196
v 0.100571 0.082357 0.083196
v 0.098237 0.091738 0.083196
v 0.114097 0.119975 0.083196
v 0.095397 0.100978 0.083196
v 0.114097 0.119975 0.083196
v 0.095397 0.100978 0.073697
v 0.095397 0.100978 0.083196
v 0.095397 0.100978 0.073697
v 0.114097 0.119975 0.083196
v 0.114097 0.119975 0.073697
v 0.098237 0.091738 0.073697
v 0.095397 0.100978 0.083196
v 0.095397 0.100978 0.073697
v 0.095397 0.100978 0.083196
v 0.098237 0.091738 0.073697
v 0.098237 0.091738 0.083196
v 0.100571 0.082357 0.073697
v 0.098237 0.091738 0.083196
v 0.098237 0.091738 0.073697
v 0.098237 0.091738 0.083196
v 0.100571 0.082357 0.073697
v 0.100571 0.082357 0.083196
v 0.102394 0.072863 0.073697
v 0.100571 0.082357 0.083196
v 0.100571 0.082357 0.073697
v 0.100571 0.082357 0.083196
v 0.102394 0.072863 0.073697
v 0.102394 0.072863 0.083196
v 0.103700 0.063285 0.073697
v 0.102394 0.072863 0.083196
v 0.102394 0.072863 0.073697
v 0.102394 0.072863 0.083196
v 0.103700 0.063285 0.073697
v 0.103700 0.063285 0.083196
v 0.104485 0.053650 0.073697
v 0.103700 0.063285 0.083196
v 0.103700 0.063285 0.073697
v 0.103700 0.063285 0.083196
v 0.104485 0.053650 0.073697
v 0.104485 0.053650 0.083196
v 0.104747 0.043986 0.073697
v 0.104485 0.053650 0.083196
v 0.104485 0.053650 0.073697
v 0.104485 0.053650 0.083196
v 0.104747 0.043986 0.073697
v 0.104747 0.043986 0.083196
v 0.104485 0.034323 0.073697
v 0.104747 0.043986 0.083196
v 0.104747 0.043986 0.073697
v 0.104747 0.043986 0.083196
v 0.104485 0.034323 0.073697
v 0.104485 0.034323 0.083196
v 0.103700 0.024688 0.073697
v 0.104485 0.034323 0.083196
v 0.104485 0.034323 0.073697
v 0.104485 0.034323 0.083196
v 0.103700 0.024688 0.073697
v 0.103700 0.024688 0.083196
v 0.102394 0.015110 0.073697
v 0.103700 0.024688 0.083196
v 0.103700 0.024688 0.073697
v 0.103700 0.024688 0.083196
v 0.102394 0.015110 0.073697
v 0.102394 0.015110 0.083196
v 0.100571 0.005616 0.073697
v 0.102394 0.015110 0.083196
v 0.102394 0.015110 0.073697
v 0.102394 0.015110 0.083196
v 0.100571 0.005616 0.073697
v 0.100571 0.005616 0.083196
v 0.098237 -0.003765 0.073697
v 0.100571 0.005616 0.083196
v 0.100571 0.005616 0.073697
v 0.100571 0.005616 0.083196
v 0.098237 -0.003765 0.073697
v 0.098237 -0.003765 0.083196
v 0.095397 -0.013005 0.073697
v 0.098237 -0.003765 0.083196
v 0.098237 -0.003765 0.073697
v 0.098237 -0.003765 0.083196
v 0.095397 -0.013005 0.073697
v 0.095397 -0.013005 0.083196
v 0.114097 -0.032003 0.073697
v 0.095397 -0.013005 0.083196
v 0.095397 -0.013005 0.073697
v 0.095397 -0.013005 0.083196
v 0.114097 -0.032003 0.073697
v 0.114097 -0.032003 0.083196
v 0.114097 -0.032003 0.073697
v 0.177876 0.031527 0.083196
v 0.114097 -0.032003 0.083196
v 0.177876 0.031527 0.083196
v 0.114097 -0.032003 0.073697
v 0.177876 0.031527 0.073697
v 0.177876 0.056446 0.083196
v 0.179688 0.054862 0.073697
v 0.177876 0.056446 0.073697
v 0.179688 0.054862 0.073697
v 0.177876 0.056446 0.083196
v 0.179688 0.054862 0.083196
v 0.177876 0.056446 0.083196
v 0.179688 0.033110 0.083196
v 0.179688 0.054862 0.083196
v 0.177876 0.056446 0.083196
v 0.177876 0.031527 0.083196
v 0.179688 0.033110 0.083196
v 0.177876 0.031527 0.073697
v 0.179688 0.033110 0.083196
v 0.177876 0.031527 0.083196
v 0.179688 0.033110 0.083196
v 0.177876 0.031527 0.073697
v 0.179688 0.033110 0.073697
v 0.181235 0.034955 0.073697
v 0.179688 0.033110 0.083196
v 0.179688 0.033110 0.073697
v 0.179688 0.033110 0.083196
v 0.181235 0.034955 0.073697
v 0.181235 0.034955 0.083196
v 0.182478 0.037016 0.073697
v 0.181235 0.034955 0.083196
v 0.181235 0.034955 0.073697
v 0.181235 0.034955 0.083196
v 0.182478 0.037016 0.073697
v 0.182478 0.037016 0.083196
v 0.183388 0.039244 0.073697
v 0.182478 0.037016 0.083196
v 0.182478 0.037016 0.073697
v 0.182478 0.037016 0.083196
v 0.183388 0.039244 0.073697
v 0.183388 0.039244 0.083196
v 0.183943 0.041587 0.073697
v 0.183388 0.039244 0.083196
v 0.183388 0.039244 0.073697
v 0.183388 0.039244 0.083196
v 0.183943 0.041587 0.073697
v 0.183943 0.041587 0.083196
v 0.184130 0.043986 0.073697
v 0.183943 0.041587 0.083196
v 0.183943 0.041587 0.073697
v 0.183943 0.041587 0.083196
v 0.184130 0.043986 0.073697
v 0.184130 0.043986 0.083196
v 0.183943 0.046386 0.073697
v 0.184130 0.043986 0.083196
v 0.184130 0.043986 0.073697
v 0.184130 0.043986 0.083196
v 0.183943 0.046386 0.073697
v 0.183943 0.046386 0.083196
v 0.183388 0.048728 0.073697
v 0.183943 0.046386 0.083196
v 0.183943 0.046386 0.073697
v 0.183943 0.046386 0.083196
v 0.183388 0.048728 0.073697
v 0.183388 0.048728 0.083196
v 0.182478 0.050957 0.073697
v 0.183388 0.048728 0.083196
v 0.183388 0.048728 0.073697
v 0.183388 0.048728 0.083196
v 0.182478 0.050957 0.073697
v 0.182478 0.050957 0.083196
v 0.181235 0.053018 0.073697
v 0.182478 0.050957 0.083196
v 0.182478 0.050957 0.073697
v 0.182478 0.050957 0.083196
v 0.181235 0.053018 0.073697
v 0.181235 0.053018 0.083196
v 0.179688 0.054862 0.073697
v 0.181235 0.053018 0.083196
v 0.181235 0.053018 0.073697
v 0.181235 0.053018 0.083196
v 0.179688 0.054862 0.073697
v 0.179688 0.054862 0.083196
v 0.179688 0.054862 0.083196
v 0.181235 0.034955 0.083196
v 0.181235 0.053018 0.083196
v 0.179688 0.054862 0.083196
v 0.179688 0.033110 0.083196
v 0.181235 0.034955 0.083196
v 0.181235 0.053018 0.083196
v 0.181235 0.034955 0.083196
v 0.182478 0.050957 0.083196
v 0.182478 0.050957 0.083196
v 0.181235 0.034955 0.083196
v 0.182478 0.037016 0.083196
v 0.182478 0.050957 0.083196
v 0.182478 0.037016 0.083196
v 0.183388 0.048728 0.083196
v 0.183388 0.048728 0.083196
v 0.182478 0.037016 0.083196
v 0.183388 0.039244 0.083196
v 0.183388 0.048728 0.083196
v 0.183388 0.039244 0.083196
v 0.183943 0.041587 0.083196
v 0.183388 0.048728 0.083196
v 0.183943 0.041587 0.083196
v 0.183943 0.046386 0.083196
v 0.183943 0.046386 0.083196
v 0.183943 0.041587 0.083196
v 0.184130 0.043986 0.083196
v 0.114097 -0.032003 0.083196
v 0.098237 -0.003765 0.083196
v 0.095397 -0.013005 0.083196
v 0.098237 -0.003765 0.083196
v 0.114097 -0.032003 0.083196
v 0.100571 0.005616 0.083196
v 0.100571 0.005616 0.083196
v 0.114097 -0.032003 0.083196
v 0.102394 0.015110 0.083196
v 0.102394 0.015110 0.083196
v 0.114097 -0.032003 0.083196
v 0.103700 0.024688 0.083196
v 0.103700 0.024688 0.083196
v 0.114097 -0.032003 0.083196
v 0.104485 0.034323 0.083196
v 0.104485 0.034323 0.083196
v 0.114097 -0.032003 0.083196
v 0.104747 0.043986 0.083196
vt 6.3418378829956055 2.5
vt 5.1571831703186035 2.375
vt 6.3418378829956055 2.375
vt 5.1571831703186035 2.5
vt 4.745700836181641 13.750584602355957
vt 5.5850138664245605 12.586623191833496
vt 5.5850138664245605 12.914546012878418
vt 4.745700836181641 11.750584602355957
vt 4.622659206390381 12.750584602355957
vt 4.6192121505737305 12.877753257751465
vt 4.608880043029785 13.004549026489258
vt 4.5916948318481445 13.130598068237305
vt 4.567705154418945 13.255531311035156
vt 4.536983013153076 13.37898063659668
vt 4.499618053436279 13.500584602355957
vt -13.128714561462402 2.5
vt -12.77791976928711 2.375
vt -12.77791976928711 2.5
vt -13.128714561462402 2.375
vt -11.456279754638672 2.375
vt -11.583495140075684 2.5
vt -11.583495140075684 2.375
vt -11.456279754638672 2.5
vt -11.76008415222168 2.375
vt -11.887298583984375 2.5
vt -11.887298583984375 2.375
vt -11.76008415222168 2.5
vt -12.029159545898438 2.375
vt -12.15637493133545 2.5
vt -12.15637493133545 2.375
vt -12.029159545898438 2.5
vt -12.262717247009277 2.375
vt -12.389932632446289 2.5
vt -12.389932632446289 2.375
vt -12.262717247009277 2.5
vt -12.46006965637207 2.375
vt -12.587285041809082 2.5
vt -12.587285041809082 2.375
vt -12.46006965637207 2.5
vt -12.620638847351074 2.375
vt -12.747854232788086 2.5
vt -12.747854232788086 2.375
vt -12.620638847351074 2.5
vt -12.743950843811035 2.375
vt -12.871167182922363 2.5
vt -12.871167182922363 2.375
vt -12.743950843811035 2.5
vt -12.829646110534668 2.375
vt -12.956860542297363 2.5
vt -12.956860542297363 2.375
vt -12.829646110534668 2.5
vt -12.877470970153809 2.375
vt -13.004687309265137 2.5
vt -13.004687309265137 2.375
vt -12.877470970153809 2.5
vt -12.887286186218262 2.375
vt -13.014501571655273 2.5
vt -13.014501571655273 2.375
vt -12.887286186218262 2.5
vt -12.859062194824219 2.375
vt -12.98627758026123 2.5
vt -12.98627758026123 2.375
vt -12.859062194824219 2.5
vt -12.792881965637207 2.375
vt -12.920097351074219 2.5
vt -12.920097351074219 2.375
vt -12.792881965637207 2.5
vt -5.045144081115723 2.375
vt -5.395937919616699 2.5
vt -5.395937919616699 2.375
vt -5.045144081115723 2.5
vt 11.654932022094727 2.375
vt 12.83958625793457 2.5
vt 11.654932022094727 2.5
vt 12.83958625793457 2.375
vt 4.288751125335693 2.5
vt 4.257073879241943 2.375
vt 4.288751125335693 2.375
vt 4.257073879241943 2.5
vt 5.608871936798096 12.607460021972656
vt 5.608871936798096 12.893710136413574
vt 12.486139297485352 2.375
vt 12.517814636230469 2.5
vt 12.486139297485352 2.5
vt 12.517814636230469 2.375
vt 13.296051025390625 2.375
vt 13.264374732971191 2.5
vt 13.264374732971191 2.375
vt 13.296051025390625 2.5
vt 13.75557804107666 2.375
vt 13.723901748657227 2.5
vt 13.723901748657227 2.375
vt 13.75557804107666 2.5
vt 13.885366439819336 2.375
vt 13.853690147399902 2.5
vt 13.853690147399902 2.375
vt 13.885366439819336 2.5
vt 13.682299613952637 2.375
vt 13.65062427520752 2.5
vt 13.65062427520752 2.375
vt 13.682299613952637 2.5
vt 13.151254653930664 2.375
vt 13.119579315185547 2.5
vt 13.119579315185547 2.375
vt 13.151254653930664 2.5
vt 12.304974555969238 2.375
vt 12.273299217224121 2.5
vt 12.273299217224121 2.375
vt 12.304974555969238 2.5
vt 11.163768768310547 2.375
vt 11.13209342956543 2.5
vt 11.13209342956543 2.375
vt 11.163768768310547 2.5
vt 9.755025863647461 2.375
vt 9.723349571228027 2.5
vt 9.723349571228027 2.375
vt 9.755025863647461 2.5
vt 8.11255168914795 2.375
vt 8.080876350402832 2.5
vt 8.080876350402832 2.375
vt 8.11255168914795 2.5
vt 6.275766849517822 2.375
vt 6.244091033935547 2.5
vt 6.244091033935547 2.375
vt 6.275766849517822 2.5
vt 5.62922477722168 12.631731986999512
vt 5.62922477722168 12.869438171386719
vt 5.645586013793945 12.842313766479492
vt 5.645586013793945 12.658856391906738
vt 5.6575608253479 12.812989234924316
vt 5.6575608253479 12.688180923461914
vt 5.664862155914307 12.719003677368164
vt 5.664862155914307 12.78216552734375
vt 5.66731595993042 12.750584602355957
vt 4.536983013153076 12.122188568115234
vt 4.499618053436279 12.000584602355957
vt 4.567705154418945 12.245638847351074
vt 4.5916948318481445 12.370572090148926
vt 4.608880043029785 12.496621131896973
vt 4.6192121505737305 12.62341594696045
vn 0.7057229298679524 0.7084879295080426 0
vn -0.7057229298679524 -0.7084879295080426 0
vn 0 0 1
vn 0 0 -1
vn -0.7126677266204501 0.7015017544052469 0
vn 0.7126677266204501 -0.7015017544052469 0
vn -0.9635006692563474 -0.2677059213812249 0
vn -0.9558924717195001 -0.2937168406986308 0
vn 0.9635006692563474 0.2677059213812249 0
vn 0.9558924717195001 0.2937168406986308 0
vn -0.9765887392145706 -0.21511493309227844 0
vn 0.9765887392145706 0.21511493309227844 0
vn -0.9868086560679356 -0.16189093955312886 0
vn 0.9868086560679356 0.16189093955312886 0
vn -0.9941300175402724 -0.10819199704866148 0
vn 0.9941300175402724 0.10819199704866148 0
vn -0.9985314009479648 -0.054176021641450474 0
vn 0.9985314009479648 0.054176021641450474 0
vn -1 0 0
vn 1 0 0
vn -0.9985314009479648 0.054176021641450474 0
vn 0.9985314009479648 -0.054176021641450474 0
vn -0.9941300175402724 0.10819199704866148 0
vn 0.9941300175402724 -0.10819199704866148 0
vn -0.9868086560679356 0.16189093955312886 0
vn 0.9868086560679356 -0.16189093955312886 0
vn -0.9765887392145706 0.21511493309227844 0
vn 0.9765887392145706 -0.21511493309227844 0
vn -0.9635006692563474 0.2677059213812249 0
vn 0.9635006692563474 -0.2677059213812249 0
vn -0.9558924717195001 0.2937168406986308 0
vn 0.9558924717195001 -0.2937168406986308 0
vn -0.7126677266204501 -0.7015017544052469 0
vn 0.7126677266204501 0.7015017544052469 0
vn 0.7057229298679524 -0.7084879295080426 0
vn -0.7057229298679524 0.7084879295080426 0
vn 0.6578089168174015 0.7531848570938723 0
vn 0.7141721255348937 0.6999701244403019 0
vn -0.6578089168174015 -0.7531848570938723 0
vn -0.7141721255348937 -0.6999701244403019 0
vn 0.6578089168174015 -0.7531848570938723 0
vn 0.7141721255348937 -0.6999701244403019 0
vn -0.6578089168174015 0.7531848570938723 0
vn -0.7141721255348937 0.6999701244403019 0
vn 0.8137134145549269 -0.5812662720073838 0
vn -0.8137134145549269 0.5812662720073838 0
vn 0.8937260983031362 -0.4486130417317946 0
vn -0.8937260983031362 0.4486130417317946 0
vn 0.9522901827418002 -0.3051940495055382 0
vn -0.9522901827418002 0.3051940495055382 0
vn 0.9880006152588602 -0.154449940913274 0
vn -0.9880006152588602 0.154449940913274 0
vn 0.9880006152588602 0.154449940913274 0
vn -0.9880006152588602 -0.154449940913274 0
vn 0.9522901827418002 0.3051940495055382 0
vn -0.9522901827418002 -0.3051940495055382 0
vn 0.8937260983031362 0.4486130417317946 0
vn -0.8937260983031362 -0.4486130417317946 0
vn 0.8137134145549269 0.5812662720073838 0
vn -0.8137134145549269 -0.5812662720073838 0
usemtl material_0_2
f 1/1/1 2/2/1 3/3/1
f 3/3/2 2/2/2 1/1/2
f 4/2/1 5/1/1 6/4/1
f 6/4/2 5/1/2 4/2/2
f 7/5/3 8/6/3 9/7/3
f 9/7/4 8/6/4 7/5/4
f 10/5/3 11/8/3 12/6/3
f 12/6/4 11/8/4 10/5/4
f 13/5/3 14/9/3 15/8/3
f 15/8/4 14/9/4 13/5/4
f 16/5/3 17/10/3 18/9/3
f 18/9/4 17/10/4 16/5/4
f 19/5/3 20/11/3 21/10/3
f 21/10/4 20/11/4 19/5/4
f 22/5/3 23/12/3 24/11/3
f 24/11/4 23/12/4 22/5/4
f 25/5/3 26/13/3 27/12/3
f 27/12/4 26/13/4 25/5/4
f 28/5/3 29/14/3 30/13/3
f 30/13/4 29/14/4 28/5/4
f 31/14/3 32/5/3 33/15/3
f 33/15/4 32/5/4 31/14/4
f 34/16/5 35/17/5 36/18/5
f 36/18/6 35/17/6 34/16/6
f 37/17/5 38/16/5 39/19/5
f 39/19/6 38/16/6 37/17/6
f 40/20/7 41/21/8 42/22/8
f 42/22/10 41/21/10 40/20/9
f 43/21/8 44/20/7 45/23/7
f 45/23/9 44/20/9 43/21/10
f 46/24/11 47/25/7 48/26/7
f 48/26/9 47/25/9 46/24/12
f 49/25/7 50/24/11 51/27/11
f 51/27/12 50/24/12 49/25/9
f 52/28/13 53/29/11 54/30/11
f 54/30/12 53/29/12 52/28/14
f 55/29/11 56/28/13 57/31/13
f 57/31/14 56/28/14 55/29/12
f 58/32/15 59/33/13 60/34/13
f 60/34/14 59/33/14 58/32/16
f 61/33/13 62/32/15 63/35/15
f 63/35/16 62/32/16 61/33/14
f 64/36/17 65/37/15 66/38/15
f 66/38/16 65/37/16 64/36/18
f 67/37/15 68/36/17 69/39/17
f 69/39/18 68/36/18 67/37/16
f 70/40/19 71/41/17 72/42/17
f 72/42/18 71/41/18 70/40/20
f 73/41/17 74/40/19 75/43/19
f 75/43/20 74/40/20 73/41/18
f 76/44/21 77/45/19 78/46/19
f 78/46/20 77/45/20 76/44/22
f 79/45/19 80/44/21 81/47/21
f 81/47/22 80/44/22 79/45/20
f 82/48/23 83/49/21 84/50/21
f 84/50/22 83/49/22 82/48/24
f 85/49/21 86/48/23 87/51/23
f 87/51/24 86/48/24 85/49/22
f 88/52/25 89/53/23 90/54/23
f 90/54/24 89/53/24 88/52/26
f 91/53/23 92/52/25 93/55/25
f 93/55/26 92/52/26 91/53/24
f 94/56/27 95/57/25 96/58/25
f 96/58/26 95/57/26 94/56/28
f 97/57/25 98/56/27 99/59/27
f 99/59/28 98/56/28 97/57/26
f 100/60/29 101/61/27 102/62/27
f 102/62/28 101/61/28 100/60/30
f 103/61/27 104/60/29 105/63/29
f 105/63/30 104/60/30 103/61/28
f 106/64/31 107/65/29 108/66/29
f 108/66/30 107/65/30 106/64/32
f 109/65/29 110/64/31 111/67/31
f 111/67/32 110/64/32 109/65/30
f 112/68/33 113/69/33 114/70/33
f 114/70/34 113/69/34 112/68/34
f 115/69/33 116/68/33 117/71/33
f 117/71/34 116/68/34 115/69/34
f 118/72/35 119/73/35 120/74/35
f 120/74/36 119/73/36 118/72/36
f 121/73/35 122/72/35 123/75/35
f 123/75/36 122/72/36 121/73/36
f 124/76/37 125/77/38 126/78/37
f 126/78/39 125/77/40 124/76/39
f 127/77/38 128/76/37 129/79/38
f 129/79/40 128/76/39 127/77/40
f 130/7/3 131/80/3 132/81/3
f 132/81/4 131/80/4 130/7/4
f 133/7/3 134/6/3 135/80/3
f 135/80/4 134/6/4 133/7/4
f 136/82/41 137/83/42 138/84/41
f 138/84/43 137/83/44 136/82/43
f 139/83/42 140/82/41 141/85/42
f 141/85/44 140/82/43 139/83/44
f 142/86/45 143/87/42 144/88/42
f 144/88/44 143/87/44 142/86/46
f 145/87/42 146/86/45 147/89/45
f 147/89/46 146/86/46 145/87/44
f 148/90/47 149/91/45 150/92/45
f 150/92/46 149/91/46 148/90/48
f 151/91/45 152/90/47 153/93/47
f 153/93/48 152/90/48 151/91/46
f 154/94/49 155/95/47 156/96/47
f 156/96/48 155/95/48 154/94/50
f 157/95/47 158/94/49 159/97/49
f 159/97/50 158/94/50 157/95/48
f 160/98/51 161/99/49 162/100/49
f 162/100/50 161/99/50 160/98/52
f 163/99/49 164/98/51 165/101/51
f 165/101/52 164/98/52 163/99/50
f 166/102/20 167/103/51 168/104/51
f 168/104/52 167/103/52 166/102/19
f 169/103/51 170/102/20 171/105/20
f 171/105/19 170/102/19 169/103/52
f 172/106/53 173/107/20 174/108/20
f 174/108/19 173/107/19 172/106/54
f 175/107/20 176/106/53 177/109/53
f 177/109/54 176/106/54 175/107/19
f 178/110/55 179/111/53 180/112/53
f 180/112/54 179/111/54 178/110/56
f 181/111/53 182/110/55 183/113/55
f 183/113/56 182/110/56 181/111/54
f 184/114/57 185/115/55 186/116/55
f 186/116/56 185/115/56 184/114/58
f 187/115/55 188/114/57 189/117/57
f 189/117/58 188/114/58 187/115/56
f 190/118/59 191/119/57 192/120/57
f 192/120/58 191/119/58 190/118/60
f 193/119/57 194/118/59 195/121/59
f 195/121/60 194/118/60 193/119/58
f 196/122/38 197/123/59 198/124/59
f 198/124/60 197/123/60 196/122/40
f 199/123/59 200/122/38 201/125/38
f 201/125/40 200/122/40 199/123/60
f 202/81/3 203/126/3 204/127/3
f 204/127/4 203/126/4 202/81/4
f 205/81/3 206/80/3 207/126/3
f 207/126/4 206/80/4 205/81/4
f 208/127/3 209/126/3 210/128/3
f 210/128/4 209/126/4 208/127/4
f 211/128/3 212/126/3 213/129/3
f 213/129/4 212/126/4 211/128/4
f 214/128/3 215/129/3 216/130/3
f 216/130/4 215/129/4 214/128/4
f 217/130/3 218/129/3 219/131/3
f 219/131/4 218/129/4 217/130/4
f 220/130/3 221/131/3 222/132/3
f 222/132/4 221/131/4 220/130/4
f 223/130/3 224/132/3 225/133/3
f 225/133/4 224/132/4 223/130/4
f 226/133/3 227/132/3 228/134/3
f 228/134/4 227/132/4 226/133/4
f 229/8/3 230/135/3 231/136/3
f 231/136/4 230/135/4 229/8/4
f 232/135/3 233/8/3 234/137/3
f 234/137/4 233/8/4 232/135/4
f 235/137/3 236/8/3 237/138/3
f 237/138/4 236/8/4 235/137/4
f 238/138/3 239/8/3 240/139/3
f 240/139/4 239/8/4 238/138/4
f 241/139/3 242/8/3 243/140/3
f 243/140/4 242/8/4 241/139/4
f 244/140/3 245/8/3 246/9/3
f 246/9/4 245/8/4 244/140/4
