# SSTK version 0.8.0
# 12
mtllib original-12.mtl
o 3dw.61c6c6a47e5b9d34496c7671bf276db5/Model/distancia1/distancia/mesh1/mesh1-geometry/material_0/component_11#mesh1-geometry
v -0.170564 -0.506933 0.073697
v -0.169916 -0.502016 0.083196
v -0.169916 -0.502016 0.073697
v -0.169916 -0.502016 0.083196
v -0.170564 -0.506933 0.073697
v -0.170564 -0.506933 0.083196
v -0.169916 -0.511850 0.073697
v -0.170564 -0.506933 0.083196
v -0.170564 -0.506933 0.073697
v -0.170564 -0.506933 0.083196
v -0.169916 -0.511850 0.073697
v -0.169916 -0.511850 0.083196
v -0.168019 -0.516432 0.073697
v -0.169916 -0.511850 0.083196
v -0.169916 -0.511850 0.073697
v -0.169916 -0.511850 0.083196
v -0.168019 -0.516432 0.073697
v -0.168019 -0.516432 0.083196
v -0.165000 -0.520366 0.073697
v -0.168019 -0.516432 0.083196
v -0.168019 -0.516432 0.073697
v -0.168019 -0.516432 0.083196
v -0.165000 -0.520366 0.073697
v -0.165000 -0.520366 0.083196
v -0.165000 -0.520366 0.073697
v -0.161065 -0.523385 0.083196
v -0.165000 -0.520366 0.083196
v -0.161065 -0.523385 0.083196
v -0.165000 -0.520366 0.073697
v -0.161065 -0.523385 0.073697
v -0.161065 -0.523385 0.073697
v -0.156483 -0.525283 0.083196
v -0.161065 -0.523385 0.083196
v -0.156483 -0.525283 0.083196
v -0.161065 -0.523385 0.073697
v -0.156483 -0.525283 0.073697
v -0.156483 -0.525283 0.073697
v -0.151566 -0.525930 0.083196
v -0.156483 -0.525283 0.083196
v -0.151566 -0.525930 0.083196
v -0.156483 -0.525283 0.073697
v -0.151566 -0.525930 0.073697
v -0.151566 -0.525930 0.073697
v -0.146650 -0.525283 0.083196
v -0.151566 -0.525930 0.083196
v -0.146650 -0.525283 0.083196
v -0.151566 -0.525930 0.073697
v -0.146650 -0.525283 0.073697
v -0.146650 -0.525283 0.073697
v -0.142068 -0.523385 0.083196
v -0.146650 -0.525283 0.083196
v -0.142068 -0.523385 0.083196
v -0.146650 -0.525283 0.073697
v -0.142068 -0.523385 0.073697
v -0.142068 -0.523385 0.073697
v -0.138133 -0.520366 0.083196
v -0.142068 -0.523385 0.083196
v -0.138133 -0.520366 0.083196
v -0.142068 -0.523385 0.073697
v -0.138133 -0.520366 0.073697
v -0.135114 -0.516432 0.073697
v -0.138133 -0.520366 0.083196
v -0.138133 -0.520366 0.073697
v -0.138133 -0.520366 0.083196
v -0.135114 -0.516432 0.073697
v -0.135114 -0.516432 0.083196
v -0.133217 -0.511850 0.073697
v -0.135114 -0.516432 0.083196
v -0.135114 -0.516432 0.073697
v -0.135114 -0.516432 0.083196
v -0.133217 -0.511850 0.073697
v -0.133217 -0.511850 0.083196
v -0.132569 -0.506933 0.073697
v -0.133217 -0.511850 0.083196
v -0.133217 -0.511850 0.073697
v -0.133217 -0.511850 0.083196
v -0.132569 -0.506933 0.073697
v -0.132569 -0.506933 0.083196
v -0.133217 -0.502016 0.073697
v -0.132569 -0.506933 0.083196
v -0.132569 -0.506933 0.073697
v -0.132569 -0.506933 0.083196
v -0.133217 -0.502016 0.073697
v -0.133217 -0.502016 0.083196
v -0.135114 -0.497435 0.073697
v -0.133217 -0.502016 0.083196
v -0.133217 -0.502016 0.073697
v -0.133217 -0.502016 0.083196
v -0.135114 -0.497435 0.073697
v -0.135114 -0.497435 0.083196
v -0.138133 -0.493500 0.073697
v -0.135114 -0.497435 0.083196
v -0.135114 -0.497435 0.073697
v -0.135114 -0.497435 0.083196
v -0.138133 -0.493500 0.073697
v -0.138133 -0.493500 0.083196
v -0.138133 -0.493500 0.073697
v -0.142068 -0.490481 0.083196
v -0.138133 -0.493500 0.083196
v -0.142068 -0.490481 0.083196
v -0.138133 -0.493500 0.073697
v -0.142068 -0.490481 0.073697
v -0.161065 -0.490481 0.083196
v -0.156483 -0.488583 0.073697
v -0.161065 -0.490481 0.073697
v -0.156483 -0.488583 0.073697
v -0.161065 -0.490481 0.083196
v -0.156483 -0.488583 0.083196
v -0.161065 -0.490481 0.083196
v -0.156483 -0.525283 0.083196
v -0.156483 -0.488583 0.083196
v -0.161065 -0.490481 0.083196
v -0.161065 -0.523385 0.083196
v -0.156483 -0.525283 0.083196
v -0.165000 -0.493500 0.083196
v -0.161065 -0.523385 0.083196
v -0.161065 -0.490481 0.083196
v -0.165000 -0.493500 0.083196
v -0.165000 -0.520366 0.083196
v -0.161065 -0.523385 0.083196
v -0.168019 -0.497435 0.083196
v -0.165000 -0.520366 0.083196
v -0.165000 -0.493500 0.083196
v -0.168019 -0.497435 0.083196
v -0.168019 -0.516432 0.083196
v -0.165000 -0.520366 0.083196
v -0.169916 -0.502016 0.083196
v -0.168019 -0.516432 0.083196
v -0.168019 -0.497435 0.083196
v -0.169916 -0.502016 0.083196
v -0.169916 -0.511850 0.083196
v -0.168019 -0.516432 0.083196
v -0.169916 -0.511850 0.083196
v -0.169916 -0.502016 0.083196
v -0.170564 -0.506933 0.083196
v -0.168019 -0.497435 0.083196
v -0.169916 -0.502016 0.073697
v -0.169916 -0.502016 0.083196
v -0.169916 -0.502016 0.073697
v -0.168019 -0.497435 0.083196
v -0.168019 -0.497435 0.073697
v -0.165000 -0.493500 0.083196
v -0.168019 -0.497435 0.073697
v -0.168019 -0.497435 0.083196
v -0.168019 -0.497435 0.073697
v -0.165000 -0.493500 0.083196
v -0.165000 -0.493500 0.073697
v -0.165000 -0.493500 0.083196
v -0.161065 -0.490481 0.073697
v -0.165000 -0.493500 0.073697
v -0.161065 -0.490481 0.073697
v -0.165000 -0.493500 0.083196
v -0.161065 -0.490481 0.083196
v -0.156483 -0.488583 0.083196
v -0.156483 -0.525283 0.083196
v -0.151566 -0.525930 0.083196
v -0.156483 -0.488583 0.083196
v -0.151566 -0.525930 0.083196
v -0.151566 -0.487936 0.083196
v -0.151566 -0.487936 0.083196
v -0.151566 -0.525930 0.083196
v -0.146650 -0.525283 0.083196
v -0.151566 -0.487936 0.083196
v -0.146650 -0.525283 0.083196
v -0.146650 -0.488583 0.083196
v -0.146650 -0.488583 0.083196
v -0.146650 -0.525283 0.083196
v -0.142068 -0.523385 0.083196
v -0.146650 -0.488583 0.083196
v -0.142068 -0.523385 0.083196
v -0.142068 -0.490481 0.083196
v -0.142068 -0.490481 0.083196
v -0.142068 -0.523385 0.083196
v -0.138133 -0.520366 0.083196
v -0.142068 -0.490481 0.083196
v -0.138133 -0.520366 0.083196
v -0.138133 -0.493500 0.083196
v -0.138133 -0.493500 0.083196
v -0.138133 -0.520366 0.083196
v -0.135114 -0.516432 0.083196
v -0.138133 -0.493500 0.083196
v -0.135114 -0.516432 0.083196
v -0.135114 -0.497435 0.083196
v -0.135114 -0.497435 0.083196
v -0.135114 -0.516432 0.083196
v -0.133217 -0.511850 0.083196
v -0.135114 -0.497435 0.083196
v -0.133217 -0.511850 0.083196
v -0.133217 -0.502016 0.083196
v -0.133217 -0.502016 0.083196
v -0.133217 -0.511850 0.083196
v -0.132569 -0.506933 0.083196
v -0.142068 -0.490481 0.073697
v -0.146650 -0.488583 0.083196
v -0.142068 -0.490481 0.083196
v -0.146650 -0.488583 0.083196
v -0.142068 -0.490481 0.073697
v -0.146650 -0.488583 0.073697
v -0.146650 -0.488583 0.073697
v -0.151566 -0.487936 0.083196
v -0.146650 -0.488583 0.083196
v -0.151566 -0.487936 0.083196
v -0.146650 -0.488583 0.073697
v -0.151566 -0.487936 0.073697
v -0.151566 -0.487936 0.073697
v -0.156483 -0.488583 0.083196
v -0.151566 -0.487936 0.083196
v -0.156483 -0.488583 0.083196
v -0.151566 -0.487936 0.073697
v -0.156483 -0.488583 0.073697
vt -5.58400297164917 2.375
vt -5.649265766143799 2.5
vt -5.649265766143799 2.375
vt -5.58400297164917 2.5
vt -5.257787227630615 2.375
vt -5.323050022125244 2.5
vt -5.323050022125244 2.375
vt -5.257787227630615 2.5
vt -4.571037769317627 2.375
vt -4.636301040649414 2.5
vt -4.636301040649414 2.375
vt -4.571037769317627 2.5
vt -3.570557117462158 2.375
vt -3.635819911956787 2.5
vt -3.635819911956787 2.375
vt -3.570557117462158 2.5
vt -2.389786958694458 2.375
vt -2.32452392578125 2.5
vt -2.389786958694458 2.5
vt -2.32452392578125 2.375
vt -0.9831179976463318 2.375
vt -0.9178550243377686 2.5
vt -0.9831179976463318 2.5
vt -0.9178550243377686 2.375
vt 0.48832499980926514 2.375
vt 0.5535879731178284 2.5
vt 0.48832499980926514 2.5
vt 0.5535879731178284 2.375
vt 1.92426598072052 2.375
vt 1.989529013633728 2.5
vt 1.92426598072052 2.5
vt 1.989529013633728 2.375
vt 3.226846933364868 2.375
vt 3.2921109199523926 2.5
vt 3.226846933364868 2.5
vt 3.2921109199523926 2.375
vt 4.307301044464111 2.375
vt 4.37256383895874 2.5
vt 4.307301044464111 2.5
vt 4.37256383895874 2.375
vt 5.157258033752441 2.375
vt 5.091994762420654 2.5
vt 5.091994762420654 2.375
vt 5.157258033752441 2.5
vt 5.592717170715332 2.375
vt 5.527453899383545 2.5
vt 5.527453899383545 2.375
vt 5.592717170715332 2.5
vt 5.649265766143799 2.375
vt 5.58400297164917 2.5
vt 5.58400297164917 2.375
vt 5.649265766143799 2.5
vt 5.323050022125244 2.375
vt 5.257787227630615 2.5
vt 5.257787227630615 2.375
vt 5.323050022125244 2.5
vt 4.636301040649414 2.375
vt 4.571037769317627 2.5
vt 4.571037769317627 2.375
vt 4.636301040649414 2.5
vt 3.635819911956787 2.375
vt 3.570557117462158 2.5
vt 3.570557117462158 2.375
vt 3.635819911956787 2.5
vt 2.32452392578125 2.375
vt 2.389786958694458 2.5
vt 2.32452392578125 2.5
vt 2.389786958694458 2.375
vt -3.226846933364868 2.5
vt -3.2921109199523926 2.375
vt -3.226846933364868 2.375
vt -3.2921109199523926 2.5
vt 1.1246180534362793 5.717091083526611
vt 1.1849130392074585 5.259102821350098
vt 1.1849130392074585 5.742065906524658
vt 1.1246180534362793 5.284078121185303
vt 1.0728410482406616 5.677361965179443
vt 1.0728410482406616 5.323808193206787
vt 1.0331109762191772 5.625585079193115
vt 1.0331109762191772 5.375585079193115
vt 1.0081360340118408 5.5652899742126465
vt 1.0081360340118408 5.435880184173584
vt 0.9996179938316345 5.500585079193115
vt -5.592717170715332 2.5
vt -5.527453899383545 2.375
vt -5.527453899383545 2.5
vt -5.592717170715332 2.375
vt -5.157258033752441 2.5
vt -5.091994762420654 2.375
vt -5.091994762420654 2.5
vt -5.157258033752441 2.375
vt -4.307301044464111 2.5
vt -4.37256383895874 2.375
vt -4.307301044464111 2.375
vt -4.37256383895874 2.5
vt 1.2496180534362793 5.250585079193115
vt 1.2496180534362793 5.750585079193115
vt 1.3143229484558105 5.259102821350098
vt 1.3143229484558105 5.742065906524658
vt 1.3746180534362793 5.284078121185303
vt 1.3746180534362793 5.717091083526611
vt 1.426395058631897 5.323808193206787
vt 1.426395058631897 5.677361965179443
vt 1.4661240577697754 5.375585079193115
vt 1.4661240577697754 5.625585079193115
vt 1.4910989999771118 5.435880184173584
vt 1.4910989999771118 5.5652899742126465
vt 1.4996180534362793 5.500585079193115
vt 0.9178550243377686 2.375
vt 0.9831179976463318 2.5
vt 0.9178550243377686 2.5
vt 0.9831179976463318 2.375
vt -0.5535879731178284 2.375
vt -0.48832499980926514 2.5
vt -0.5535879731178284 2.5
vt -0.48832499980926514 2.375
vt -1.989529013633728 2.375
vt -1.92426598072052 2.5
vt -1.989529013633728 2.5
vt -1.92426598072052 2.375
vn -1 0 0
vn -0.9659258451755842 0.25881897461707376 0
vn 1 0 0
vn 0.9659258451755842 -0.25881897461707376 0
vn -0.9659258451755842 -0.25881897461707376 0
vn 0.9659258451755842 0.25881897461707376 0
vn -0.8660252955903434 -0.5000001873976233 0
vn 0.8660252955903434 0.5000001873976233 0
vn -0.7071067811865476 -0.7071067811865476 0
vn 0.7071067811865476 0.7071067811865476 0
vn -0.5000001873976233 -0.8660252955903434 0
vn 0.5000001873976233 0.8660252955903434 0
vn -0.25881897461707376 -0.9659258451755842 0
vn 0.25881897461707376 0.9659258451755842 0
vn 0 -1 0
vn 0 1 0
vn 0.25881897461707376 -0.9659258451755842 0
vn -0.25881897461707376 0.9659258451755842 0
vn 0.5000001873976233 -0.8660252955903434 0
vn -0.5000001873976233 0.8660252955903434 0
vn 0.7071067811865476 -0.7071067811865476 0
vn -0.7071067811865476 0.7071067811865476 0
vn 0.8660252955903434 -0.5000001873976233 0
vn -0.8660252955903434 0.5000001873976233 0
vn 0 0 1
vn 0 0 -1
usemtl material_0_2
f 1/1/1 2/2/2 3/3/2
f 3/3/4 2/2/4 1/1/3
f 4/2/2 5/1/1 6/4/1
f 6/4/3 5/1/3 4/2/4
f 7/5/5 8/6/1 9/7/1
f 9/7/3 8/6/3 7/5/6
f 10/6/1 11/5/5 12/8/5
f 12/8/6 11/5/6 10/6/3
f 13/9/7 14/10/5 15/11/5
f 15/11/6 14/10/6 13/9/8
f 16/10/5 17/9/7 18/12/7
f 18/12/8 17/9/8 16/10/6
f 19/13/9 20/14/7 21/15/7
f 21/15/8 20/14/8 19/13/10
f 22/14/7 23/13/9 24/16/9
f 24/16/10 23/13/10 22/14/8
f 25/17/9 26/18/11 27/19/9
f 27/19/10 26/18/12 25/17/10
f 28/18/11 29/17/9 30/20/11
f 30/20/12 29/17/10 28/18/12
f 31/21/11 32/22/13 33/23/11
f 33/23/12 32/22/14 31/21/12
f 34/22/13 35/21/11 36/24/13
f 36/24/14 35/21/12 34/22/14
f 37/25/13 38/26/15 39/27/13
f 39/27/14 38/26/16 37/25/14
f 40/26/15 41/25/13 42/28/15
f 42/28/16 41/25/14 40/26/16
f 43/29/15 44/30/17 45/31/15
f 45/31/16 44/30/18 43/29/16
f 46/30/17 47/29/15 48/32/17
f 48/32/18 47/29/16 46/30/18
f 49/33/17 50/34/19 51/35/17
f 51/35/18 50/34/20 49/33/18
f 52/34/19 53/33/17 54/36/19
f 54/36/20 53/33/18 52/34/20
f 55/37/19 56/38/21 57/39/19
f 57/39/20 56/38/22 55/37/20
f 58/38/21 59/37/19 60/40/21
f 60/40/22 59/37/20 58/38/22
f 61/41/23 62/42/21 63/43/21
f 63/43/22 62/42/22 61/41/24
f 64/42/21 65/41/23 66/44/23
f 66/44/24 65/41/24 64/42/22
f 67/45/4 68/46/23 69/47/23
f 69/47/24 68/46/24 67/45/2
f 70/46/23 71/45/4 72/48/4
f 72/48/2 71/45/2 70/46/24
f 73/49/3 74/50/4 75/51/4
f 75/51/2 74/50/2 73/49/1
f 76/50/4 77/49/3 78/52/3
f 78/52/1 77/49/1 76/50/2
f 79/53/6 80/54/3 81/55/3
f 81/55/1 80/54/1 79/53/5
f 82/54/3 83/53/6 84/56/6
f 84/56/5 83/53/5 82/54/1
f 85/57/8 86/58/6 87/59/6
f 87/59/5 86/58/5 85/57/7
f 88/58/6 89/57/8 90/60/8
f 90/60/7 89/57/7 88/58/5
f 91/61/10 92/62/8 93/63/8
f 93/63/7 92/62/7 91/61/9
f 94/62/8 95/61/10 96/64/10
f 96/64/9 95/61/9 94/62/7
f 97/65/10 98/66/12 99/67/10
f 99/67/9 98/66/11 97/65/9
f 100/66/12 101/65/10 102/68/12
f 102/68/11 101/65/9 100/66/11
f 103/69/20 104/70/18 105/71/20
f 105/71/19 104/70/17 103/69/19
f 106/70/18 107/69/20 108/72/18
f 108/72/17 107/69/19 106/70/17
f 109/73/25 110/74/25 111/75/25
f 111/75/26 110/74/26 109/73/26
f 112/73/25 113/76/25 114/74/25
f 114/74/26 113/76/26 112/73/26
f 115/77/25 116/76/25 117/73/25
f 117/73/26 116/76/26 115/77/26
f 118/77/25 119/78/25 120/76/25
f 120/76/26 119/78/26 118/77/26
f 121/79/25 122/78/25 123/77/25
f 123/77/26 122/78/26 121/79/26
f 124/79/25 125/80/25 126/78/25
f 126/78/26 125/80/26 124/79/26
f 127/81/25 128/80/25 129/79/25
f 129/79/26 128/80/26 127/81/26
f 130/81/25 131/82/25 132/80/25
f 132/80/26 131/82/26 130/81/26
f 133/82/25 134/81/25 135/83/25
f 135/83/26 134/81/26 133/82/26
f 136/84/24 137/85/2 138/86/2
f 138/86/4 137/85/4 136/84/23
f 139/85/2 140/84/24 141/87/24
f 141/87/23 140/84/23 139/85/4
f 142/88/22 143/89/24 144/90/24
f 144/90/23 143/89/23 142/88/21
f 145/89/24 146/88/22 147/91/22
f 147/91/21 146/88/21 145/89/23
f 148/92/22 149/93/20 150/94/22
f 150/94/21 149/93/19 148/92/21
f 151/93/20 152/92/22 153/95/20
f 153/95/19 152/92/21 151/93/19
f 154/75/25 155/74/25 156/96/25
f 156/96/26 155/74/26 154/75/26
f 157/75/25 158/96/25 159/97/25
f 159/97/26 158/96/26 157/75/26
f 160/97/25 161/96/25 162/98/25
f 162/98/26 161/96/26 160/97/26
f 163/97/25 164/98/25 165/99/25
f 165/99/26 164/98/26 163/97/26
f 166/99/25 167/98/25 168/100/25
f 168/100/26 167/98/26 166/99/26
f 169/99/25 170/100/25 171/101/25
f 171/101/26 170/100/26 169/99/26
f 172/101/25 173/100/25 174/102/25
f 174/102/26 173/100/26 172/101/26
f 175/101/25 176/102/25 177/103/25
f 177/103/26 176/102/26 175/101/26
f 178/103/25 179/102/25 180/104/25
f 180/104/26 179/102/26 178/103/26
f 181/103/25 182/104/25 183/105/25
f 183/105/26 182/104/26 181/103/26
f 184/105/25 185/104/25 186/106/25
f 186/106/26 185/104/26 184/105/26
f 187/105/25 188/106/25 189/107/25
f 189/107/26 188/106/26 187/105/26
f 190/107/25 191/106/25 192/108/25
f 192/108/26 191/106/26 190/107/26
f 193/109/12 194/110/14 195/111/12
f 195/111/11 194/110/13 193/109/11
f 196/110/14 197/109/12 198/112/14
f 198/112/13 197/109/11 196/110/13
f 199/113/14 200/114/16 201/115/14
f 201/115/13 200/114/15 199/113/13
f 202/114/16 203/113/14 204/116/16
f 204/116/15 203/113/13 202/114/15
f 205/117/16 206/118/18 207/119/16
f 207/119/15 206/118/17 205/117/15
f 208/118/18 209/117/16 210/120/18
f 210/120/17 209/117/15 208/118/17
