# SSTK version 0.8.0
# 52
mtllib original-52.mtl
o 3dw.61c6c6a47e5b9d34496c7671bf276db5/Model/distancia1/distancia/mesh1/mesh1-geometry/material_2/component_25#mesh1-geometry
v 0.190384 -0.164983 0.073697
v 0.190384 -0.240972 0.076072
v 0.190384 -0.240972 0.073697
v 0.190384 -0.240972 0.076072
v 0.190384 -0.164983 0.073697
v 0.190384 -0.240972 0.083196
v 0.190384 -0.240972 0.083196
v 0.190384 -0.164983 0.073697
v 0.190384 -0.164983 0.083196
v 0.190384 -0.164983 0.073697
v 0.114395 -0.164983 0.083196
v 0.190384 -0.164983 0.083196
v 0.114395 -0.164983 0.083196
v 0.190384 -0.164983 0.073697
v 0.114395 -0.164983 0.073697
v 0.114395 -0.240972 0.073697
v 0.114395 -0.164983 0.083196
v 0.114395 -0.164983 0.073697
v 0.114395 -0.240972 0.076072
v 0.114395 -0.164983 0.083196
v 0.114395 -0.240972 0.073697
v 0.114395 -0.164983 0.083196
v 0.114395 -0.240972 0.076072
v 0.114395 -0.240972 0.083196
v 0.114395 -0.240972 0.076072
v 0.190384 -0.240972 0.083196
v 0.114395 -0.240972 0.083196
v 0.190384 -0.240972 0.083196
v 0.114395 -0.240972 0.076072
v 0.190384 -0.240972 0.076072
v 0.190384 -0.240972 0.083196
v 0.114395 -0.164983 0.083196
v 0.114395 -0.240972 0.083196
v 0.114395 -0.164983 0.083196
v 0.190384 -0.240972 0.083196
v 0.190384 -0.164983 0.083196
vt 10.000584602355957 2.375
vt 9.000584602355957 2.40625
vt 9.000584602355957 2.375
vt 9.000584602355957 2.5
vt 10.000584602355957 2.5
vt -5.749618053436279 2.375
vt -4.749618053436279 2.5
vt -5.749618053436279 2.5
vt -4.749618053436279 2.375
vt -9.000584602355957 2.375
vt -10.000584602355957 2.5
vt -10.000584602355957 2.375
vt -9.000584602355957 2.40625
vt -9.000584602355957 2.5
vt 4.749618053436279 2.40625
vt 5.749618053436279 2.5
vt 4.749618053436279 2.5
vt 5.749618053436279 2.40625
vt 5.749618053436279 9.000584602355957
vt 4.749618053436279 10.000584602355957
vt 4.749618053436279 9.000584602355957
vt 5.749618053436279 10.000584602355957
vn 1 0 0
vn -1 0 0
vn 0 1 0
vn 0 -1 0
vn 0 0 1
vn 0 0 -1
usemtl material_0_2
f 1/1/1 2/2/1 3/3/1
f 3/3/2 2/2/2 1/1/2
f 4/2/1 5/1/1 6/4/1
f 6/4/2 5/1/2 4/2/2
f 7/4/1 8/1/1 9/5/1
f 9/5/2 8/1/2 7/4/2
f 10/6/3 11/7/3 12/8/3
f 12/8/4 11/7/4 10/6/4
f 13/7/3 14/6/3 15/9/3
f 15/9/4 14/6/4 13/7/4
f 16/10/2 17/11/2 18/12/2
f 18/12/1 17/11/1 16/10/1
f 19/13/2 20/11/2 21/10/2
f 21/10/1 20/11/1 19/13/1
f 22/11/2 23/13/2 24/14/2
f 24/14/1 23/13/1 22/11/1
f 25/15/4 26/16/4 27/17/4
f 27/17/3 26/16/3 25/15/3
f 28/16/4 29/15/4 30/18/4
f 30/18/3 29/15/3 28/16/3
f 31/19/5 32/20/5 33/21/5
f 33/21/6 32/20/6 31/19/6
f 34/20/5 35/19/5 36/22/5
f 36/22/6 35/19/6 34/20/6
