# SSTK version 0.8.0
# 17
mtllib original-17.mtl
o 3dw.61c6c6a47e5b9d34496c7671bf276db5/Model/distancia1/distancia/mesh1/mesh1-geometry/material_0/component_16#mesh1-geometry
v -0.165000 -0.577358 0.073697
v -0.168019 -0.573423 0.083196
v -0.168019 -0.573423 0.073697
v -0.168019 -0.573423 0.083196
v -0.165000 -0.577358 0.073697
v -0.165000 -0.577358 0.083196
v -0.165000 -0.577358 0.073697
v -0.161065 -0.580377 0.083196
v -0.165000 -0.577358 0.083196
v -0.161065 -0.580377 0.083196
v -0.165000 -0.577358 0.073697
v -0.161065 -0.580377 0.073697
v -0.161065 -0.580377 0.073697
v -0.156483 -0.582275 0.083196
v -0.161065 -0.580377 0.083196
v -0.156483 -0.582275 0.083196
v -0.161065 -0.580377 0.073697
v -0.156483 -0.582275 0.073697
v -0.156483 -0.582275 0.073697
v -0.151566 -0.582922 0.083196
v -0.156483 -0.582275 0.083196
v -0.151566 -0.582922 0.083196
v -0.156483 -0.582275 0.073697
v -0.151566 -0.582922 0.073697
v -0.151566 -0.582922 0.073697
v -0.146650 -0.582275 0.083196
v -0.151566 -0.582922 0.083196
v -0.146650 -0.582275 0.083196
v -0.151566 -0.582922 0.073697
v -0.146650 -0.582275 0.073697
v -0.146650 -0.582275 0.073697
v -0.142068 -0.580377 0.083196
v -0.146650 -0.582275 0.083196
v -0.142068 -0.580377 0.083196
v -0.146650 -0.582275 0.073697
v -0.142068 -0.580377 0.073697
v -0.142068 -0.580377 0.073697
v -0.138133 -0.577358 0.083196
v -0.142068 -0.580377 0.083196
v -0.138133 -0.577358 0.083196
v -0.142068 -0.580377 0.073697
v -0.138133 -0.577358 0.073697
v -0.132569 -0.563925 0.073697
v -0.133217 -0.568842 0.083196
v -0.133217 -0.568842 0.073697
v -0.133217 -0.568842 0.083196
v -0.132569 -0.563925 0.073697
v -0.132569 -0.563925 0.083196
v -0.133217 -0.559008 0.073697
v -0.132569 -0.563925 0.083196
v -0.132569 -0.563925 0.073697
v -0.132569 -0.563925 0.083196
v -0.133217 -0.559008 0.073697
v -0.133217 -0.559008 0.083196
v -0.135114 -0.554426 0.073697
v -0.133217 -0.559008 0.083196
v -0.133217 -0.559008 0.073697
v -0.133217 -0.559008 0.083196
v -0.135114 -0.554426 0.073697
v -0.135114 -0.554426 0.083196
v -0.138133 -0.550492 0.073697
v -0.135114 -0.554426 0.083196
v -0.135114 -0.554426 0.073697
v -0.135114 -0.554426 0.083196
v -0.138133 -0.550492 0.073697
v -0.138133 -0.550492 0.083196
v -0.138133 -0.550492 0.073697
v -0.142068 -0.547473 0.083196
v -0.138133 -0.550492 0.083196
v -0.142068 -0.547473 0.083196
v -0.138133 -0.550492 0.073697
v -0.142068 -0.547473 0.073697
v -0.142068 -0.547473 0.073697
v -0.146650 -0.545575 0.083196
v -0.142068 -0.547473 0.083196
v -0.146650 -0.545575 0.083196
v -0.142068 -0.547473 0.073697
v -0.146650 -0.545575 0.073697
v -0.146650 -0.545575 0.073697
v -0.151566 -0.544928 0.083196
v -0.146650 -0.545575 0.083196
v -0.151566 -0.544928 0.083196
v -0.146650 -0.545575 0.073697
v -0.151566 -0.544928 0.073697
v -0.151566 -0.544928 0.073697
v -0.156483 -0.545575 0.083196
v -0.151566 -0.544928 0.083196
v -0.156483 -0.545575 0.083196
v -0.151566 -0.544928 0.073697
v -0.156483 -0.545575 0.073697
v -0.156483 -0.545575 0.073697
v -0.161065 -0.547473 0.083196
v -0.156483 -0.545575 0.083196
v -0.161065 -0.547473 0.083196
v -0.156483 -0.545575 0.073697
v -0.161065 -0.547473 0.073697
v -0.161065 -0.547473 0.073697
v -0.165000 -0.550492 0.083196
v -0.161065 -0.547473 0.083196
v -0.165000 -0.550492 0.083196
v -0.161065 -0.547473 0.073697
v -0.165000 -0.550492 0.073697
v -0.168019 -0.554426 0.073697
v -0.165000 -0.550492 0.083196
v -0.165000 -0.550492 0.073697
v -0.165000 -0.550492 0.083196
v -0.168019 -0.554426 0.073697
v -0.168019 -0.554426 0.083196
v -0.169916 -0.559008 0.073697
v -0.168019 -0.554426 0.083196
v -0.168019 -0.554426 0.073697
v -0.168019 -0.554426 0.083196
v -0.169916 -0.559008 0.073697
v -0.169916 -0.559008 0.083196
v -0.170564 -0.563925 0.073697
v -0.169916 -0.559008 0.083196
v -0.169916 -0.559008 0.073697
v -0.169916 -0.559008 0.083196
v -0.170564 -0.563925 0.073697
v -0.170564 -0.563925 0.083196
v -0.169916 -0.568842 0.073697
v -0.170564 -0.563925 0.083196
v -0.170564 -0.563925 0.073697
v -0.170564 -0.563925 0.083196
v -0.169916 -0.568842 0.073697
v -0.169916 -0.568842 0.083196
v -0.168019 -0.573423 0.073697
v -0.169916 -0.568842 0.083196
v -0.169916 -0.568842 0.073697
v -0.169916 -0.568842 0.083196
v -0.168019 -0.573423 0.073697
v -0.168019 -0.573423 0.083196
v -0.169916 -0.559008 0.083196
v -0.169916 -0.568842 0.083196
v -0.168019 -0.573423 0.083196
v -0.169916 -0.568842 0.083196
v -0.169916 -0.559008 0.083196
v -0.170564 -0.563925 0.083196
v -0.169916 -0.559008 0.083196
v -0.168019 -0.573423 0.083196
v -0.168019 -0.554426 0.083196
v -0.168019 -0.554426 0.083196
v -0.168019 -0.573423 0.083196
v -0.165000 -0.577358 0.083196
v -0.168019 -0.554426 0.083196
v -0.165000 -0.577358 0.083196
v -0.165000 -0.550492 0.083196
v -0.165000 -0.550492 0.083196
v -0.165000 -0.577358 0.083196
v -0.161065 -0.580377 0.083196
v -0.165000 -0.550492 0.083196
v -0.161065 -0.580377 0.083196
v -0.161065 -0.547473 0.083196
v -0.161065 -0.547473 0.083196
v -0.161065 -0.580377 0.083196
v -0.156483 -0.582275 0.083196
v -0.161065 -0.547473 0.083196
v -0.156483 -0.582275 0.083196
v -0.156483 -0.545575 0.083196
v -0.156483 -0.545575 0.083196
v -0.156483 -0.582275 0.083196
v -0.151566 -0.582922 0.083196
v -0.156483 -0.545575 0.083196
v -0.151566 -0.582922 0.083196
v -0.151566 -0.544928 0.083196
v -0.151566 -0.544928 0.083196
v -0.151566 -0.582922 0.083196
v -0.146650 -0.582275 0.083196
v -0.151566 -0.544928 0.083196
v -0.146650 -0.582275 0.083196
v -0.146650 -0.545575 0.083196
v -0.146650 -0.545575 0.083196
v -0.146650 -0.582275 0.083196
v -0.142068 -0.580377 0.083196
v -0.146650 -0.545575 0.083196
v -0.142068 -0.580377 0.083196
v -0.142068 -0.547473 0.083196
v -0.142068 -0.547473 0.083196
v -0.142068 -0.580377 0.083196
v -0.138133 -0.577358 0.083196
v -0.142068 -0.547473 0.083196
v -0.138133 -0.577358 0.083196
v -0.138133 -0.550492 0.083196
v -0.138133 -0.550492 0.083196
v -0.138133 -0.577358 0.083196
v -0.135114 -0.573423 0.083196
v -0.138133 -0.577358 0.083196
v -0.135114 -0.573423 0.073697
v -0.135114 -0.573423 0.083196
v -0.135114 -0.573423 0.073697
v -0.138133 -0.577358 0.083196
v -0.138133 -0.577358 0.073697
v -0.133217 -0.568842 0.073697
v -0.135114 -0.573423 0.083196
v -0.135114 -0.573423 0.073697
v -0.135114 -0.573423 0.083196
v -0.133217 -0.568842 0.073697
v -0.133217 -0.568842 0.083196
v -0.135114 -0.554426 0.083196
v -0.135114 -0.573423 0.083196
v -0.133217 -0.568842 0.083196
v -0.138133 -0.550492 0.083196
v -0.135114 -0.573423 0.083196
v -0.135114 -0.554426 0.083196
v -0.135114 -0.554426 0.083196
v -0.133217 -0.568842 0.083196
v -0.133217 -0.559008 0.083196
v -0.133217 -0.559008 0.083196
v -0.133217 -0.568842 0.083196
v -0.132569 -0.563925 0.083196
vt -2.9755420684814453 2.375
vt -3.0408051013946533 2.5
vt -3.0408051013946533 2.375
vt -2.9755420684814453 2.5
vt -1.9332159757614136 2.375
vt -1.8679529428482056 2.5
vt -1.9332159757614136 2.5
vt -1.8679529428482056 2.375
vt -0.6961050033569336 2.375
vt -0.6308419704437256 2.5
vt -0.6961050033569336 2.5
vt -0.6308419704437256 2.375
vt 0.5862200260162354 2.375
vt 0.6514829993247986 2.5
vt 0.5862200260162354 2.5
vt 0.6514829993247986 2.375
vt 1.8263709545135498 2.375
vt 1.8916339874267578 2.5
vt 1.8263709545135498 2.5
vt 1.8916339874267578 2.375
vt 2.9398350715637207 2.375
vt 3.0050981044769287 2.5
vt 2.9398350715637207 2.5
vt 3.0050981044769287 2.375
vt 3.8507299423217773 2.375
vt 3.9159929752349854 2.5
vt 3.8507299423217773 2.5
vt 3.9159929752349854 2.375
vt 4.90568208694458 2.375
vt 4.840418815612793 2.5
vt 4.840418815612793 2.375
vt 4.90568208694458 2.5
vt 4.579466819763184 2.375
vt 4.514203071594238 2.5
vt 4.514203071594238 2.375
vt 4.579466819763184 2.5
vt 3.943392038345337 2.375
vt 3.8781280517578125 2.5
vt 3.8781280517578125 2.375
vt 3.943392038345337 2.5
vt 3.0408051013946533 2.375
vt 2.9755420684814453 2.5
vt 2.9755420684814453 2.375
vt 3.0408051013946533 2.5
vt 1.8679529428482056 2.375
vt 1.9332159757614136 2.5
vt 1.8679529428482056 2.5
vt 1.9332159757614136 2.375
vt 0.6308419704437256 2.375
vt 0.6961050033569336 2.5
vt 0.6308419704437256 2.5
vt 0.6961050033569336 2.375
vt -0.6514829993247986 2.375
vt -0.5862200260162354 2.5
vt -0.6514829993247986 2.5
vt -0.5862200260162354 2.375
vt -1.8916339874267578 2.375
vt -1.8263709545135498 2.5
vt -1.8916339874267578 2.5
vt -1.8263709545135498 2.375
vt -3.0050981044769287 2.375
vt -2.9398350715637207 2.5
vt -3.0050981044769287 2.5
vt -2.9398350715637207 2.375
vt -3.9159929752349854 2.375
vt -3.8507299423217773 2.5
vt -3.9159929752349854 2.5
vt -3.8507299423217773 2.375
vt -4.4969801902771 2.375
vt -4.5622429847717285 2.5
vt -4.5622429847717285 2.375
vt -4.4969801902771 2.5
vt -4.834545135498047 2.375
vt -4.899807929992676 2.5
vt -4.899807929992676 2.375
vt -4.834545135498047 2.5
vt -4.840418815612793 2.375
vt -4.90568208694458 2.5
vt -4.90568208694458 2.375
vt -4.840418815612793 2.5
vt -4.514203071594238 2.375
vt -4.579466819763184 2.5
vt -4.579466819763184 2.375
vt -4.514203071594238 2.5
vt -3.8781280517578125 2.375
vt -3.943392038345337 2.5
vt -3.943392038345337 2.375
vt -3.8781280517578125 2.5
vt 1.0081360340118408 4.8152899742126465
vt 1.0081360340118408 4.685880184173584
vt 1.0331109762191772 4.625585079193115
vt 0.9996179938316345 4.750585079193115
vt 1.0331109762191772 4.875585079193115
vt 1.0728410482406616 4.573808193206787
vt 1.0728410482406616 4.927361965179443
vt 1.1246180534362793 4.534078121185303
vt 1.1246180534362793 4.967091083526611
vt 1.1849130392074585 4.509102821350098
vt 1.1849130392074585 4.992065906524658
vt 1.2496180534362793 4.500585079193115
vt 1.2496180534362793 5.000585079193115
vt 1.3143229484558105 4.509102821350098
vt 1.3143229484558105 4.992065906524658
vt 1.3746180534362793 4.534078121185303
vt 1.3746180534362793 4.967091083526611
vt 1.426395058631897 4.573808193206787
vt 1.426395058631897 4.927361965179443
vt 1.4661240577697754 4.625585079193115
vt 4.4969801902771 2.5
vt 4.5622429847717285 2.375
vt 4.5622429847717285 2.5
vt 4.4969801902771 2.375
vt 4.899807929992676 2.375
vt 4.834545135498047 2.5
vt 4.834545135498047 2.375
vt 4.899807929992676 2.5
vt 1.4661240577697754 4.875585079193115
vt 1.4910989999771118 4.685880184173584
vt 1.4910989999771118 4.8152899742126465
vt 1.4996180534362793 4.750585079193115
vn -0.7071067811865476 -0.7071067811865476 0
vn -0.8660252955903434 -0.5000001873976233 0
vn 0.7071067811865476 0.7071067811865476 0
vn 0.8660252955903434 0.5000001873976233 0
vn -0.5000001873976233 -0.8660252955903434 0
vn 0.5000001873976233 0.8660252955903434 0
vn -0.25881897461707376 -0.9659258451755842 0
vn 0.25881897461707376 0.9659258451755842 0
vn 0 -1 0
vn 0 1 0
vn 0.25881897461707376 -0.9659258451755842 0
vn -0.25881897461707376 0.9659258451755842 0
vn 0.5000001873976233 -0.8660252955903434 0
vn -0.5000001873976233 0.8660252955903434 0
vn 0.7071067811865476 -0.7071067811865476 0
vn -0.7071067811865476 0.7071067811865476 0
vn 1 0 0
vn 0.9659258451755842 -0.25881897461707376 0
vn -1 0 0
vn -0.9659258451755842 0.25881897461707376 0
vn 0.9659258451755842 0.25881897461707376 0
vn -0.9659258451755842 -0.25881897461707376 0
vn -0.8660252955903434 0.5000001873976233 0
vn 0.8660252955903434 -0.5000001873976233 0
vn 0 0 1
vn 0 0 -1
usemtl material_0_2
f 1/1/1 2/2/2 3/3/2
f 3/3/4 2/2/4 1/1/3
f 4/2/2 5/1/1 6/4/1
f 6/4/3 5/1/3 4/2/4
f 7/5/1 8/6/5 9/7/1
f 9/7/3 8/6/6 7/5/3
f 10/6/5 11/5/1 12/8/5
f 12/8/6 11/5/3 10/6/6
f 13/9/5 14/10/7 15/11/5
f 15/11/6 14/10/8 13/9/6
f 16/10/7 17/9/5 18/12/7
f 18/12/8 17/9/6 16/10/8
f 19/13/7 20/14/9 21/15/7
f 21/15/8 20/14/10 19/13/8
f 22/14/9 23/13/7 24/16/9
f 24/16/10 23/13/8 22/14/10
f 25/17/9 26/18/11 27/19/9
f 27/19/10 26/18/12 25/17/10
f 28/18/11 29/17/9 30/20/11
f 30/20/12 29/17/10 28/18/12
f 31/21/11 32/22/13 33/23/11
f 33/23/12 32/22/14 31/21/12
f 34/22/13 35/21/11 36/24/13
f 36/24/14 35/21/12 34/22/14
f 37/25/13 38/26/15 39/27/13
f 39/27/14 38/26/16 37/25/14
f 40/26/15 41/25/13 42/28/15
f 42/28/16 41/25/14 40/26/16
f 43/29/17 44/30/18 45/31/18
f 45/31/20 44/30/20 43/29/19
f 46/30/18 47/29/17 48/32/17
f 48/32/19 47/29/19 46/30/20
f 49/33/21 50/34/17 51/35/17
f 51/35/19 50/34/19 49/33/22
f 52/34/17 53/33/21 54/36/21
f 54/36/22 53/33/22 52/34/19
f 55/37/4 56/38/21 57/39/21
f 57/39/22 56/38/22 55/37/2
f 58/38/21 59/37/4 60/40/4
f 60/40/2 59/37/2 58/38/22
f 61/41/3 62/42/4 63/43/4
f 63/43/2 62/42/2 61/41/1
f 64/42/4 65/41/3 66/44/3
f 66/44/1 65/41/1 64/42/2
f 67/45/3 68/46/6 69/47/3
f 69/47/1 68/46/5 67/45/1
f 70/46/6 71/45/3 72/48/6
f 72/48/5 71/45/1 70/46/5
f 73/49/6 74/50/8 75/51/6
f 75/51/5 74/50/7 73/49/5
f 76/50/8 77/49/6 78/52/8
f 78/52/7 77/49/5 76/50/7
f 79/53/8 80/54/10 81/55/8
f 81/55/7 80/54/9 79/53/7
f 82/54/10 83/53/8 84/56/10
f 84/56/9 83/53/7 82/54/9
f 85/57/10 86/58/12 87/59/10
f 87/59/9 86/58/11 85/57/9
f 88/58/12 89/57/10 90/60/12
f 90/60/11 89/57/9 88/58/11
f 91/61/12 92/62/14 93/63/12
f 93/63/11 92/62/13 91/61/11
f 94/62/14 95/61/12 96/64/14
f 96/64/13 95/61/11 94/62/13
f 97/65/14 98/66/16 99/67/14
f 99/67/13 98/66/15 97/65/13
f 100/66/16 101/65/14 102/68/16
f 102/68/15 101/65/13 100/66/15
f 103/69/23 104/70/16 105/71/16
f 105/71/15 104/70/15 103/69/24
f 106/70/16 107/69/23 108/72/23
f 108/72/24 107/69/24 106/70/15
f 109/73/20 110/74/23 111/75/23
f 111/75/24 110/74/24 109/73/18
f 112/74/23 113/73/20 114/76/20
f 114/76/18 113/73/18 112/74/24
f 115/77/19 116/78/20 117/79/20
f 117/79/18 116/78/18 115/77/17
f 118/78/20 119/77/19 120/80/19
f 120/80/17 119/77/17 118/78/18
f 121/81/22 122/82/19 123/83/19
f 123/83/17 122/82/17 121/81/21
f 124/82/19 125/81/22 126/84/22
f 126/84/21 125/81/21 124/82/17
f 127/85/2 128/86/22 129/87/22
f 129/87/21 128/86/21 127/85/4
f 130/86/22 131/85/2 132/88/2
f 132/88/4 131/85/4 130/86/21
f 133/89/25 134/90/25 135/91/25
f 135/91/26 134/90/26 133/89/26
f 136/90/25 137/89/25 138/92/25
f 138/92/26 137/89/26 136/90/26
f 139/89/25 140/91/25 141/93/25
f 141/93/26 140/91/26 139/89/26
f 142/93/25 143/91/25 144/94/25
f 144/94/26 143/91/26 142/93/26
f 145/93/25 146/94/25 147/95/25
f 147/95/26 146/94/26 145/93/26
f 148/95/25 149/94/25 150/96/25
f 150/96/26 149/94/26 148/95/26
f 151/95/25 152/96/25 153/97/25
f 153/97/26 152/96/26 151/95/26
f 154/97/25 155/96/25 156/98/25
f 156/98/26 155/96/26 154/97/26
f 157/97/25 158/98/25 159/99/25
f 159/99/26 158/98/26 157/97/26
f 160/99/25 161/98/25 162/100/25
f 162/100/26 161/98/26 160/99/26
f 163/99/25 164/100/25 165/101/25
f 165/101/26 164/100/26 163/99/26
f 166/101/25 167/100/25 168/102/25
f 168/102/26 167/100/26 166/101/26
f 169/101/25 170/102/25 171/103/25
f 171/103/26 170/102/26 169/101/26
f 172/103/25 173/102/25 174/104/25
f 174/104/26 173/102/26 172/103/26
f 175/103/25 176/104/25 177/105/25
f 177/105/26 176/104/26 175/103/26
f 178/105/25 179/104/25 180/106/25
f 180/106/26 179/104/26 178/105/26
f 181/105/25 182/106/25 183/107/25
f 183/107/26 182/106/26 181/105/26
f 184/107/25 185/106/25 186/108/25
f 186/108/26 185/106/26 184/107/26
f 187/109/15 188/110/24 189/111/24
f 189/111/23 188/110/23 187/109/16
f 190/110/24 191/109/15 192/112/15
f 192/112/16 191/109/16 190/110/23
f 193/113/18 194/114/24 195/115/24
f 195/115/23 194/114/23 193/113/20
f 196/114/24 197/113/18 198/116/18
f 198/116/20 197/113/20 196/114/23
f 199/117/25 200/108/25 201/118/25
f 201/118/26 200/108/26 199/117/26
f 202/107/25 203/108/25 204/117/25
f 204/117/26 203/108/26 202/107/26
f 205/117/25 206/118/25 207/119/25
f 207/119/26 206/118/26 205/117/26
f 208/119/25 209/118/25 210/120/25
f 210/120/26 209/118/26 208/119/26
