# SSTK version 0.8.0
# 2
mtllib original-2.mtl
o 3dw.61c6c6a47e5b9d34496c7671bf276db5/Model/distancia1/distancia/mesh1/mesh1-geometry/material_0/component_1#mesh1-geometry
v -0.077085 0.792703 0.083196
v -0.069216 0.798741 0.073697
v -0.077085 0.792703 0.073697
v -0.069216 0.798741 0.073697
v -0.077085 0.792703 0.083196
v -0.069216 0.798741 0.083196
v -0.077085 0.792703 0.083196
v -0.069216 0.732932 0.083196
v -0.069216 0.798741 0.083196
v -0.077085 0.792703 0.083196
v -0.077085 0.738970 0.083196
v -0.069216 0.732932 0.083196
v -0.083123 0.784834 0.083196
v -0.077085 0.738970 0.083196
v -0.077085 0.792703 0.083196
v -0.083123 0.784834 0.083196
v -0.083123 0.746839 0.083196
v -0.077085 0.738970 0.083196
v -0.086919 0.775670 0.083196
v -0.083123 0.746839 0.083196
v -0.083123 0.784834 0.083196
v -0.086919 0.775670 0.083196
v -0.086919 0.756003 0.083196
v -0.083123 0.746839 0.083196
v -0.086919 0.756003 0.083196
v -0.086919 0.775670 0.083196
v -0.088213 0.765837 0.083196
v -0.086919 0.775670 0.083196
v -0.088213 0.765837 0.073697
v -0.088213 0.765837 0.083196
v -0.088213 0.765837 0.073697
v -0.086919 0.775670 0.083196
v -0.086919 0.775670 0.073697
v -0.083123 0.784834 0.083196
v -0.086919 0.775670 0.073697
v -0.086919 0.775670 0.083196
v -0.086919 0.775670 0.073697
v -0.083123 0.784834 0.083196
v -0.083123 0.784834 0.073697
v -0.077085 0.792703 0.083196
v -0.083123 0.784834 0.073697
v -0.083123 0.784834 0.083196
v -0.083123 0.784834 0.073697
v -0.077085 0.792703 0.083196
v -0.077085 0.792703 0.073697
v -0.086919 0.756003 0.073697
v -0.088213 0.765837 0.083196
v -0.088213 0.765837 0.073697
v -0.088213 0.765837 0.083196
v -0.086919 0.756003 0.073697
v -0.086919 0.756003 0.083196
v -0.083123 0.746839 0.073697
v -0.086919 0.756003 0.083196
v -0.086919 0.756003 0.073697
v -0.086919 0.756003 0.083196
v -0.083123 0.746839 0.073697
v -0.083123 0.746839 0.083196
v -0.077085 0.738970 0.073697
v -0.083123 0.746839 0.083196
v -0.083123 0.746839 0.073697
v -0.083123 0.746839 0.083196
v -0.077085 0.738970 0.073697
v -0.077085 0.738970 0.083196
v -0.077085 0.738970 0.073697
v -0.069216 0.732932 0.083196
v -0.077085 0.738970 0.083196
v -0.069216 0.732932 0.083196
v -0.077085 0.738970 0.073697
v -0.069216 0.732932 0.073697
v -0.060053 0.729137 0.083196
v -0.069216 0.732932 0.073697
v -0.060053 0.729137 0.073697
v -0.069216 0.732932 0.073697
v -0.060053 0.729137 0.083196
v -0.069216 0.732932 0.083196
v -0.069216 0.798741 0.083196
v -0.069216 0.732932 0.083196
v -0.060053 0.729137 0.083196
v -0.069216 0.798741 0.083196
v -0.060053 0.729137 0.083196
v -0.060053 0.802536 0.083196
v -0.060053 0.802536 0.083196
v -0.060053 0.729137 0.083196
v -0.050219 0.727842 0.083196
v -0.060053 0.729137 0.073697
v -0.050219 0.727842 0.083196
v -0.060053 0.729137 0.083196
v -0.050219 0.727842 0.083196
v -0.060053 0.729137 0.073697
v -0.050219 0.727842 0.073697
v -0.050219 0.727842 0.073697
v -0.040385 0.729137 0.083196
v -0.050219 0.727842 0.083196
v -0.040385 0.729137 0.083196
v -0.050219 0.727842 0.073697
v -0.040385 0.729137 0.073697
v -0.040385 0.729137 0.073697
v -0.031222 0.732932 0.083196
v -0.040385 0.729137 0.083196
v -0.031222 0.732932 0.083196
v -0.040385 0.729137 0.073697
v -0.031222 0.732932 0.073697
v -0.031222 0.732932 0.073697
v -0.023353 0.738970 0.083196
v -0.031222 0.732932 0.083196
v -0.023353 0.738970 0.083196
v -0.031222 0.732932 0.073697
v -0.023353 0.738970 0.073697
v -0.012224 0.765837 0.073697
v -0.013519 0.756003 0.083196
v -0.013519 0.756003 0.073697
v -0.013519 0.756003 0.083196
v -0.012224 0.765837 0.073697
v -0.012224 0.765837 0.083196
v -0.013519 0.775670 0.073697
v -0.012224 0.765837 0.083196
v -0.012224 0.765837 0.073697
v -0.012224 0.765837 0.083196
v -0.013519 0.775670 0.073697
v -0.013519 0.775670 0.083196
v -0.017315 0.784834 0.073697
v -0.013519 0.775670 0.083196
v -0.013519 0.775670 0.073697
v -0.013519 0.775670 0.083196
v -0.017315 0.784834 0.073697
v -0.017315 0.784834 0.083196
v -0.023353 0.792703 0.073697
v -0.017315 0.784834 0.083196
v -0.017315 0.784834 0.073697
v -0.017315 0.784834 0.083196
v -0.023353 0.792703 0.073697
v -0.023353 0.792703 0.083196
v -0.023353 0.792703 0.073697
v -0.031222 0.798741 0.083196
v -0.023353 0.792703 0.083196
v -0.031222 0.798741 0.083196
v -0.023353 0.792703 0.073697
v -0.031222 0.798741 0.073697
v -0.031222 0.798741 0.073697
v -0.040385 0.802536 0.083196
v -0.031222 0.798741 0.083196
v -0.040385 0.802536 0.083196
v -0.031222 0.798741 0.073697
v -0.040385 0.802536 0.073697
v -0.040385 0.802536 0.073697
v -0.050219 0.803831 0.083196
v -0.040385 0.802536 0.083196
v -0.050219 0.803831 0.083196
v -0.040385 0.802536 0.073697
v -0.050219 0.803831 0.073697
v -0.050219 0.803831 0.073697
v -0.060053 0.802536 0.083196
v -0.050219 0.803831 0.083196
v -0.060053 0.802536 0.083196
v -0.050219 0.803831 0.073697
v -0.060053 0.802536 0.073697
v -0.060053 0.802536 0.073697
v -0.069216 0.798741 0.083196
v -0.060053 0.802536 0.083196
v -0.069216 0.798741 0.083196
v -0.060053 0.802536 0.073697
v -0.069216 0.798741 0.073697
v -0.060053 0.802536 0.083196
v -0.050219 0.727842 0.083196
v -0.050219 0.803831 0.083196
v -0.050219 0.803831 0.083196
v -0.050219 0.727842 0.083196
v -0.040385 0.729137 0.083196
v -0.050219 0.803831 0.083196
v -0.040385 0.729137 0.083196
v -0.040385 0.802536 0.083196
v -0.040385 0.802536 0.083196
v -0.040385 0.729137 0.083196
v -0.031222 0.732932 0.083196
v -0.040385 0.802536 0.083196
v -0.031222 0.732932 0.083196
v -0.031222 0.798741 0.083196
v -0.031222 0.798741 0.083196
v -0.031222 0.732932 0.083196
v -0.023353 0.738970 0.083196
v -0.031222 0.798741 0.083196
v -0.023353 0.738970 0.083196
v -0.023353 0.792703 0.083196
v -0.023353 0.792703 0.083196
v -0.023353 0.738970 0.083196
v -0.017315 0.746839 0.083196
v -0.023353 0.738970 0.083196
v -0.017315 0.746839 0.073697
v -0.017315 0.746839 0.083196
v -0.017315 0.746839 0.073697
v -0.023353 0.738970 0.083196
v -0.023353 0.738970 0.073697
v -0.013519 0.756003 0.073697
v -0.017315 0.746839 0.083196
v -0.017315 0.746839 0.073697
v -0.017315 0.746839 0.083196
v -0.013519 0.756003 0.073697
v -0.013519 0.756003 0.083196
v -0.017315 0.784834 0.083196
v -0.017315 0.746839 0.083196
v -0.013519 0.756003 0.083196
v -0.023353 0.792703 0.083196
v -0.017315 0.746839 0.083196
v -0.017315 0.784834 0.083196
v -0.017315 0.784834 0.083196
v -0.013519 0.756003 0.083196
v -0.013519 0.775670 0.083196
v -0.013519 0.775670 0.083196
v -0.013519 0.756003 0.083196
v -0.012224 0.765837 0.083196
vt -15.5291748046875 2.5
vt -15.659701347351074 2.375
vt -15.5291748046875 2.375
vt -15.659701347351074 2.5
vt 2.2297799587249756 22.603553771972656
vt 2.3333330154418945 21.816986083984375
vt 2.3333330154418945 22.683013916015625
vt 2.2297799587249756 21.896446228027344
vt 2.1503210067749023 22.5
vt 2.1503210067749023 22
vt 2.100369930267334 22.379409790039062
vt 2.100369930267334 22.120590209960938
vt 2.0833330154418945 22.25
vt -22.46210479736328 2.5
vt -22.33157730102539 2.375
vt -22.33157730102539 2.5
vt -22.46210479736328 2.375
vt -21.61018180847168 2.5
vt -21.47965431213379 2.375
vt -21.47965431213379 2.5
vt -21.61018180847168 2.375
vt -19.290008544921875 2.5
vt -19.159481048583984 2.375
vt -19.159481048583984 2.5
vt -19.290008544921875 2.375
vt -21.65719223022461 2.375
vt -21.7877197265625 2.5
vt -21.7877197265625 2.375
vt -21.65719223022461 2.5
vt -19.502458572387695 2.375
vt -19.632984161376953 2.5
vt -19.632984161376953 2.375
vt -19.502458572387695 2.5
vt -16.01421546936035 2.375
vt -16.14474105834961 2.5
vt -16.14474105834961 2.375
vt -16.01421546936035 2.5
vt -11.560708999633789 2.375
vt -11.430183410644531 2.5
vt -11.560708999633789 2.5
vt -11.430183410644531 2.375
vt -6.062754154205322 2.5
vt -6.193281173706055 2.375
vt -6.062754154205322 2.375
vt -6.193281173706055 2.5
vt 2.4539239406585693 21.76703643798828
vt 2.4539239406585693 22.73296356201172
vt 2.5833330154418945 21.75
vt -0.4082379937171936 2.375
vt -0.27771198749542236 2.5
vt -0.4082379937171936 2.5
vt -0.27771198749542236 2.375
vt 5.400177001953125 2.375
vt 5.530703067779541 2.5
vt 5.400177001953125 2.5
vt 5.530703067779541 2.375
vt 10.836132049560547 2.375
vt 10.966657638549805 2.5
vt 10.836132049560547 2.5
vt 10.966657638549805 2.375
vt 15.5291748046875 2.375
vt 15.659701347351074 2.5
vt 15.5291748046875 2.5
vt 15.659701347351074 2.375
vt 22.46210479736328 2.375
vt 22.33157730102539 2.5
vt 22.33157730102539 2.375
vt 22.46210479736328 2.5
vt 21.7877197265625 2.375
vt 21.65719223022461 2.5
vt 21.65719223022461 2.375
vt 21.7877197265625 2.5
vt 19.632984161376953 2.375
vt 19.502458572387695 2.5
vt 19.502458572387695 2.375
vt 19.632984161376953 2.5
vt 16.14474105834961 2.375
vt 16.01421546936035 2.5
vt 16.01421546936035 2.375
vt 16.14474105834961 2.5
vt 11.430183410644531 2.375
vt 11.560708999633789 2.5
vt 11.430183410644531 2.5
vt 11.560708999633789 2.375
vt 6.062754154205322 2.375
vt 6.193281173706055 2.5
vt 6.062754154205322 2.5
vt 6.193281173706055 2.375
vt 0.27771198749542236 2.375
vt 0.4082379937171936 2.5
vt 0.27771198749542236 2.5
vt 0.4082379937171936 2.375
vt -5.530703067779541 2.375
vt -5.400177001953125 2.5
vt -5.530703067779541 2.5
vt -5.400177001953125 2.375
vt -10.966657638549805 2.375
vt -10.836132049560547 2.5
vt -10.966657638549805 2.5
vt -10.836132049560547 2.375
vt 2.5833330154418945 22.75
vt 2.712743043899536 21.76703643798828
vt 2.712743043899536 22.73296356201172
vt 2.8333330154418945 21.816986083984375
vt 2.8333330154418945 22.683013916015625
vt 2.93688702583313 21.896446228027344
vt 2.93688702583313 22.603553771972656
vt 3.016345977783203 22
vt 19.159481048583984 2.5
vt 19.290008544921875 2.375
vt 19.290008544921875 2.5
vt 19.159481048583984 2.375
vt 21.61018180847168 2.375
vt 21.47965431213379 2.5
vt 21.47965431213379 2.375
vt 21.61018180847168 2.5
vt 3.016345977783203 22.5
vt 3.066296100616455 22.120590209960938
vt 3.066296100616455 22.379409790039062
vt 3.0833330154418945 22.25
vn -0.7071067811865476 0.7071067811865476 0
vn -0.5000001873976233 0.8660252955903434 0
vn 0.7071067811865476 -0.7071067811865476 0
vn 0.5000001873976233 -0.8660252955903434 0
vn 0 0 1
vn 0 0 -1
vn -0.9659258451755842 0.25881897461707376 0
vn -1 0 0
vn 0.9659258451755842 -0.25881897461707376 0
vn 1 0 0
vn -0.8660252955903434 0.5000001873976233 0
vn 0.8660252955903434 -0.5000001873976233 0
vn -0.9659258451755842 -0.25881897461707376 0
vn 0.9659258451755842 0.25881897461707376 0
vn -0.8660252955903434 -0.5000001873976233 0
vn 0.8660252955903434 0.5000001873976233 0
vn -0.7071067811865476 -0.7071067811865476 0
vn 0.7071067811865476 0.7071067811865476 0
vn -0.5000001873976233 -0.8660252955903434 0
vn 0.5000001873976233 0.8660252955903434 0
vn -0.25881897461707376 -0.9659258451755842 0
vn 0.25881897461707376 0.9659258451755842 0
vn 0 -1 0
vn 0 1 0
vn 0.25881897461707376 -0.9659258451755842 0
vn -0.25881897461707376 0.9659258451755842 0
usemtl material_0_2
f 1/1/1 2/2/2 3/3/1
f 3/3/3 2/2/4 1/1/3
f 4/2/2 5/1/1 6/4/2
f 6/4/4 5/1/3 4/2/4
f 7/5/5 8/6/5 9/7/5
f 9/7/6 8/6/6 7/5/6
f 10/5/5 11/8/5 12/6/5
f 12/6/6 11/8/6 10/5/6
f 13/9/5 14/8/5 15/5/5
f 15/5/6 14/8/6 13/9/6
f 16/9/5 17/10/5 18/8/5
f 18/8/6 17/10/6 16/9/6
f 19/11/5 20/10/5 21/9/5
f 21/9/6 20/10/6 19/11/6
f 22/11/5 23/12/5 24/10/5
f 24/10/6 23/12/6 22/11/6
f 25/12/5 26/11/5 27/13/5
f 27/13/6 26/11/6 25/12/6
f 28/14/7 29/15/8 30/16/8
f 30/16/10 29/15/10 28/14/9
f 31/15/8 32/14/7 33/17/7
f 33/17/9 32/14/9 31/15/10
f 34/18/11 35/19/7 36/20/7
f 36/20/9 35/19/9 34/18/12
f 37/19/7 38/18/11 39/21/11
f 39/21/12 38/18/12 37/19/9
f 40/22/1 41/23/11 42/24/11
f 42/24/12 41/23/12 40/22/3
f 43/23/11 44/22/1 45/25/1
f 45/25/3 44/22/3 43/23/12
f 46/26/13 47/27/8 48/28/8
f 48/28/10 47/27/10 46/26/14
f 49/27/8 50/26/13 51/29/13
f 51/29/14 50/26/14 49/27/10
f 52/30/15 53/31/13 54/32/13
f 54/32/14 53/31/14 52/30/16
f 55/31/13 56/30/15 57/33/15
f 57/33/16 56/30/16 55/31/14
f 58/34/17 59/35/15 60/36/15
f 60/36/16 59/35/16 58/34/18
f 61/35/15 62/34/17 63/37/17
f 63/37/18 62/34/18 61/35/16
f 64/38/17 65/39/19 66/40/17
f 66/40/18 65/39/20 64/38/18
f 67/39/19 68/38/17 69/41/19
f 69/41/20 68/38/18 67/39/20
f 70/42/21 71/43/19 72/44/21
f 72/44/22 71/43/20 70/42/22
f 73/43/19 74/42/21 75/45/19
f 75/45/20 74/42/22 73/43/20
f 76/7/5 77/6/5 78/46/5
f 78/46/6 77/6/6 76/7/6
f 79/7/5 80/46/5 81/47/5
f 81/47/6 80/46/6 79/7/6
f 82/47/5 83/46/5 84/48/5
f 84/48/6 83/46/6 82/47/6
f 85/49/21 86/50/23 87/51/21
f 87/51/22 86/50/24 85/49/22
f 88/50/23 89/49/21 90/52/23
f 90/52/24 89/49/22 88/50/24
f 91/53/23 92/54/25 93/55/23
f 93/55/24 92/54/26 91/53/24
f 94/54/25 95/53/23 96/56/25
f 96/56/26 95/53/24 94/54/26
f 97/57/25 98/58/4 99/59/25
f 99/59/26 98/58/2 97/57/26
f 100/58/4 101/57/25 102/60/4
f 102/60/2 101/57/26 100/58/2
f 103/61/4 104/62/3 105/63/4
f 105/63/2 104/62/1 103/61/2
f 106/62/3 107/61/4 108/64/3
f 108/64/1 107/61/2 106/62/1
f 109/65/10 110/66/9 111/67/9
f 111/67/7 110/66/7 109/65/8
f 112/66/9 113/65/10 114/68/10
f 114/68/8 113/65/8 112/66/7
f 115/69/14 116/70/10 117/71/10
f 117/71/8 116/70/8 115/69/13
f 118/70/10 119/69/14 120/72/14
f 120/72/13 119/69/13 118/70/8
f 121/73/16 122/74/14 123/75/14
f 123/75/13 122/74/13 121/73/15
f 124/74/14 125/73/16 126/76/16
f 126/76/15 125/73/15 124/74/13
f 127/77/18 128/78/16 129/79/16
f 129/79/15 128/78/15 127/77/17
f 130/78/16 131/77/18 132/80/18
f 132/80/17 131/77/17 130/78/15
f 133/81/18 134/82/20 135/83/18
f 135/83/17 134/82/19 133/81/17
f 136/82/20 137/81/18 138/84/20
f 138/84/19 137/81/17 136/82/19
f 139/85/20 140/86/22 141/87/20
f 141/87/19 140/86/21 139/85/19
f 142/86/22 143/85/20 144/88/22
f 144/88/21 143/85/19 142/86/21
f 145/89/22 146/90/24 147/91/22
f 147/91/21 146/90/23 145/89/21
f 148/90/24 149/89/22 150/92/24
f 150/92/23 149/89/21 148/90/23
f 151/93/24 152/94/26 153/95/24
f 153/95/23 152/94/25 151/93/23
f 154/94/26 155/93/24 156/96/26
f 156/96/25 155/93/23 154/94/25
f 157/97/26 158/98/2 159/99/26
f 159/99/25 158/98/4 157/97/25
f 160/98/2 161/97/26 162/100/2
f 162/100/4 161/97/25 160/98/4
f 163/47/5 164/48/5 165/101/5
f 165/101/6 164/48/6 163/47/6
f 166/101/5 167/48/5 168/102/5
f 168/102/6 167/48/6 166/101/6
f 169/101/5 170/102/5 171/103/5
f 171/103/6 170/102/6 169/101/6
f 172/103/5 173/102/5 174/104/5
f 174/104/6 173/102/6 172/103/6
f 175/103/5 176/104/5 177/105/5
f 177/105/6 176/104/6 175/103/6
f 178/105/5 179/104/5 180/106/5
f 180/106/6 179/104/6 178/105/6
f 181/105/5 182/106/5 183/107/5
f 183/107/6 182/106/6 181/105/6
f 184/107/5 185/106/5 186/108/5
f 186/108/6 185/106/6 184/107/6
f 187/109/3 188/110/12 189/111/12
f 189/111/11 188/110/11 187/109/1
f 190/110/12 191/109/3 192/112/3
f 192/112/1 191/109/1 190/110/11
f 193/113/9 194/114/12 195/115/12
f 195/115/11 194/114/11 193/113/7
f 196/114/12 197/113/9 198/116/9
f 198/116/7 197/113/7 196/114/11
f 199/117/5 200/108/5 201/118/5
f 201/118/6 200/108/6 199/117/6
f 202/107/5 203/108/5 204/117/5
f 204/117/6 203/108/6 202/107/6
f 205/117/5 206/118/5 207/119/5
f 207/119/6 206/118/6 205/117/6
f 208/119/5 209/118/5 210/120/5
f 210/120/6 209/118/6 208/119/6
