# SSTK version 0.8.0
# 51
mtllib original-51.mtl
o 3dw.61c6c6a47e5b9d34496c7671bf276db5/Model/distancia1/distancia/mesh1/mesh1-geometry/material_2/component_24#mesh1-geometry
v 0.190384 -0.354955 0.083196
v 0.114395 -0.354955 0.073697
v 0.190384 -0.354955 0.073697
v 0.114395 -0.354955 0.073697
v 0.190384 -0.354955 0.083196
v 0.114395 -0.354955 0.083196
v 0.190384 -0.354955 0.083196
v 0.114395 -0.278966 0.083196
v 0.114395 -0.354955 0.083196
v 0.114395 -0.278966 0.083196
v 0.190384 -0.354955 0.083196
v 0.190384 -0.278966 0.083196
v 0.190384 -0.354955 0.083196
v 0.190384 -0.278966 0.073697
v 0.190384 -0.278966 0.083196
v 0.190384 -0.278966 0.073697
v 0.190384 -0.354955 0.083196
v 0.190384 -0.354955 0.073697
v 0.190384 -0.278966 0.083196
v 0.190384 -0.278966 0.073697
v 0.190384 -0.278966 0.076072
v 0.114395 -0.354955 0.073697
v 0.114395 -0.278966 0.083196
v 0.114395 -0.278966 0.073697
v 0.114395 -0.278966 0.083196
v 0.114395 -0.354955 0.073697
v 0.114395 -0.354955 0.083196
v 0.114395 -0.278966 0.073697
v 0.114395 -0.278966 0.083196
v 0.114395 -0.278966 0.076072
v 0.114395 -0.278966 0.083196
v 0.190384 -0.278966 0.076072
v 0.114395 -0.278966 0.076072
v 0.190384 -0.278966 0.076072
v 0.114395 -0.278966 0.083196
v 0.190384 -0.278966 0.083196
vt 5.749618053436279 2.5
vt 4.749618053436279 2.375
vt 5.749618053436279 2.375
vt 4.749618053436279 2.5
vt 5.749618053436279 7.500585079193115
vt 4.749618053436279 8.500584602355957
vt 4.749618053436279 7.500585079193115
vt 5.749618053436279 8.500584602355957
vt 7.500585079193115 2.5
vt 8.500584602355957 2.375
vt 8.500584602355957 2.5
vt 7.500585079193115 2.375
vt 8.500584602355957 2.40625
vt -7.500585079193115 2.375
vt -8.500584602355957 2.5
vt -8.500584602355957 2.375
vt -7.500585079193115 2.5
vt -8.500584602355957 2.40625
vt -4.749618053436279 2.5
vt -5.749618053436279 2.40625
vt -4.749618053436279 2.40625
vt -5.749618053436279 2.5
vn 0 -1 0
vn 0 1 0
vn 0 0 1
vn 0 0 -1
vn 1 0 0
vn -1 0 0
usemtl material_0_2
f 1/1/1 2/2/1 3/3/1
f 3/3/2 2/2/2 1/1/2
f 4/2/1 5/1/1 6/4/1
f 6/4/2 5/1/2 4/2/2
f 7/5/3 8/6/3 9/7/3
f 9/7/4 8/6/4 7/5/4
f 10/6/3 11/5/3 12/8/3
f 12/8/4 11/5/4 10/6/4
f 13/9/5 14/10/5 15/11/5
f 15/11/6 14/10/6 13/9/6
f 16/10/5 17/9/5 18/12/5
f 18/12/6 17/9/6 16/10/6
f 19/11/5 20/10/5 21/13/5
f 21/13/6 20/10/6 19/11/6
f 22/14/6 23/15/6 24/16/6
f 24/16/5 23/15/5 22/14/5
f 25/15/6 26/14/6 27/17/6
f 27/17/5 26/14/5 25/15/5
f 28/16/6 29/15/6 30/18/6
f 30/18/5 29/15/5 28/16/5
f 31/19/2 32/20/2 33/21/2
f 33/21/1 32/20/1 31/19/1
f 34/20/2 35/19/2 36/22/2
f 36/22/1 35/19/1 34/20/1
