# SSTK version 0.8.0
# 64
mtllib original-64.mtl
o 3dw.61c6c6a47e5b9d34496c7671bf276db5/Model/distancia1/distancia/mesh1/mesh1-geometry/material_4/component_0#mesh1-geometry
v -0.094546 0.917814 0.073697
v -0.094546 0.860823 0.083196
v -0.094546 0.860823 0.073697
v -0.094546 0.860823 0.083196
v -0.094546 0.917814 0.073697
v -0.094546 0.917814 0.083196
v -0.094546 0.917814 0.073697
v -0.208529 0.917814 0.083196
v -0.094546 0.917814 0.083196
v -0.208529 0.917814 0.083196
v -0.094546 0.917814 0.073697
v -0.208529 0.917814 0.073697
v -0.208529 0.860823 0.073697
v -0.208529 0.917814 0.083196
v -0.208529 0.917814 0.073697
v -0.208529 0.917814 0.083196
v -0.208529 0.860823 0.073697
v -0.208529 0.860823 0.083196
v -0.208529 0.860823 0.073697
v -0.094546 0.860823 0.083196
v -0.208529 0.860823 0.083196
v -0.094546 0.860823 0.083196
v -0.208529 0.860823 0.073697
v -0.094546 0.860823 0.073697
v -0.094546 0.860823 0.083196
v -0.208529 0.917814 0.083196
v -0.208529 0.860823 0.083196
v -0.208529 0.917814 0.083196
v -0.094546 0.860823 0.083196
v -0.094546 0.917814 0.083196
vt 24.25 2.375
vt 23.5 2.5
vt 23.5 2.375
vt 24.25 2.5
vt -2 2.375
vt -0.5 2.5
vt -2 2.5
vt -0.5 2.375
vt -23.5 2.375
vt -24.25 2.5
vt -24.25 2.375
vt -23.5 2.5
vt 0.5 2.375
vt 2 2.5
vt 0.5 2.5
vt 2 2.375
vt 2 23.5
vt 0.5 24.25
vt 0.5 23.5
vt 2 24.25
vn 1 0 0
vn -1 0 0
vn 0 1 0
vn 0 -1 0
vn 0 0 1
vn 0 0 -1
usemtl material_0_2
f 1/1/1 2/2/1 3/3/1
f 3/3/2 2/2/2 1/1/2
f 4/2/1 5/1/1 6/4/1
f 6/4/2 5/1/2 4/2/2
f 7/5/3 8/6/3 9/7/3
f 9/7/4 8/6/4 7/5/4
f 10/6/3 11/5/3 12/8/3
f 12/8/4 11/5/4 10/6/4
f 13/9/2 14/10/2 15/11/2
f 15/11/1 14/10/1 13/9/1
f 16/10/2 17/9/2 18/12/2
f 18/12/1 17/9/1 16/10/1
f 19/13/4 20/14/4 21/15/4
f 21/15/3 20/14/3 19/13/3
f 22/14/4 23/13/4 24/16/4
f 24/16/3 23/13/3 22/14/3
f 25/17/5 26/18/5 27/19/5
f 27/19/6 26/18/6 25/17/6
f 28/18/5 29/17/5 30/20/5
f 30/20/6 29/17/6 28/18/6
