# SSTK version 0.8.0
# 24
mtllib original-24.mtl
o 3dw.61c6c6a47e5b9d34496c7671bf276db5/Model/distancia1/distancia/mesh1/mesh1-geometry/material_0/component_23#mesh1-geometry
v -0.178404 0.792703 0.083196
v -0.170535 0.798741 0.073697
v -0.178404 0.792703 0.073697
v -0.170535 0.798741 0.073697
v -0.178404 0.792703 0.083196
v -0.170535 0.798741 0.083196
v -0.178404 0.792703 0.083196
v -0.170535 0.732932 0.083196
v -0.170535 0.798741 0.083196
v -0.178404 0.792703 0.083196
v -0.178404 0.738970 0.083196
v -0.170535 0.732932 0.083196
v -0.184442 0.784834 0.083196
v -0.178404 0.738970 0.083196
v -0.178404 0.792703 0.083196
v -0.184442 0.784834 0.083196
v -0.184442 0.746839 0.083196
v -0.178404 0.738970 0.083196
v -0.188237 0.775670 0.083196
v -0.184442 0.746839 0.083196
v -0.184442 0.784834 0.083196
v -0.188237 0.775670 0.083196
v -0.188237 0.756003 0.083196
v -0.184442 0.746839 0.083196
v -0.188237 0.756003 0.083196
v -0.188237 0.775670 0.083196
v -0.189532 0.765837 0.083196
v -0.188237 0.775670 0.083196
v -0.189532 0.765837 0.073697
v -0.189532 0.765837 0.083196
v -0.189532 0.765837 0.073697
v -0.188237 0.775670 0.083196
v -0.188237 0.775670 0.073697
v -0.184442 0.784834 0.083196
v -0.188237 0.775670 0.073697
v -0.188237 0.775670 0.083196
v -0.188237 0.775670 0.073697
v -0.184442 0.784834 0.083196
v -0.184442 0.784834 0.073697
v -0.178404 0.792703 0.083196
v -0.184442 0.784834 0.073697
v -0.184442 0.784834 0.083196
v -0.184442 0.784834 0.073697
v -0.178404 0.792703 0.083196
v -0.178404 0.792703 0.073697
v -0.188237 0.756003 0.073697
v -0.189532 0.765837 0.083196
v -0.189532 0.765837 0.073697
v -0.189532 0.765837 0.083196
v -0.188237 0.756003 0.073697
v -0.188237 0.756003 0.083196
v -0.184442 0.746839 0.073697
v -0.188237 0.756003 0.083196
v -0.188237 0.756003 0.073697
v -0.188237 0.756003 0.083196
v -0.184442 0.746839 0.073697
v -0.184442 0.746839 0.083196
v -0.178404 0.738970 0.073697
v -0.184442 0.746839 0.083196
v -0.184442 0.746839 0.073697
v -0.184442 0.746839 0.083196
v -0.178404 0.738970 0.073697
v -0.178404 0.738970 0.083196
v -0.178404 0.738970 0.073697
v -0.170535 0.732932 0.083196
v -0.178404 0.738970 0.083196
v -0.170535 0.732932 0.083196
v -0.178404 0.738970 0.073697
v -0.170535 0.732932 0.073697
v -0.170535 0.798741 0.083196
v -0.161371 0.802536 0.073697
v -0.170535 0.798741 0.073697
v -0.161371 0.802536 0.073697
v -0.170535 0.798741 0.083196
v -0.161371 0.802536 0.083196
v -0.170535 0.798741 0.083196
v -0.161371 0.729137 0.083196
v -0.161371 0.802536 0.083196
v -0.170535 0.798741 0.083196
v -0.170535 0.732932 0.083196
v -0.161371 0.729137 0.083196
v -0.170535 0.732932 0.073697
v -0.161371 0.729137 0.083196
v -0.170535 0.732932 0.083196
v -0.161371 0.729137 0.083196
v -0.170535 0.732932 0.073697
v -0.161371 0.729137 0.073697
v -0.151537 0.727842 0.083196
v -0.161371 0.729137 0.073697
v -0.151537 0.727842 0.073697
v -0.161371 0.729137 0.073697
v -0.151537 0.727842 0.083196
v -0.161371 0.729137 0.083196
v -0.161371 0.802536 0.083196
v -0.161371 0.729137 0.083196
v -0.151537 0.727842 0.083196
v -0.161371 0.802536 0.083196
v -0.151537 0.727842 0.083196
v -0.151537 0.803831 0.083196
v -0.151537 0.803831 0.083196
v -0.151537 0.727842 0.083196
v -0.141704 0.729137 0.083196
v -0.151537 0.727842 0.073697
v -0.141704 0.729137 0.083196
v -0.151537 0.727842 0.083196
v -0.141704 0.729137 0.083196
v -0.151537 0.727842 0.073697
v -0.141704 0.729137 0.073697
v -0.141704 0.729137 0.073697
v -0.132540 0.732932 0.083196
v -0.141704 0.729137 0.083196
v -0.132540 0.732932 0.083196
v -0.141704 0.729137 0.073697
v -0.132540 0.732932 0.073697
v -0.132540 0.732932 0.073697
v -0.124671 0.738970 0.083196
v -0.132540 0.732932 0.083196
v -0.124671 0.738970 0.083196
v -0.132540 0.732932 0.073697
v -0.124671 0.738970 0.073697
v -0.118633 0.746839 0.073697
v -0.124671 0.738970 0.083196
v -0.124671 0.738970 0.073697
v -0.124671 0.738970 0.083196
v -0.118633 0.746839 0.073697
v -0.118633 0.746839 0.083196
v -0.114838 0.756003 0.073697
v -0.118633 0.746839 0.083196
v -0.118633 0.746839 0.073697
v -0.118633 0.746839 0.083196
v -0.114838 0.756003 0.073697
v -0.114838 0.756003 0.083196
v -0.113543 0.765837 0.073697
v -0.114838 0.756003 0.083196
v -0.114838 0.756003 0.073697
v -0.114838 0.756003 0.083196
v -0.113543 0.765837 0.073697
v -0.113543 0.765837 0.083196
v -0.114838 0.775670 0.073697
v -0.113543 0.765837 0.083196
v -0.113543 0.765837 0.073697
v -0.113543 0.765837 0.083196
v -0.114838 0.775670 0.073697
v -0.114838 0.775670 0.083196
v -0.118633 0.784834 0.073697
v -0.114838 0.775670 0.083196
v -0.114838 0.775670 0.073697
v -0.114838 0.775670 0.083196
v -0.118633 0.784834 0.073697
v -0.118633 0.784834 0.083196
v -0.124671 0.792703 0.073697
v -0.118633 0.784834 0.083196
v -0.118633 0.784834 0.073697
v -0.118633 0.784834 0.083196
v -0.124671 0.792703 0.073697
v -0.124671 0.792703 0.083196
v -0.124671 0.792703 0.073697
v -0.132540 0.798741 0.083196
v -0.124671 0.792703 0.083196
v -0.132540 0.798741 0.083196
v -0.124671 0.792703 0.073697
v -0.132540 0.798741 0.073697
v -0.132540 0.798741 0.073697
v -0.141704 0.802536 0.083196
v -0.132540 0.798741 0.083196
v -0.141704 0.802536 0.083196
v -0.132540 0.798741 0.073697
v -0.141704 0.802536 0.073697
v -0.141704 0.802536 0.073697
v -0.151537 0.803831 0.083196
v -0.141704 0.802536 0.083196
v -0.151537 0.803831 0.083196
v -0.141704 0.802536 0.073697
v -0.151537 0.803831 0.073697
v -0.151537 0.803831 0.073697
v -0.161371 0.802536 0.083196
v -0.151537 0.803831 0.083196
v -0.161371 0.802536 0.083196
v -0.151537 0.803831 0.073697
v -0.161371 0.802536 0.073697
v -0.151537 0.803831 0.083196
v -0.141704 0.729137 0.083196
v -0.141704 0.802536 0.083196
v -0.141704 0.802536 0.083196
v -0.141704 0.729137 0.083196
v -0.132540 0.732932 0.083196
v -0.141704 0.802536 0.083196
v -0.132540 0.732932 0.083196
v -0.132540 0.798741 0.083196
v -0.132540 0.798741 0.083196
v -0.132540 0.732932 0.083196
v -0.124671 0.738970 0.083196
v -0.132540 0.798741 0.083196
v -0.124671 0.738970 0.083196
v -0.124671 0.792703 0.083196
v -0.124671 0.792703 0.083196
v -0.124671 0.738970 0.083196
v -0.118633 0.746839 0.083196
v -0.124671 0.792703 0.083196
v -0.118633 0.746839 0.083196
v -0.118633 0.784834 0.083196
v -0.118633 0.784834 0.083196
v -0.118633 0.746839 0.083196
v -0.114838 0.756003 0.083196
v -0.118633 0.784834 0.083196
v -0.114838 0.756003 0.083196
v -0.114838 0.775670 0.083196
v -0.114838 0.775670 0.083196
v -0.114838 0.756003 0.083196
v -0.113543 0.765837 0.083196
vt -14.471369743347168 2.5
vt -14.601897239685059 2.375
vt -14.471369743347168 2.375
vt -14.601897239685059 2.5
vt 0.8964470028877258 22.603553771972656
vt 1 21.816986083984375
vt 1 22.683013916015625
vt 0.8964470028877258 21.896446228027344
vt 0.8169869780540466 22.5
vt 0.8169869780540466 22
vt 0.7670369744300842 22.379409790039062
vt 0.7670369744300842 22.120590209960938
vt 0.75 22.25
vt -22.288068771362305 2.5
vt -22.157543182373047 2.375
vt -22.157543182373047 2.5
vt -22.288068771362305 2.375
vt -21.099937438964844 2.5
vt -20.969411849975586 2.375
vt -20.969411849975586 2.5
vt -21.099937438964844 2.375
vt -18.47832679748535 2.5
vt -18.347801208496094 2.375
vt -18.347801208496094 2.5
vt -18.47832679748535 2.375
vt -21.831226348876953 2.375
vt -21.961753845214844 2.5
vt -21.961753845214844 2.375
vt -21.831226348876953 2.5
vt -20.01270294189453 2.375
vt -20.14322853088379 2.5
vt -20.14322853088379 2.375
vt -20.01270294189453 2.5
vt -16.825897216796875 2.375
vt -16.956422805786133 2.5
vt -16.956422805786133 2.375
vt -16.825897216796875 2.5
vt -12.618513107299805 2.375
vt -12.48798656463623 2.5
vt -12.618513107299805 2.5
vt -12.48798656463623 2.375
vt -9.604292869567871 2.5
vt -9.734819412231445 2.375
vt -9.604292869567871 2.375
vt -9.734819412231445 2.5
vt 1.1205899715423584 21.76703643798828
vt 1.1205899715423584 22.73296356201172
vt -7.425119876861572 2.375
vt -7.294593811035156 2.5
vt -7.425119876861572 2.5
vt -7.294593811035156 2.375
vt -1.5996390581130981 2.5
vt -1.7301650047302246 2.375
vt -1.5996390581130981 2.375
vt -1.7301650047302246 2.5
vt 1.25 21.75
vt 1.25 22.75
vt 1.3794100284576416 21.76703643798828
vt 4.078250885009766 2.375
vt 4.208776950836182 2.5
vt 4.078250885009766 2.5
vt 4.208776950836182 2.375
vt 9.604292869567871 2.375
vt 9.734819412231445 2.5
vt 9.604292869567871 2.5
vt 9.734819412231445 2.375
vt 14.471369743347168 2.375
vt 14.601897239685059 2.5
vt 14.471369743347168 2.5
vt 14.601897239685059 2.375
vt 18.47832679748535 2.375
vt 18.347801208496094 2.5
vt 18.347801208496094 2.375
vt 18.47832679748535 2.5
vt 21.099937438964844 2.375
vt 20.969411849975586 2.5
vt 20.969411849975586 2.375
vt 21.099937438964844 2.5
vt 22.288068771362305 2.375
vt 22.157543182373047 2.5
vt 22.157543182373047 2.375
vt 22.288068771362305 2.5
vt 21.961753845214844 2.375
vt 21.831226348876953 2.5
vt 21.831226348876953 2.375
vt 21.961753845214844 2.5
vt 20.14322853088379 2.375
vt 20.01270294189453 2.5
vt 20.01270294189453 2.375
vt 20.14322853088379 2.5
vt 16.956422805786133 2.375
vt 16.825897216796875 2.5
vt 16.825897216796875 2.375
vt 16.956422805786133 2.5
vt 12.48798656463623 2.375
vt 12.618513107299805 2.5
vt 12.48798656463623 2.5
vt 12.618513107299805 2.375
vt 7.294593811035156 2.375
vt 7.425119876861572 2.5
vt 7.294593811035156 2.5
vt 7.425119876861572 2.375
vt 1.5996390581130981 2.375
vt 1.7301650047302246 2.5
vt 1.5996390581130981 2.5
vt 1.7301650047302246 2.375
vt -4.208776950836182 2.375
vt -4.078250885009766 2.5
vt -4.208776950836182 2.5
vt -4.078250885009766 2.375
vt 1.3794100284576416 22.73296356201172
vt 1.5 21.816986083984375
vt 1.5 22.683013916015625
vt 1.603553056716919 21.896446228027344
vt 1.603553056716919 22.603553771972656
vt 1.6830129623413086 22
vt 1.6830129623413086 22.5
vt 1.732962965965271 22.120590209960938
vt 1.732962965965271 22.379409790039062
vt 1.75 22.25
vn -0.7071067811865476 0.7071067811865476 0
vn -0.5000001873976233 0.8660252955903434 0
vn 0.7071067811865476 -0.7071067811865476 0
vn 0.5000001873976233 -0.8660252955903434 0
vn 0 0 1
vn 0 0 -1
vn -0.9659258451755842 0.25881897461707376 0
vn -1 0 0
vn 0.9659258451755842 -0.25881897461707376 0
vn 1 0 0
vn -0.8660252955903434 0.5000001873976233 0
vn 0.8660252955903434 -0.5000001873976233 0
vn -0.9659258451755842 -0.25881897461707376 0
vn 0.9659258451755842 0.25881897461707376 0
vn -0.8660252955903434 -0.5000001873976233 0
vn 0.8660252955903434 0.5000001873976233 0
vn -0.7071067811865476 -0.7071067811865476 0
vn 0.7071067811865476 0.7071067811865476 0
vn -0.5000001873976233 -0.8660252955903434 0
vn 0.5000001873976233 0.8660252955903434 0
vn -0.25881897461707376 0.9659258451755842 0
vn 0.25881897461707376 -0.9659258451755842 0
vn -0.25881897461707376 -0.9659258451755842 0
vn 0.25881897461707376 0.9659258451755842 0
vn 0 -1 0
vn 0 1 0
usemtl material_0_2
f 1/1/1 2/2/2 3/3/1
f 3/3/3 2/2/4 1/1/3
f 4/2/2 5/1/1 6/4/2
f 6/4/4 5/1/3 4/2/4
f 7/5/5 8/6/5 9/7/5
f 9/7/6 8/6/6 7/5/6
f 10/5/5 11/8/5 12/6/5
f 12/6/6 11/8/6 10/5/6
f 13/9/5 14/8/5 15/5/5
f 15/5/6 14/8/6 13/9/6
f 16/9/5 17/10/5 18/8/5
f 18/8/6 17/10/6 16/9/6
f 19/11/5 20/10/5 21/9/5
f 21/9/6 20/10/6 19/11/6
f 22/11/5 23/12/5 24/10/5
f 24/10/6 23/12/6 22/11/6
f 25/12/5 26/11/5 27/13/5
f 27/13/6 26/11/6 25/12/6
f 28/14/7 29/15/8 30/16/8
f 30/16/10 29/15/10 28/14/9
f 31/15/8 32/14/7 33/17/7
f 33/17/9 32/14/9 31/15/10
f 34/18/11 35/19/7 36/20/7
f 36/20/9 35/19/9 34/18/12
f 37/19/7 38/18/11 39/21/11
f 39/21/12 38/18/12 37/19/9
f 40/22/1 41/23/11 42/24/11
f 42/24/12 41/23/12 40/22/3
f 43/23/11 44/22/1 45/25/1
f 45/25/3 44/22/3 43/23/12
f 46/26/13 47/27/8 48/28/8
f 48/28/10 47/27/10 46/26/14
f 49/27/8 50/26/13 51/29/13
f 51/29/14 50/26/14 49/27/10
f 52/30/15 53/31/13 54/32/13
f 54/32/14 53/31/14 52/30/16
f 55/31/13 56/30/15 57/33/15
f 57/33/16 56/30/16 55/31/14
f 58/34/17 59/35/15 60/36/15
f 60/36/16 59/35/16 58/34/18
f 61/35/15 62/34/17 63/37/17
f 63/37/18 62/34/18 61/35/16
f 64/38/17 65/39/19 66/40/17
f 66/40/18 65/39/20 64/38/18
f 67/39/19 68/38/17 69/41/19
f 69/41/20 68/38/18 67/39/20
f 70/42/2 71/43/21 72/44/2
f 72/44/4 71/43/22 70/42/4
f 73/43/21 74/42/2 75/45/21
f 75/45/22 74/42/4 73/43/22
f 76/7/5 77/46/5 78/47/5
f 78/47/6 77/46/6 76/7/6
f 79/7/5 80/6/5 81/46/5
f 81/46/6 80/6/6 79/7/6
f 82/48/19 83/49/23 84/50/19
f 84/50/20 83/49/24 82/48/20
f 85/49/23 86/48/19 87/51/23
f 87/51/24 86/48/20 85/49/24
f 88/52/25 89/53/23 90/54/25
f 90/54/26 89/53/24 88/52/26
f 91/53/23 92/52/25 93/55/23
f 93/55/24 92/52/26 91/53/24
f 94/47/5 95/46/5 96/56/5
f 96/56/6 95/46/6 94/47/6
f 97/47/5 98/56/5 99/57/5
f 99/57/6 98/56/6 97/47/6
f 100/57/5 101/56/5 102/58/5
f 102/58/6 101/56/6 100/57/6
f 103/59/25 104/60/22 105/61/25
f 105/61/26 104/60/21 103/59/26
f 106/60/22 107/59/25 108/62/22
f 108/62/21 107/59/26 106/60/21
f 109/63/22 110/64/4 111/65/22
f 111/65/21 110/64/2 109/63/21
f 112/64/4 113/63/22 114/66/4
f 114/66/2 113/63/21 112/64/2
f 115/67/4 116/68/3 117/69/4
f 117/69/2 116/68/1 115/67/2
f 118/68/3 119/67/4 120/70/3
f 120/70/1 119/67/2 118/68/1
f 121/71/12 122/72/3 123/73/3
f 123/73/1 122/72/1 121/71/11
f 124/72/3 125/71/12 126/74/12
f 126/74/11 125/71/11 124/72/1
f 127/75/9 128/76/12 129/77/12
f 129/77/11 128/76/11 127/75/7
f 130/76/12 131/75/9 132/78/9
f 132/78/7 131/75/7 130/76/11
f 133/79/10 134/80/9 135/81/9
f 135/81/7 134/80/7 133/79/8
f 136/80/9 137/79/10 138/82/10
f 138/82/8 137/79/8 136/80/7
f 139/83/14 140/84/10 141/85/10
f 141/85/8 140/84/8 139/83/13
f 142/84/10 143/83/14 144/86/14
f 144/86/13 143/83/13 142/84/8
f 145/87/16 146/88/14 147/89/14
f 147/89/13 146/88/13 145/87/15
f 148/88/14 149/87/16 150/90/16
f 150/90/15 149/87/15 148/88/13
f 151/91/18 152/92/16 153/93/16
f 153/93/15 152/92/15 151/91/17
f 154/92/16 155/91/18 156/94/18
f 156/94/17 155/91/17 154/92/15
f 157/95/18 158/96/20 159/97/18
f 159/97/17 158/96/19 157/95/17
f 160/96/20 161/95/18 162/98/20
f 162/98/19 161/95/17 160/96/19
f 163/99/20 164/100/24 165/101/20
f 165/101/19 164/100/23 163/99/19
f 166/100/24 167/99/20 168/102/24
f 168/102/23 167/99/19 166/100/23
f 169/103/24 170/104/26 171/105/24
f 171/105/23 170/104/25 169/103/23
f 172/104/26 173/103/24 174/106/26
f 174/106/25 173/103/23 172/104/25
f 175/107/26 176/108/21 177/109/26
f 177/109/25 176/108/22 175/107/25
f 178/108/21 179/107/26 180/110/21
f 180/110/22 179/107/25 178/108/22
f 181/57/5 182/58/5 183/111/5
f 183/111/6 182/58/6 181/57/6
f 184/111/5 185/58/5 186/112/5
f 186/112/6 185/58/6 184/111/6
f 187/111/5 188/112/5 189/113/5
f 189/113/6 188/112/6 187/111/6
f 190/113/5 191/112/5 192/114/5
f 192/114/6 191/112/6 190/113/6
f 193/113/5 194/114/5 195/115/5
f 195/115/6 194/114/6 193/113/6
f 196/115/5 197/114/5 198/116/5
f 198/116/6 197/114/6 196/115/6
f 199/115/5 200/116/5 201/117/5
f 201/117/6 200/116/6 199/115/6
f 202/117/5 203/116/5 204/118/5
f 204/118/6 203/116/6 202/117/6
f 205/117/5 206/118/5 207/119/5
f 207/119/6 206/118/6 205/117/6
f 208/119/5 209/118/5 210/120/5
f 210/120/6 209/118/6 208/119/6
