# SSTK version 0.8.0
# 58
mtllib original-58.mtl
o 3dw.61c6c6a47e5b9d34496c7671bf276db5/Model/distancia1/distancia/mesh1/mesh1-geometry/material_2/component_31#mesh1-geometry
v -0.188237 0.528036 0.073697
v -0.189532 0.537870 0.083196
v -0.189532 0.537870 0.073697
v -0.189532 0.537870 0.083196
v -0.188237 0.528036 0.073697
v -0.188237 0.528036 0.083196
v -0.184442 0.518873 0.073697
v -0.188237 0.528036 0.083196
v -0.188237 0.528036 0.073697
v -0.188237 0.528036 0.083196
v -0.184442 0.518873 0.073697
v -0.184442 0.518873 0.083196
v -0.178404 0.511004 0.073697
v -0.184442 0.518873 0.083196
v -0.184442 0.518873 0.073697
v -0.184442 0.518873 0.083196
v -0.178404 0.511004 0.073697
v -0.178404 0.511004 0.083196
v -0.178404 0.511004 0.073697
v -0.170535 0.504966 0.083196
v -0.178404 0.511004 0.083196
v -0.170535 0.504966 0.083196
v -0.178404 0.511004 0.073697
v -0.170535 0.504966 0.073697
v -0.170535 0.504966 0.073697
v -0.161371 0.501170 0.083196
v -0.170535 0.504966 0.083196
v -0.161371 0.501170 0.083196
v -0.170535 0.504966 0.073697
v -0.161371 0.501170 0.073697
v -0.161371 0.501170 0.073697
v -0.151537 0.499875 0.083196
v -0.161371 0.501170 0.083196
v -0.151537 0.499875 0.083196
v -0.161371 0.501170 0.073697
v -0.151537 0.499875 0.073697
v -0.151537 0.499875 0.073697
v -0.141704 0.501170 0.083196
v -0.151537 0.499875 0.083196
v -0.141704 0.501170 0.083196
v -0.151537 0.499875 0.073697
v -0.141704 0.501170 0.073697
v -0.141704 0.501170 0.073697
v -0.132540 0.504966 0.083196
v -0.141704 0.501170 0.083196
v -0.132540 0.504966 0.083196
v -0.141704 0.501170 0.073697
v -0.132540 0.504966 0.073697
v -0.132540 0.504966 0.073697
v -0.124671 0.511004 0.083196
v -0.132540 0.504966 0.083196
v -0.124671 0.511004 0.083196
v -0.132540 0.504966 0.073697
v -0.124671 0.511004 0.073697
v -0.118633 0.518873 0.073697
v -0.124671 0.511004 0.083196
v -0.124671 0.511004 0.073697
v -0.124671 0.511004 0.083196
v -0.118633 0.518873 0.073697
v -0.118633 0.518873 0.083196
v -0.114838 0.528036 0.073697
v -0.118633 0.518873 0.083196
v -0.118633 0.518873 0.073697
v -0.118633 0.518873 0.083196
v -0.114838 0.528036 0.073697
v -0.114838 0.528036 0.083196
v -0.113543 0.537870 0.073697
v -0.114838 0.528036 0.083196
v -0.114838 0.528036 0.073697
v -0.114838 0.528036 0.083196
v -0.113543 0.537870 0.073697
v -0.113543 0.537870 0.083196
v -0.114838 0.547704 0.073697
v -0.113543 0.537870 0.083196
v -0.113543 0.537870 0.073697
v -0.113543 0.537870 0.083196
v -0.114838 0.547704 0.073697
v -0.114838 0.547704 0.083196
v -0.118633 0.556867 0.073697
v -0.114838 0.547704 0.083196
v -0.114838 0.547704 0.073697
v -0.114838 0.547704 0.083196
v -0.118633 0.556867 0.073697
v -0.118633 0.556867 0.083196
v -0.124671 0.564736 0.073697
v -0.118633 0.556867 0.083196
v -0.118633 0.556867 0.073697
v -0.118633 0.556867 0.083196
v -0.124671 0.564736 0.073697
v -0.124671 0.564736 0.083196
v -0.124671 0.564736 0.073697
v -0.132540 0.570774 0.083196
v -0.124671 0.564736 0.083196
v -0.132540 0.570774 0.083196
v -0.124671 0.564736 0.073697
v -0.132540 0.570774 0.073697
v -0.170535 0.570774 0.083196
v -0.161371 0.574570 0.073697
v -0.170535 0.570774 0.073697
v -0.161371 0.574570 0.073697
v -0.170535 0.570774 0.083196
v -0.161371 0.574570 0.083196
v -0.170535 0.570774 0.083196
v -0.161371 0.501170 0.083196
v -0.161371 0.574570 0.083196
v -0.170535 0.570774 0.083196
v -0.170535 0.504966 0.083196
v -0.161371 0.501170 0.083196
v -0.178404 0.564736 0.083196
v -0.170535 0.504966 0.083196
v -0.170535 0.570774 0.083196
v -0.178404 0.564736 0.083196
v -0.178404 0.511004 0.083196
v -0.170535 0.504966 0.083196
v -0.184442 0.556867 0.083196
v -0.178404 0.511004 0.083196
v -0.178404 0.564736 0.083196
v -0.184442 0.556867 0.083196
v -0.184442 0.518873 0.083196
v -0.178404 0.511004 0.083196
v -0.188237 0.547704 0.083196
v -0.184442 0.518873 0.083196
v -0.184442 0.556867 0.083196
v -0.188237 0.547704 0.083196
v -0.188237 0.528036 0.083196
v -0.184442 0.518873 0.083196
v -0.188237 0.528036 0.083196
v -0.188237 0.547704 0.083196
v -0.189532 0.537870 0.083196
v -0.188237 0.547704 0.083196
v -0.189532 0.537870 0.073697
v -0.189532 0.537870 0.083196
v -0.189532 0.537870 0.073697
v -0.188237 0.547704 0.083196
v -0.188237 0.547704 0.073697
v -0.184442 0.556867 0.083196
v -0.188237 0.547704 0.073697
v -0.188237 0.547704 0.083196
v -0.188237 0.547704 0.073697
v -0.184442 0.556867 0.083196
v -0.184442 0.556867 0.073697
v -0.178404 0.564736 0.083196
v -0.184442 0.556867 0.073697
v -0.184442 0.556867 0.083196
v -0.184442 0.556867 0.073697
v -0.178404 0.564736 0.083196
v -0.178404 0.564736 0.073697
v -0.178404 0.564736 0.083196
v -0.170535 0.570774 0.073697
v -0.178404 0.564736 0.073697
v -0.170535 0.570774 0.073697
v -0.178404 0.564736 0.083196
v -0.170535 0.570774 0.083196
v -0.161371 0.574570 0.083196
v -0.161371 0.501170 0.083196
v -0.151537 0.499875 0.083196
v -0.161371 0.574570 0.083196
v -0.151537 0.499875 0.083196
v -0.151537 0.575864 0.083196
v -0.151537 0.575864 0.083196
v -0.151537 0.499875 0.083196
v -0.141704 0.501170 0.083196
v -0.151537 0.575864 0.083196
v -0.141704 0.501170 0.083196
v -0.141704 0.574570 0.083196
v -0.141704 0.574570 0.083196
v -0.141704 0.501170 0.083196
v -0.132540 0.504966 0.083196
v -0.141704 0.574570 0.083196
v -0.132540 0.504966 0.083196
v -0.132540 0.570774 0.083196
v -0.132540 0.570774 0.083196
v -0.132540 0.504966 0.083196
v -0.124671 0.511004 0.083196
v -0.132540 0.570774 0.083196
v -0.124671 0.511004 0.083196
v -0.124671 0.564736 0.083196
v -0.124671 0.564736 0.083196
v -0.124671 0.511004 0.083196
v -0.118633 0.518873 0.083196
v -0.124671 0.564736 0.083196
v -0.118633 0.518873 0.083196
v -0.118633 0.556867 0.083196
v -0.118633 0.556867 0.083196
v -0.118633 0.518873 0.083196
v -0.114838 0.528036 0.083196
v -0.118633 0.556867 0.083196
v -0.114838 0.528036 0.083196
v -0.114838 0.547704 0.083196
v -0.114838 0.547704 0.083196
v -0.114838 0.528036 0.083196
v -0.113543 0.537870 0.083196
v -0.132540 0.570774 0.073697
v -0.141704 0.574570 0.083196
v -0.132540 0.570774 0.083196
v -0.141704 0.574570 0.083196
v -0.132540 0.570774 0.073697
v -0.141704 0.574570 0.073697
v -0.141704 0.574570 0.073697
v -0.151537 0.575864 0.083196
v -0.141704 0.574570 0.083196
v -0.151537 0.575864 0.083196
v -0.141704 0.574570 0.073697
v -0.151537 0.575864 0.073697
v -0.151537 0.575864 0.073697
v -0.161371 0.574570 0.083196
v -0.151537 0.575864 0.083196
v -0.161371 0.574570 0.083196
v -0.151537 0.575864 0.073697
v -0.161371 0.574570 0.073697
vt -18.85689353942871 2.375
vt -18.98741912841797 2.5
vt -18.98741912841797 2.375
vt -18.85689353942871 2.5
vt -17.241064071655273 2.375
vt -17.37158966064453 2.5
vt -17.37158966064453 2.375
vt -17.241064071655273 2.5
vt -14.445837020874023 2.375
vt -14.576362609863281 2.5
vt -14.576362609863281 2.375
vt -14.445837020874023 2.5
vt -10.792228698730469 2.375
vt -10.661703109741211 2.5
vt -10.792228698730469 2.5
vt -10.661703109741211 2.375
vt -6.277070045471191 2.375
vt -6.146543979644775 2.5
vt -6.277070045471191 2.5
vt -6.146543979644775 2.375
vt -1.3385859727859497 2.375
vt -1.2080600261688232 2.5
vt -1.3385859727859497 2.5
vt -1.2080600261688232 2.375
vt 3.6866719722747803 2.375
vt 3.8171980381011963 2.5
vt 3.6866719722747803 2.5
vt 3.8171980381011963 2.375
vt 8.456241607666016 2.375
vt 8.586769104003906 2.5
vt 8.456241607666016 2.5
vt 8.586769104003906 2.375
vt 12.645086288452148 2.375
vt 12.775611877441406 2.5
vt 12.645086288452148 2.5
vt 12.775611877441406 2.375
vt 16.0982666015625 2.375
vt 15.967740058898926 2.5
vt 15.967740058898926 2.375
vt 16.0982666015625 2.5
vt 18.328298568725586 2.375
vt 18.197771072387695 2.5
vt 18.197771072387695 2.375
vt 18.328298568725586 2.5
vt 19.31373405456543 2.375
vt 19.183208465576172 2.5
vt 19.183208465576172 2.375
vt 19.31373405456543 2.5
vt 18.98741912841797 2.375
vt 18.85689353942871 2.5
vt 18.85689353942871 2.375
vt 18.98741912841797 2.5
vt 17.37158966064453 2.375
vt 17.241064071655273 2.5
vt 17.241064071655273 2.375
vt 17.37158966064453 2.5
vt 14.576362609863281 2.375
vt 14.445837020874023 2.5
vt 14.445837020874023 2.375
vt 14.576362609863281 2.5
vt 10.661703109741211 2.375
vt 10.792228698730469 2.5
vt 10.661703109741211 2.5
vt 10.792228698730469 2.375
vt -8.456241607666016 2.5
vt -8.586769104003906 2.375
vt -8.456241607666016 2.375
vt -8.586769104003906 2.5
vt 1 19.683013916015625
vt 1.1205899715423584 18.76703643798828
vt 1.1205899715423584 19.73296356201172
vt 1 18.816986083984375
vt 0.8964470028877258 19.603553771972656
vt 0.8964470028877258 18.896446228027344
vt 0.8169869780540466 19.5
vt 0.8169869780540466 19
vt 0.7670369744300842 19.379409790039062
vt 0.7670369744300842 19.120590209960938
vt 0.75 19.25
vt -19.31373405456543 2.5
vt -19.183208465576172 2.375
vt -19.183208465576172 2.5
vt -19.31373405456543 2.375
vt -18.328298568725586 2.5
vt -18.197771072387695 2.375
vt -18.197771072387695 2.5
vt -18.328298568725586 2.375
vt -16.0982666015625 2.5
vt -15.967740058898926 2.375
vt -15.967740058898926 2.5
vt -16.0982666015625 2.375
vt -12.645086288452148 2.5
vt -12.775611877441406 2.375
vt -12.645086288452148 2.375
vt -12.775611877441406 2.5
vt 1.25 18.75
vt 1.25 19.75
vt 1.3794100284576416 18.76703643798828
vt 1.3794100284576416 19.73296356201172
vt 1.5 18.816986083984375
vt 1.5 19.683013916015625
vt 1.603553056716919 18.896446228027344
vt 1.603553056716919 19.603553771972656
vt 1.6830129623413086 19
vt 1.6830129623413086 19.5
vt 1.732962965965271 19.120590209960938
vt 1.732962965965271 19.379409790039062
vt 1.75 19.25
vt 6.146543979644775 2.375
vt 6.277070045471191 2.5
vt 6.146543979644775 2.5
vt 6.277070045471191 2.375
vt 1.2080600261688232 2.375
vt 1.3385859727859497 2.5
vt 1.2080600261688232 2.5
vt 1.3385859727859497 2.375
vt -3.8171980381011963 2.375
vt -3.6866719722747803 2.5
vt -3.8171980381011963 2.5
vt -3.6866719722747803 2.375
vn -0.9659258451755842 -0.25881897461707376 0
vn -1 0 0
vn 0.9659258451755842 0.25881897461707376 0
vn 1 0 0
vn -0.8660252955903434 -0.5000001873976233 0
vn 0.8660252955903434 0.5000001873976233 0
vn -0.7071067811865476 -0.7071067811865476 0
vn 0.7071067811865476 0.7071067811865476 0
vn -0.5000001873976233 -0.8660252955903434 0
vn 0.5000001873976233 0.8660252955903434 0
vn -0.25881897461707376 -0.9659258451755842 0
vn 0.25881897461707376 0.9659258451755842 0
vn 0 -1 0
vn 0 1 0
vn 0.25881897461707376 -0.9659258451755842 0
vn -0.25881897461707376 0.9659258451755842 0
vn 0.5000001873976233 -0.8660252955903434 0
vn -0.5000001873976233 0.8660252955903434 0
vn 0.7071067811865476 -0.7071067811865476 0
vn -0.7071067811865476 0.7071067811865476 0
vn 0.8660252955903434 -0.5000001873976233 0
vn -0.8660252955903434 0.5000001873976233 0
vn 0.9659258451755842 -0.25881897461707376 0
vn -0.9659258451755842 0.25881897461707376 0
vn 0 0 1
vn 0 0 -1
usemtl material_0_2
f 1/1/1 2/2/2 3/3/2
f 3/3/4 2/2/4 1/1/3
f 4/2/2 5/1/1 6/4/1
f 6/4/3 5/1/3 4/2/4
f 7/5/5 8/6/1 9/7/1
f 9/7/3 8/6/3 7/5/6
f 10/6/1 11/5/5 12/8/5
f 12/8/6 11/5/6 10/6/3
f 13/9/7 14/10/5 15/11/5
f 15/11/6 14/10/6 13/9/8
f 16/10/5 17/9/7 18/12/7
f 18/12/8 17/9/8 16/10/6
f 19/13/7 20/14/9 21/15/7
f 21/15/8 20/14/10 19/13/8
f 22/14/9 23/13/7 24/16/9
f 24/16/10 23/13/8 22/14/10
f 25/17/9 26/18/11 27/19/9
f 27/19/10 26/18/12 25/17/10
f 28/18/11 29/17/9 30/20/11
f 30/20/12 29/17/10 28/18/12
f 31/21/11 32/22/13 33/23/11
f 33/23/12 32/22/14 31/21/12
f 34/22/13 35/21/11 36/24/13
f 36/24/14 35/21/12 34/22/14
f 37/25/13 38/26/15 39/27/13
f 39/27/14 38/26/16 37/25/14
f 40/26/15 41/25/13 42/28/15
f 42/28/16 41/25/14 40/26/16
f 43/29/15 44/30/17 45/31/15
f 45/31/16 44/30/18 43/29/16
f 46/30/17 47/29/15 48/32/17
f 48/32/18 47/29/16 46/30/18
f 49/33/17 50/34/19 51/35/17
f 51/35/18 50/34/20 49/33/18
f 52/34/19 53/33/17 54/36/19
f 54/36/20 53/33/18 52/34/20
f 55/37/21 56/38/19 57/39/19
f 57/39/20 56/38/20 55/37/22
f 58/38/19 59/37/21 60/40/21
f 60/40/22 59/37/22 58/38/20
f 61/41/23 62/42/21 63/43/21
f 63/43/22 62/42/22 61/41/24
f 64/42/21 65/41/23 66/44/23
f 66/44/24 65/41/24 64/42/22
f 67/45/4 68/46/23 69/47/23
f 69/47/24 68/46/24 67/45/2
f 70/46/23 71/45/4 72/48/4
f 72/48/2 71/45/2 70/46/24
f 73/49/3 74/50/4 75/51/4
f 75/51/2 74/50/2 73/49/1
f 76/50/4 77/49/3 78/52/3
f 78/52/1 77/49/1 76/50/2
f 79/53/6 80/54/3 81/55/3
f 81/55/1 80/54/1 79/53/5
f 82/54/3 83/53/6 84/56/6
f 84/56/5 83/53/5 82/54/1
f 85/57/8 86/58/6 87/59/6
f 87/59/5 86/58/5 85/57/7
f 88/58/6 89/57/8 90/60/8
f 90/60/7 89/57/7 88/58/5
f 91/61/8 92/62/10 93/63/8
f 93/63/7 92/62/9 91/61/7
f 94/62/10 95/61/8 96/64/10
f 96/64/9 95/61/7 94/62/9
f 97/65/18 98/66/16 99/67/18
f 99/67/17 98/66/15 97/65/17
f 100/66/16 101/65/18 102/68/16
f 102/68/15 101/65/17 100/66/15
f 103/69/25 104/70/25 105/71/25
f 105/71/26 104/70/26 103/69/26
f 106/69/25 107/72/25 108/70/25
f 108/70/26 107/72/26 106/69/26
f 109/73/25 110/72/25 111/69/25
f 111/69/26 110/72/26 109/73/26
f 112/73/25 113/74/25 114/72/25
f 114/72/26 113/74/26 112/73/26
f 115/75/25 116/74/25 117/73/25
f 117/73/26 116/74/26 115/75/26
f 118/75/25 119/76/25 120/74/25
f 120/74/26 119/76/26 118/75/26
f 121/77/25 122/76/25 123/75/25
f 123/75/26 122/76/26 121/77/26
f 124/77/25 125/78/25 126/76/25
f 126/76/26 125/78/26 124/77/26
f 127/78/25 128/77/25 129/79/25
f 129/79/26 128/77/26 127/78/26
f 130/80/24 131/81/2 132/82/2
f 132/82/4 131/81/4 130/80/23
f 133/81/2 134/80/24 135/83/24
f 135/83/23 134/80/23 133/81/4
f 136/84/22 137/85/24 138/86/24
f 138/86/23 137/85/23 136/84/21
f 139/85/24 140/84/22 141/87/22
f 141/87/21 140/84/21 139/85/23
f 142/88/20 143/89/22 144/90/22
f 144/90/21 143/89/21 142/88/19
f 145/89/22 146/88/20 147/91/20
f 147/91/19 146/88/19 145/89/21
f 148/92/20 149/93/18 150/94/20
f 150/94/19 149/93/17 148/92/19
f 151/93/18 152/92/20 153/95/18
f 153/95/17 152/92/19 151/93/17
f 154/71/25 155/70/25 156/96/25
f 156/96/26 155/70/26 154/71/26
f 157/71/25 158/96/25 159/97/25
f 159/97/26 158/96/26 157/71/26
f 160/97/25 161/96/25 162/98/25
f 162/98/26 161/96/26 160/97/26
f 163/97/25 164/98/25 165/99/25
f 165/99/26 164/98/26 163/97/26
f 166/99/25 167/98/25 168/100/25
f 168/100/26 167/98/26 166/99/26
f 169/99/25 170/100/25 171/101/25
f 171/101/26 170/100/26 169/99/26
f 172/101/25 173/100/25 174/102/25
f 174/102/26 173/100/26 172/101/26
f 175/101/25 176/102/25 177/103/25
f 177/103/26 176/102/26 175/101/26
f 178/103/25 179/102/25 180/104/25
f 180/104/26 179/102/26 178/103/26
f 181/103/25 182/104/25 183/105/25
f 183/105/26 182/104/26 181/103/26
f 184/105/25 185/104/25 186/106/25
f 186/106/26 185/104/26 184/105/26
f 187/105/25 188/106/25 189/107/25
f 189/107/26 188/106/26 187/105/26
f 190/107/25 191/106/25 192/108/25
f 192/108/26 191/106/26 190/107/26
f 193/109/10 194/110/12 195/111/10
f 195/111/9 194/110/11 193/109/9
f 196/110/12 197/109/10 198/112/12
f 198/112/11 197/109/9 196/110/11
f 199/113/12 200/114/14 201/115/12
f 201/115/11 200/114/13 199/113/11
f 202/114/14 203/113/12 204/116/14
f 204/116/13 203/113/11 202/114/13
f 205/117/14 206/118/16 207/119/14
f 207/119/13 206/118/15 205/117/13
f 208/118/16 209/117/14 210/120/16
f 210/120/15 209/117/13 208/118/15
