# SSTK version 0.8.0
# 43
mtllib original-43.mtl
o 3dw.61c6c6a47e5b9d34496c7671bf276db5/Model/distancia1/distancia/mesh1/mesh1-geometry/material_2/component_16#mesh1-geometry
v 0.032102 0.684757 0.083196
v 0.041266 0.688553 0.073697
v 0.032102 0.684757 0.073697
v 0.041266 0.688553 0.073697
v 0.032102 0.684757 0.083196
v 0.041266 0.688553 0.083196
v 0.032102 0.684757 0.083196
v 0.041266 0.615153 0.083196
v 0.041266 0.688553 0.083196
v 0.032102 0.684757 0.083196
v 0.032102 0.618949 0.083196
v 0.041266 0.615153 0.083196
v 0.024233 0.678719 0.083196
v 0.032102 0.618949 0.083196
v 0.032102 0.684757 0.083196
v 0.024233 0.678719 0.083196
v 0.024233 0.624987 0.083196
v 0.032102 0.618949 0.083196
v 0.018195 0.670850 0.083196
v 0.024233 0.624987 0.083196
v 0.024233 0.678719 0.083196
v 0.018195 0.670850 0.083196
v 0.018195 0.632856 0.083196
v 0.024233 0.624987 0.083196
v 0.014400 0.661687 0.083196
v 0.018195 0.632856 0.083196
v 0.018195 0.670850 0.083196
v 0.014400 0.661687 0.083196
v 0.014400 0.642019 0.083196
v 0.018195 0.632856 0.083196
v 0.014400 0.642019 0.083196
v 0.014400 0.661687 0.083196
v 0.013105 0.651853 0.083196
v 0.014400 0.661687 0.083196
v 0.013105 0.651853 0.073697
v 0.013105 0.651853 0.083196
v 0.013105 0.651853 0.073697
v 0.014400 0.661687 0.083196
v 0.014400 0.661687 0.073697
v 0.018195 0.670850 0.083196
v 0.014400 0.661687 0.073697
v 0.014400 0.661687 0.083196
v 0.014400 0.661687 0.073697
v 0.018195 0.670850 0.083196
v 0.018195 0.670850 0.073697
v 0.024233 0.678719 0.083196
v 0.018195 0.670850 0.073697
v 0.018195 0.670850 0.083196
v 0.018195 0.670850 0.073697
v 0.024233 0.678719 0.083196
v 0.024233 0.678719 0.073697
v 0.024233 0.678719 0.083196
v 0.032102 0.684757 0.073697
v 0.024233 0.678719 0.073697
v 0.032102 0.684757 0.073697
v 0.024233 0.678719 0.083196
v 0.032102 0.684757 0.083196
v 0.014400 0.642019 0.073697
v 0.013105 0.651853 0.083196
v 0.013105 0.651853 0.073697
v 0.013105 0.651853 0.083196
v 0.014400 0.642019 0.073697
v 0.014400 0.642019 0.083196
v 0.018195 0.632856 0.073697
v 0.014400 0.642019 0.083196
v 0.014400 0.642019 0.073697
v 0.014400 0.642019 0.083196
v 0.018195 0.632856 0.073697
v 0.018195 0.632856 0.083196
v 0.024233 0.624987 0.073697
v 0.018195 0.632856 0.083196
v 0.018195 0.632856 0.073697
v 0.018195 0.632856 0.083196
v 0.024233 0.624987 0.073697
v 0.024233 0.624987 0.083196
v 0.024233 0.624987 0.073697
v 0.032102 0.618949 0.083196
v 0.024233 0.624987 0.083196
v 0.032102 0.618949 0.083196
v 0.024233 0.624987 0.073697
v 0.032102 0.618949 0.073697
v 0.041266 0.615153 0.083196
v 0.032102 0.618949 0.073697
v 0.041266 0.615153 0.073697
v 0.032102 0.618949 0.073697
v 0.041266 0.615153 0.083196
v 0.032102 0.618949 0.083196
v 0.041266 0.615153 0.073697
v 0.051100 0.613859 0.083196
v 0.041266 0.615153 0.083196
v 0.051100 0.613859 0.083196
v 0.041266 0.615153 0.073697
v 0.051100 0.613859 0.073697
v 0.051100 0.613859 0.073697
v 0.060933 0.615153 0.083196
v 0.051100 0.613859 0.083196
v 0.060933 0.615153 0.083196
v 0.051100 0.613859 0.073697
v 0.060933 0.615153 0.073697
v 0.060933 0.615153 0.073697
v 0.070097 0.618949 0.083196
v 0.060933 0.615153 0.083196
v 0.070097 0.618949 0.083196
v 0.060933 0.615153 0.073697
v 0.070097 0.618949 0.073697
v 0.070097 0.618949 0.073697
v 0.077966 0.624987 0.083196
v 0.070097 0.618949 0.083196
v 0.077966 0.624987 0.083196
v 0.070097 0.618949 0.073697
v 0.077966 0.624987 0.073697
v 0.089094 0.651853 0.073697
v 0.087799 0.642019 0.083196
v 0.087799 0.642019 0.073697
v 0.087799 0.642019 0.083196
v 0.089094 0.651853 0.073697
v 0.089094 0.651853 0.083196
v 0.087799 0.661687 0.073697
v 0.089094 0.651853 0.083196
v 0.089094 0.651853 0.073697
v 0.089094 0.651853 0.083196
v 0.087799 0.661687 0.073697
v 0.087799 0.661687 0.083196
v 0.084004 0.670850 0.073697
v 0.087799 0.661687 0.083196
v 0.087799 0.661687 0.073697
v 0.087799 0.661687 0.083196
v 0.084004 0.670850 0.073697
v 0.084004 0.670850 0.083196
v 0.077966 0.678719 0.073697
v 0.084004 0.670850 0.083196
v 0.084004 0.670850 0.073697
v 0.084004 0.670850 0.083196
v 0.077966 0.678719 0.073697
v 0.077966 0.678719 0.083196
v 0.077966 0.678719 0.073697
v 0.070097 0.684757 0.083196
v 0.077966 0.678719 0.083196
v 0.070097 0.684757 0.083196
v 0.077966 0.678719 0.073697
v 0.070097 0.684757 0.073697
v 0.070097 0.684757 0.073697
v 0.060933 0.688553 0.083196
v 0.070097 0.684757 0.083196
v 0.060933 0.688553 0.083196
v 0.070097 0.684757 0.073697
v 0.060933 0.688553 0.073697
v 0.060933 0.688553 0.073697
v 0.051100 0.689848 0.083196
v 0.060933 0.688553 0.083196
v 0.051100 0.689848 0.083196
v 0.060933 0.688553 0.073697
v 0.051100 0.689848 0.073697
v 0.051100 0.689848 0.073697
v 0.041266 0.688553 0.083196
v 0.051100 0.689848 0.083196
v 0.041266 0.688553 0.083196
v 0.051100 0.689848 0.073697
v 0.041266 0.688553 0.073697
v 0.041266 0.688553 0.083196
v 0.051100 0.613859 0.083196
v 0.051100 0.689848 0.083196
v 0.041266 0.688553 0.083196
v 0.041266 0.615153 0.083196
v 0.051100 0.613859 0.083196
v 0.051100 0.689848 0.083196
v 0.051100 0.613859 0.083196
v 0.060933 0.615153 0.083196
v 0.051100 0.689848 0.083196
v 0.060933 0.615153 0.083196
v 0.060933 0.688553 0.083196
v 0.060933 0.688553 0.083196
v 0.060933 0.615153 0.083196
v 0.070097 0.618949 0.083196
v 0.060933 0.688553 0.083196
v 0.070097 0.618949 0.083196
v 0.070097 0.684757 0.083196
v 0.070097 0.684757 0.083196
v 0.070097 0.618949 0.083196
v 0.077966 0.624987 0.083196
v 0.070097 0.684757 0.083196
v 0.077966 0.624987 0.083196
v 0.077966 0.678719 0.083196
v 0.077966 0.678719 0.083196
v 0.077966 0.624987 0.083196
v 0.084004 0.632856 0.083196
v 0.077966 0.624987 0.083196
v 0.084004 0.632856 0.073697
v 0.084004 0.632856 0.083196
v 0.084004 0.632856 0.073697
v 0.077966 0.624987 0.083196
v 0.077966 0.624987 0.073697
v 0.087799 0.642019 0.073697
v 0.084004 0.632856 0.083196
v 0.084004 0.632856 0.073697
v 0.084004 0.632856 0.083196
v 0.087799 0.642019 0.073697
v 0.087799 0.642019 0.083196
v 0.084004 0.670850 0.083196
v 0.084004 0.632856 0.083196
v 0.087799 0.642019 0.083196
v 0.077966 0.678719 0.083196
v 0.084004 0.632856 0.083196
v 0.084004 0.670850 0.083196
v 0.084004 0.670850 0.083196
v 0.087799 0.642019 0.083196
v 0.087799 0.661687 0.083196
v 0.087799 0.661687 0.083196
v 0.087799 0.642019 0.083196
v 0.089094 0.651853 0.083196
vt -11.493946075439453 2.5
vt -11.624471664428711 2.375
vt -11.493946075439453 2.375
vt -11.624471664428711 2.5
vt 3.6666669845581055 21.183013916015625
vt 3.787256956100464 20.26703643798828
vt 3.787256956100464 21.23296356201172
vt 3.6666669845581055 20.316986083984375
vt 3.56311297416687 21.103553771972656
vt 3.56311297416687 20.396446228027344
vt 3.483654022216797 21
vt 3.483654022216797 20.5
vt 3.433703899383545 20.879409790039062
vt 3.433703899383545 20.620590209960938
vt 3.4166669845581055 20.75
vt -21.148971557617188 2.5
vt -21.018444061279297 2.375
vt -21.018444061279297 2.5
vt -21.148971557617188 2.375
vt -20.734607696533203 2.5
vt -20.604080200195312 2.375
vt -20.604080200195312 2.5
vt -20.734607696533203 2.375
vt -18.91166114807129 2.5
vt -18.7811336517334 2.375
vt -18.7811336517334 2.5
vt -18.91166114807129 2.375
vt -15.673836708068848 2.5
vt -15.804363250732422 2.375
vt -15.673836708068848 2.375
vt -15.804363250732422 2.5
vt -19.995990753173828 2.375
vt -20.126516342163086 2.5
vt -20.126516342163086 2.375
vt -19.995990753173828 2.5
vt -17.606393814086914 2.375
vt -17.736919403076172 2.5
vt -17.736919403076172 2.375
vt -17.606393814086914 2.5
vt -14.012502670288086 2.375
vt -14.14302921295166 2.5
vt -14.14302921295166 2.375
vt -14.012502670288086 2.5
vt -9.589761734008789 2.375
vt -9.459236145019531 2.5
vt -9.589761734008789 2.5
vt -9.459236145019531 2.375
vt -4.256889820098877 2.5
vt -4.387415885925293 2.375
vt -4.256889820098877 2.375
vt -4.387415885925293 2.5
vt 1.1094770431518555 2.375
vt 1.2400039434432983 2.5
vt 1.1094770431518555 2.5
vt 1.2400039434432983 2.375
vt 6.526313781738281 2.375
vt 6.656840801239014 2.5
vt 6.526313781738281 2.5
vt 6.656840801239014 2.375
vt 11.493946075439453 2.375
vt 11.624471664428711 2.5
vt 11.493946075439453 2.5
vt 11.624471664428711 2.375
vt 15.673836708068848 2.375
vt 15.804363250732422 2.5
vt 15.673836708068848 2.5
vt 15.804363250732422 2.375
vt 21.148971557617188 2.375
vt 21.018444061279297 2.5
vt 21.018444061279297 2.375
vt 21.148971557617188 2.5
vt 20.126516342163086 2.375
vt 19.995990753173828 2.5
vt 19.995990753173828 2.375
vt 20.126516342163086 2.5
vt 17.736919403076172 2.375
vt 17.606393814086914 2.5
vt 17.606393814086914 2.375
vt 17.736919403076172 2.5
vt 14.14302921295166 2.375
vt 14.012502670288086 2.5
vt 14.012502670288086 2.375
vt 14.14302921295166 2.5
vt 9.459236145019531 2.375
vt 9.589761734008789 2.5
vt 9.459236145019531 2.5
vt 9.589761734008789 2.375
vt 4.256889820098877 2.375
vt 4.387415885925293 2.5
vt 4.256889820098877 2.5
vt 4.387415885925293 2.375
vt -1.2400039434432983 2.375
vt -1.1094770431518555 2.5
vt -1.2400039434432983 2.5
vt -1.1094770431518555 2.375
vt -6.656840801239014 2.375
vt -6.526313781738281 2.5
vt -6.656840801239014 2.5
vt -6.526313781738281 2.375
vt 3.9166669845581055 20.25
vt 3.9166669845581055 21.25
vt 4.046075820922852 20.26703643798828
vt 4.046075820922852 21.23296356201172
vt 4.1666669845581055 20.316986083984375
vt 4.1666669845581055 21.183013916015625
vt 4.270219802856445 20.396446228027344
vt 4.270219802856445 21.103553771972656
vt 4.349678993225098 20.5
vt 18.7811336517334 2.5
vt 18.91166114807129 2.375
vt 18.91166114807129 2.5
vt 18.7811336517334 2.375
vt 20.734607696533203 2.375
vt 20.604080200195312 2.5
vt 20.604080200195312 2.375
vt 20.734607696533203 2.5
vt 4.349678993225098 21
vt 4.399630069732666 20.620590209960938
vt 4.399630069732666 20.879409790039062
vt 4.4166669845581055 20.75
vn -0.5000001873976233 0.8660252955903434 0
vn -0.25881897461707376 0.9659258451755842 0
vn 0.5000001873976233 -0.8660252955903434 0
vn 0.25881897461707376 -0.9659258451755842 0
vn 0 0 1
vn 0 0 -1
vn -0.9659258451755842 0.25881897461707376 0
vn -1 0 0
vn 0.9659258451755842 -0.25881897461707376 0
vn 1 0 0
vn -0.8660252955903434 0.5000001873976233 0
vn 0.8660252955903434 -0.5000001873976233 0
vn -0.7071067811865476 0.7071067811865476 0
vn 0.7071067811865476 -0.7071067811865476 0
vn -0.9659258451755842 -0.25881897461707376 0
vn 0.9659258451755842 0.25881897461707376 0
vn -0.8660252955903434 -0.5000001873976233 0
vn 0.8660252955903434 0.5000001873976233 0
vn -0.7071067811865476 -0.7071067811865476 0
vn 0.7071067811865476 0.7071067811865476 0
vn -0.5000001873976233 -0.8660252955903434 0
vn 0.5000001873976233 0.8660252955903434 0
vn -0.25881897461707376 -0.9659258451755842 0
vn 0.25881897461707376 0.9659258451755842 0
vn 0 -1 0
vn 0 1 0
usemtl material_0_2
f 1/1/1 2/2/2 3/3/1
f 3/3/3 2/2/4 1/1/3
f 4/2/2 5/1/1 6/4/2
f 6/4/4 5/1/3 4/2/4
f 7/5/5 8/6/5 9/7/5
f 9/7/6 8/6/6 7/5/6
f 10/5/5 11/8/5 12/6/5
f 12/6/6 11/8/6 10/5/6
f 13/9/5 14/8/5 15/5/5
f 15/5/6 14/8/6 13/9/6
f 16/9/5 17/10/5 18/8/5
f 18/8/6 17/10/6 16/9/6
f 19/11/5 20/10/5 21/9/5
f 21/9/6 20/10/6 19/11/6
f 22/11/5 23/12/5 24/10/5
f 24/10/6 23/12/6 22/11/6
f 25/13/5 26/12/5 27/11/5
f 27/11/6 26/12/6 25/13/6
f 28/13/5 29/14/5 30/12/5
f 30/12/6 29/14/6 28/13/6
f 31/14/5 32/13/5 33/15/5
f 33/15/6 32/13/6 31/14/6
f 34/16/7 35/17/8 36/18/8
f 36/18/10 35/17/10 34/16/9
f 37/17/8 38/16/7 39/19/7
f 39/19/9 38/16/9 37/17/10
f 40/20/11 41/21/7 42/22/7
f 42/22/9 41/21/9 40/20/12
f 43/21/7 44/20/11 45/23/11
f 45/23/12 44/20/12 43/21/9
f 46/24/13 47/25/11 48/26/11
f 48/26/12 47/25/12 46/24/14
f 49/25/11 50/24/13 51/27/13
f 51/27/14 50/24/14 49/25/12
f 52/28/13 53/29/1 54/30/13
f 54/30/14 53/29/3 52/28/14
f 55/29/1 56/28/13 57/31/1
f 57/31/3 56/28/14 55/29/3
f 58/32/15 59/33/8 60/34/8
f 60/34/10 59/33/10 58/32/16
f 61/33/8 62/32/15 63/35/15
f 63/35/16 62/32/16 61/33/10
f 64/36/17 65/37/15 66/38/15
f 66/38/16 65/37/16 64/36/18
f 67/37/15 68/36/17 69/39/17
f 69/39/18 68/36/18 67/37/16
f 70/40/19 71/41/17 72/42/17
f 72/42/18 71/41/18 70/40/20
f 73/41/17 74/40/19 75/43/19
f 75/43/20 74/40/20 73/41/18
f 76/44/19 77/45/21 78/46/19
f 78/46/20 77/45/22 76/44/20
f 79/45/21 80/44/19 81/47/21
f 81/47/22 80/44/20 79/45/22
f 82/48/23 83/49/21 84/50/23
f 84/50/24 83/49/22 82/48/24
f 85/49/21 86/48/23 87/51/21
f 87/51/22 86/48/24 85/49/22
f 88/52/23 89/53/25 90/54/23
f 90/54/24 89/53/26 88/52/24
f 91/53/25 92/52/23 93/55/25
f 93/55/26 92/52/24 91/53/26
f 94/56/25 95/57/4 96/58/25
f 96/58/26 95/57/2 94/56/26
f 97/57/4 98/56/25 99/59/4
f 99/59/2 98/56/26 97/57/2
f 100/60/4 101/61/3 102/62/4
f 102/62/2 101/61/1 100/60/2
f 103/61/3 104/60/4 105/63/3
f 105/63/1 104/60/2 103/61/1
f 106/64/3 107/65/14 108/66/3
f 108/66/1 107/65/13 106/64/1
f 109/65/14 110/64/3 111/67/14
f 111/67/13 110/64/1 109/65/13
f 112/68/10 113/69/9 114/70/9
f 114/70/7 113/69/7 112/68/8
f 115/69/9 116/68/10 117/71/10
f 117/71/8 116/68/8 115/69/7
f 118/72/16 119/73/10 120/74/10
f 120/74/8 119/73/8 118/72/15
f 121/73/10 122/72/16 123/75/16
f 123/75/15 122/72/15 121/73/8
f 124/76/18 125/77/16 126/78/16
f 126/78/15 125/77/15 124/76/17
f 127/77/16 128/76/18 129/79/18
f 129/79/17 128/76/17 127/77/15
f 130/80/20 131/81/18 132/82/18
f 132/82/17 131/81/17 130/80/19
f 133/81/18 134/80/20 135/83/20
f 135/83/19 134/80/19 133/81/17
f 136/84/20 137/85/22 138/86/20
f 138/86/19 137/85/21 136/84/19
f 139/85/22 140/84/20 141/87/22
f 141/87/21 140/84/19 139/85/21
f 142/88/22 143/89/24 144/90/22
f 144/90/21 143/89/23 142/88/21
f 145/89/24 146/88/22 147/91/24
f 147/91/23 146/88/21 145/89/23
f 148/92/24 149/93/26 150/94/24
f 150/94/23 149/93/25 148/92/23
f 151/93/26 152/92/24 153/95/26
f 153/95/25 152/92/23 151/93/25
f 154/96/26 155/97/2 156/98/26
f 156/98/25 155/97/4 154/96/25
f 157/97/2 158/96/26 159/99/2
f 159/99/4 158/96/25 157/97/4
f 160/7/5 161/100/5 162/101/5
f 162/101/6 161/100/6 160/7/6
f 163/7/5 164/6/5 165/100/5
f 165/100/6 164/6/6 163/7/6
f 166/101/5 167/100/5 168/102/5
f 168/102/6 167/100/6 166/101/6
f 169/101/5 170/102/5 171/103/5
f 171/103/6 170/102/6 169/101/6
f 172/103/5 173/102/5 174/104/5
f 174/104/6 173/102/6 172/103/6
f 175/103/5 176/104/5 177/105/5
f 177/105/6 176/104/6 175/103/6
f 178/105/5 179/104/5 180/106/5
f 180/106/6 179/104/6 178/105/6
f 181/105/5 182/106/5 183/107/5
f 183/107/6 182/106/6 181/105/6
f 184/107/5 185/106/5 186/108/5
f 186/108/6 185/106/6 184/107/6
f 187/109/14 188/110/12 189/111/12
f 189/111/11 188/110/11 187/109/13
f 190/110/12 191/109/14 192/112/14
f 192/112/13 191/109/13 190/110/11
f 193/113/9 194/114/12 195/115/12
f 195/115/11 194/114/11 193/113/7
f 196/114/12 197/113/9 198/116/9
f 198/116/7 197/113/7 196/114/11
f 199/117/5 200/108/5 201/118/5
f 201/118/6 200/108/6 199/117/6
f 202/107/5 203/108/5 204/117/5
f 204/117/6 203/108/6 202/107/6
f 205/117/5 206/118/5 207/119/5
f 207/119/6 206/118/6 205/117/6
f 208/119/5 209/118/5 210/120/5
f 210/120/6 209/118/6 208/119/6
