# SSTK version 0.8.0
# 45
mtllib original-45.mtl
o 3dw.61c6c6a47e5b9d34496c7671bf276db5/Model/distancia1/distancia/mesh1/mesh1-geometry/material_2/component_18#mesh1-geometry
v 0.013105 0.423886 0.073697
v 0.014400 0.433720 0.083196
v 0.014400 0.433720 0.073697
v 0.014400 0.433720 0.083196
v 0.013105 0.423886 0.073697
v 0.013105 0.423886 0.083196
v 0.014400 0.414053 0.073697
v 0.013105 0.423886 0.083196
v 0.013105 0.423886 0.073697
v 0.013105 0.423886 0.083196
v 0.014400 0.414053 0.073697
v 0.014400 0.414053 0.083196
v 0.018195 0.404889 0.073697
v 0.014400 0.414053 0.083196
v 0.014400 0.414053 0.073697
v 0.014400 0.414053 0.083196
v 0.018195 0.404889 0.073697
v 0.018195 0.404889 0.083196
v 0.024233 0.397020 0.073697
v 0.018195 0.404889 0.083196
v 0.018195 0.404889 0.073697
v 0.018195 0.404889 0.083196
v 0.024233 0.397020 0.073697
v 0.024233 0.397020 0.083196
v 0.024233 0.397020 0.073697
v 0.032102 0.390982 0.083196
v 0.024233 0.397020 0.083196
v 0.032102 0.390982 0.083196
v 0.024233 0.397020 0.073697
v 0.032102 0.390982 0.073697
v 0.089094 0.423886 0.073697
v 0.087799 0.414053 0.083196
v 0.087799 0.414053 0.073697
v 0.087799 0.414053 0.083196
v 0.089094 0.423886 0.073697
v 0.089094 0.423886 0.083196
v 0.087799 0.433720 0.073697
v 0.089094 0.423886 0.083196
v 0.089094 0.423886 0.073697
v 0.089094 0.423886 0.083196
v 0.087799 0.433720 0.073697
v 0.087799 0.433720 0.083196
v 0.084004 0.442884 0.073697
v 0.087799 0.433720 0.083196
v 0.087799 0.433720 0.073697
v 0.087799 0.433720 0.083196
v 0.084004 0.442884 0.073697
v 0.084004 0.442884 0.083196
v 0.077966 0.450753 0.073697
v 0.084004 0.442884 0.083196
v 0.084004 0.442884 0.073697
v 0.084004 0.442884 0.083196
v 0.077966 0.450753 0.073697
v 0.077966 0.450753 0.083196
v 0.077966 0.450753 0.073697
v 0.070097 0.456791 0.083196
v 0.077966 0.450753 0.083196
v 0.070097 0.456791 0.083196
v 0.077966 0.450753 0.073697
v 0.070097 0.456791 0.073697
v 0.024233 0.450753 0.083196
v 0.032102 0.456791 0.073697
v 0.024233 0.450753 0.073697
v 0.032102 0.456791 0.073697
v 0.024233 0.450753 0.083196
v 0.032102 0.456791 0.083196
v 0.024233 0.450753 0.083196
v 0.032102 0.390982 0.083196
v 0.032102 0.456791 0.083196
v 0.024233 0.450753 0.083196
v 0.024233 0.397020 0.083196
v 0.032102 0.390982 0.083196
v 0.018195 0.442884 0.083196
v 0.024233 0.397020 0.083196
v 0.024233 0.450753 0.083196
v 0.018195 0.442884 0.083196
v 0.018195 0.404889 0.083196
v 0.024233 0.397020 0.083196
v 0.014400 0.433720 0.083196
v 0.018195 0.404889 0.083196
v 0.018195 0.442884 0.083196
v 0.014400 0.433720 0.083196
v 0.014400 0.414053 0.083196
v 0.018195 0.404889 0.083196
v 0.014400 0.414053 0.083196
v 0.014400 0.433720 0.083196
v 0.013105 0.423886 0.083196
v 0.018195 0.442884 0.083196
v 0.014400 0.433720 0.073697
v 0.014400 0.433720 0.083196
v 0.014400 0.433720 0.073697
v 0.018195 0.442884 0.083196
v 0.018195 0.442884 0.073697
v 0.024233 0.450753 0.083196
v 0.018195 0.442884 0.073697
v 0.018195 0.442884 0.083196
v 0.018195 0.442884 0.073697
v 0.024233 0.450753 0.083196
v 0.024233 0.450753 0.073697
v 0.032102 0.456791 0.083196
v 0.032102 0.390982 0.083196
v 0.041266 0.387187 0.083196
v 0.032102 0.390982 0.073697
v 0.041266 0.387187 0.083196
v 0.032102 0.390982 0.083196
v 0.041266 0.387187 0.083196
v 0.032102 0.390982 0.073697
v 0.041266 0.387187 0.073697
v 0.041266 0.387187 0.073697
v 0.051100 0.385892 0.083196
v 0.041266 0.387187 0.083196
v 0.051100 0.385892 0.083196
v 0.041266 0.387187 0.073697
v 0.051100 0.385892 0.073697
v 0.051100 0.385892 0.073697
v 0.060933 0.387187 0.083196
v 0.051100 0.385892 0.083196
v 0.060933 0.387187 0.083196
v 0.051100 0.385892 0.073697
v 0.060933 0.387187 0.073697
v 0.060933 0.387187 0.073697
v 0.070097 0.390982 0.083196
v 0.060933 0.387187 0.083196
v 0.070097 0.390982 0.083196
v 0.060933 0.387187 0.073697
v 0.070097 0.390982 0.073697
v 0.070097 0.390982 0.073697
v 0.077966 0.397020 0.083196
v 0.070097 0.390982 0.083196
v 0.077966 0.397020 0.083196
v 0.070097 0.390982 0.073697
v 0.077966 0.397020 0.073697
v 0.084004 0.404889 0.073697
v 0.077966 0.397020 0.083196
v 0.077966 0.397020 0.073697
v 0.077966 0.397020 0.083196
v 0.084004 0.404889 0.073697
v 0.084004 0.404889 0.083196
v 0.087799 0.414053 0.073697
v 0.084004 0.404889 0.083196
v 0.084004 0.404889 0.073697
v 0.084004 0.404889 0.083196
v 0.087799 0.414053 0.073697
v 0.087799 0.414053 0.083196
v 0.084004 0.442884 0.083196
v 0.084004 0.404889 0.083196
v 0.087799 0.414053 0.083196
v 0.077966 0.450753 0.083196
v 0.084004 0.404889 0.083196
v 0.084004 0.442884 0.083196
v 0.077966 0.450753 0.083196
v 0.077966 0.397020 0.083196
v 0.084004 0.404889 0.083196
v 0.070097 0.456791 0.083196
v 0.077966 0.397020 0.083196
v 0.077966 0.450753 0.083196
v 0.070097 0.456791 0.083196
v 0.070097 0.390982 0.083196
v 0.077966 0.397020 0.083196
v 0.060933 0.460586 0.083196
v 0.070097 0.390982 0.083196
v 0.070097 0.456791 0.083196
v 0.060933 0.460586 0.083196
v 0.060933 0.387187 0.083196
v 0.070097 0.390982 0.083196
v 0.051100 0.461881 0.083196
v 0.060933 0.387187 0.083196
v 0.060933 0.460586 0.083196
v 0.051100 0.461881 0.083196
v 0.051100 0.385892 0.083196
v 0.060933 0.387187 0.083196
v 0.041266 0.460586 0.083196
v 0.051100 0.385892 0.083196
v 0.051100 0.461881 0.083196
v 0.041266 0.460586 0.083196
v 0.041266 0.387187 0.083196
v 0.051100 0.385892 0.083196
v 0.032102 0.456791 0.083196
v 0.041266 0.387187 0.083196
v 0.041266 0.460586 0.083196
v 0.041266 0.460586 0.073697
v 0.032102 0.456791 0.083196
v 0.041266 0.460586 0.083196
v 0.032102 0.456791 0.083196
v 0.041266 0.460586 0.073697
v 0.032102 0.456791 0.073697
v 0.041266 0.460586 0.083196
v 0.051100 0.461881 0.073697
v 0.041266 0.460586 0.073697
v 0.051100 0.461881 0.073697
v 0.041266 0.460586 0.083196
v 0.051100 0.461881 0.083196
v 0.051100 0.461881 0.083196
v 0.060933 0.460586 0.073697
v 0.051100 0.461881 0.073697
v 0.060933 0.460586 0.073697
v 0.051100 0.461881 0.083196
v 0.060933 0.460586 0.083196
v 0.060933 0.460586 0.083196
v 0.070097 0.456791 0.073697
v 0.060933 0.460586 0.073697
v 0.070097 0.456791 0.073697
v 0.060933 0.460586 0.083196
v 0.070097 0.456791 0.083196
v 0.084004 0.442884 0.083196
v 0.087799 0.414053 0.083196
v 0.087799 0.433720 0.083196
v 0.087799 0.433720 0.083196
v 0.087799 0.414053 0.083196
v 0.089094 0.423886 0.083196
vt -18.044111251831055 2.375
vt -18.174636840820312 2.5
vt -18.174636840820312 2.375
vt -18.044111251831055 2.5
vt -17.021656036376953 2.375
vt -17.15218162536621 2.5
vt -17.15218162536621 2.375
vt -17.021656036376953 2.5
vt -14.834754943847656 2.375
vt -14.965280532836914 2.5
vt -14.965280532836914 2.375
vt -14.834754943847656 2.5
vt -11.63244342803955 2.375
vt -11.762969017028809 2.5
vt -11.762969017028809 2.375
vt -11.63244342803955 2.5
vt -7.763477802276611 2.375
vt -7.6329522132873535 2.5
vt -7.763477802276611 2.5
vt -7.6329522132873535 2.375
vt 18.174636840820312 2.375
vt 18.044111251831055 2.5
vt 18.044111251831055 2.375
vt 18.174636840820312 2.5
vt 17.15218162536621 2.375
vt 17.021656036376953 2.5
vt 17.021656036376953 2.375
vt 17.15218162536621 2.5
vt 14.965280532836914 2.375
vt 14.834754943847656 2.5
vt 14.834754943847656 2.375
vt 14.965280532836914 2.5
vt 11.762969017028809 2.375
vt 11.63244342803955 2.5
vt 11.63244342803955 2.375
vt 11.762969017028809 2.5
vt 7.6329522132873535 2.375
vt 7.763477802276611 2.5
vt 7.6329522132873535 2.5
vt 7.763477802276611 2.375
vt -13.847553253173828 2.5
vt -13.978078842163086 2.375
vt -13.847553253173828 2.375
vt -13.978078842163086 2.5
vt 3.56311297416687 18.103553771972656
vt 3.6666669845581055 17.316986083984375
vt 3.6666669845581055 18.183013916015625
vt 3.56311297416687 17.396446228027344
vt 3.483654022216797 18
vt 3.483654022216797 17.5
vt 3.433703899383545 17.879409790039062
vt 3.433703899383545 17.620590209960938
vt 3.4166669845581055 17.75
vt -17.962968826293945 2.5
vt -17.832441329956055 2.375
vt -17.832441329956055 2.5
vt -17.962968826293945 2.375
vt -16.531600952148438 2.5
vt -16.401073455810547 2.375
vt -16.401073455810547 2.5
vt -16.531600952148438 2.375
vt 3.787256956100464 17.26703643798828
vt -3.239366054534912 2.375
vt -3.108839988708496 2.5
vt -3.239366054534912 2.5
vt -3.108839988708496 2.375
vt 1.5010559558868408 2.375
vt 1.6315820217132568 2.5
vt 1.5010559558868408 2.5
vt 1.6315820217132568 2.375
vt 6.134736061096191 2.375
vt 6.265262126922607 2.5
vt 6.134736061096191 2.5
vt 6.265262126922607 2.375
vt 10.345895767211914 2.375
vt 10.476422309875488 2.5
vt 10.345895767211914 2.5
vt 10.476422309875488 2.375
vt 13.847553253173828 2.375
vt 13.978078842163086 2.5
vt 13.847553253173828 2.5
vt 13.978078842163086 2.375
vt 16.531600952148438 2.375
vt 16.401073455810547 2.5
vt 16.401073455810547 2.375
vt 16.531600952148438 2.5
vt 17.962968826293945 2.375
vt 17.832441329956055 2.5
vt 17.832441329956055 2.375
vt 17.962968826293945 2.5
vt 4.349678993225098 18
vt 4.349678993225098 17.5
vt 4.399630069732666 17.620590209960938
vt 4.270219802856445 18.103553771972656
vt 4.270219802856445 17.396446228027344
vt 4.1666669845581055 18.183013916015625
vt 4.1666669845581055 17.316986083984375
vt 4.046075820922852 18.23296356201172
vt 4.046075820922852 17.26703643798828
vt 3.9166669845581055 18.25
vt 3.9166669845581055 17.25
vt 3.787256956100464 18.23296356201172
vt -10.476422309875488 2.375
vt -10.345895767211914 2.5
vt -10.476422309875488 2.5
vt -10.345895767211914 2.375
vt -6.134736061096191 2.5
vt -6.265262126922607 2.375
vt -6.134736061096191 2.375
vt -6.265262126922607 2.5
vt -1.5010559558868408 2.5
vt -1.6315820217132568 2.375
vt -1.5010559558868408 2.375
vt -1.6315820217132568 2.5
vt 3.239366054534912 2.5
vt 3.108839988708496 2.375
vt 3.239366054534912 2.375
vt 3.108839988708496 2.5
vt 4.399630069732666 17.879409790039062
vt 4.4166669845581055 17.75
vn -1 0 0
vn -0.9659258451755842 0.25881897461707376 0
vn 1 0 0
vn 0.9659258451755842 -0.25881897461707376 0
vn -0.9659258451755842 -0.25881897461707376 0
vn 0.9659258451755842 0.25881897461707376 0
vn -0.8660252955903434 -0.5000001873976233 0
vn 0.8660252955903434 0.5000001873976233 0
vn -0.7071067811865476 -0.7071067811865476 0
vn 0.7071067811865476 0.7071067811865476 0
vn -0.5000001873976233 -0.8660252955903434 0
vn 0.5000001873976233 0.8660252955903434 0
vn -0.7071067811865476 0.7071067811865476 0
vn -0.5000001873976233 0.8660252955903434 0
vn 0.7071067811865476 -0.7071067811865476 0
vn 0.5000001873976233 -0.8660252955903434 0
vn 0 0 1
vn 0 0 -1
vn -0.8660252955903434 0.5000001873976233 0
vn 0.8660252955903434 -0.5000001873976233 0
vn -0.25881897461707376 -0.9659258451755842 0
vn 0.25881897461707376 0.9659258451755842 0
vn 0 -1 0
vn 0 1 0
vn 0.25881897461707376 -0.9659258451755842 0
vn -0.25881897461707376 0.9659258451755842 0
usemtl material_0_2
f 1/1/1 2/2/2 3/3/2
f 3/3/4 2/2/4 1/1/3
f 4/2/2 5/1/1 6/4/1
f 6/4/3 5/1/3 4/2/4
f 7/5/5 8/6/1 9/7/1
f 9/7/3 8/6/3 7/5/6
f 10/6/1 11/5/5 12/8/5
f 12/8/6 11/5/6 10/6/3
f 13/9/7 14/10/5 15/11/5
f 15/11/6 14/10/6 13/9/8
f 16/10/5 17/9/7 18/12/7
f 18/12/8 17/9/8 16/10/6
f 19/13/9 20/14/7 21/15/7
f 21/15/8 20/14/8 19/13/10
f 22/14/7 23/13/9 24/16/9
f 24/16/10 23/13/10 22/14/8
f 25/17/9 26/18/11 27/19/9
f 27/19/10 26/18/12 25/17/10
f 28/18/11 29/17/9 30/20/11
f 30/20/12 29/17/10 28/18/12
f 31/21/3 32/22/4 33/23/4
f 33/23/2 32/22/2 31/21/1
f 34/22/4 35/21/3 36/24/3
f 36/24/1 35/21/1 34/22/2
f 37/25/6 38/26/3 39/27/3
f 39/27/1 38/26/1 37/25/5
f 40/26/3 41/25/6 42/28/6
f 42/28/5 41/25/5 40/26/1
f 43/29/8 44/30/6 45/31/6
f 45/31/5 44/30/5 43/29/7
f 46/30/6 47/29/8 48/32/8
f 48/32/7 47/29/7 46/30/5
f 49/33/10 50/34/8 51/35/8
f 51/35/7 50/34/7 49/33/9
f 52/34/8 53/33/10 54/36/10
f 54/36/9 53/33/9 52/34/7
f 55/37/10 56/38/12 57/39/10
f 57/39/9 56/38/11 55/37/9
f 58/38/12 59/37/10 60/40/12
f 60/40/11 59/37/9 58/38/11
f 61/41/13 62/42/14 63/43/13
f 63/43/15 62/42/16 61/41/15
f 64/42/14 65/41/13 66/44/14
f 66/44/16 65/41/15 64/42/16
f 67/45/17 68/46/17 69/47/17
f 69/47/18 68/46/18 67/45/18
f 70/45/17 71/48/17 72/46/17
f 72/46/18 71/48/18 70/45/18
f 73/49/17 74/48/17 75/45/17
f 75/45/18 74/48/18 73/49/18
f 76/49/17 77/50/17 78/48/17
f 78/48/18 77/50/18 76/49/18
f 79/51/17 80/50/17 81/49/17
f 81/49/18 80/50/18 79/51/18
f 82/51/17 83/52/17 84/50/17
f 84/50/18 83/52/18 82/51/18
f 85/52/17 86/51/17 87/53/17
f 87/53/18 86/51/18 85/52/18
f 88/54/19 89/55/2 90/56/2
f 90/56/4 89/55/4 88/54/20
f 91/55/2 92/54/19 93/57/19
f 93/57/20 92/54/20 91/55/4
f 94/58/13 95/59/19 96/60/19
f 96/60/20 95/59/20 94/58/15
f 97/59/19 98/58/13 99/61/13
f 99/61/15 98/58/15 97/59/20
f 100/47/17 101/46/17 102/62/17
f 102/62/18 101/46/18 100/47/18
f 103/63/11 104/64/21 105/65/11
f 105/65/12 104/64/22 103/63/12
f 106/64/21 107/63/11 108/66/21
f 108/66/22 107/63/12 106/64/22
f 109/67/21 110/68/23 111/69/21
f 111/69/22 110/68/24 109/67/22
f 112/68/23 113/67/21 114/70/23
f 114/70/24 113/67/22 112/68/24
f 115/71/23 116/72/25 117/73/23
f 117/73/24 116/72/26 115/71/24
f 118/72/25 119/71/23 120/74/25
f 120/74/26 119/71/24 118/72/26
f 121/75/25 122/76/16 123/77/25
f 123/77/26 122/76/14 121/75/26
f 124/76/16 125/75/25 126/78/16
f 126/78/14 125/75/26 124/76/14
f 127/79/16 128/80/15 129/81/16
f 129/81/14 128/80/13 127/79/14
f 130/80/15 131/79/16 132/82/15
f 132/82/13 131/79/14 130/80/13
f 133/83/20 134/84/15 135/85/15
f 135/85/13 134/84/13 133/83/19
f 136/84/15 137/83/20 138/86/20
f 138/86/19 137/83/19 136/84/13
f 139/87/4 140/88/20 141/89/20
f 141/89/19 140/88/19 139/87/2
f 142/88/20 143/87/4 144/90/4
f 144/90/2 143/87/2 142/88/19
f 145/91/17 146/92/17 147/93/17
f 147/93/18 146/92/18 145/91/18
f 148/94/17 149/92/17 150/91/17
f 150/91/18 149/92/18 148/94/18
f 151/94/17 152/95/17 153/92/17
f 153/92/18 152/95/18 151/94/18
f 154/96/17 155/95/17 156/94/17
f 156/94/18 155/95/18 154/96/18
f 157/96/17 158/97/17 159/95/17
f 159/95/18 158/97/18 157/96/18
f 160/98/17 161/97/17 162/96/17
f 162/96/18 161/97/18 160/98/18
f 163/98/17 164/99/17 165/97/17
f 165/97/18 164/99/18 163/98/18
f 166/100/17 167/99/17 168/98/17
f 168/98/18 167/99/18 166/100/18
f 169/100/17 170/101/17 171/99/17
f 171/99/18 170/101/18 169/100/18
f 172/102/17 173/101/17 174/100/17
f 174/100/18 173/101/18 172/102/18
f 175/102/17 176/62/17 177/101/17
f 177/101/18 176/62/18 175/102/18
f 178/47/17 179/62/17 180/102/17
f 180/102/18 179/62/18 178/47/18
f 181/103/26 182/104/14 183/105/26
f 183/105/25 182/104/16 181/103/25
f 184/104/14 185/103/26 186/106/14
f 186/106/16 185/103/25 184/104/16
f 187/107/26 188/108/24 189/109/26
f 189/109/25 188/108/23 187/107/25
f 190/108/24 191/107/26 192/110/24
f 192/110/23 191/107/25 190/108/23
f 193/111/24 194/112/22 195/113/24
f 195/113/23 194/112/21 193/111/23
f 196/112/22 197/111/24 198/114/22
f 198/114/21 197/111/23 196/112/21
f 199/115/22 200/116/12 201/117/22
f 201/117/21 200/116/11 199/115/21
f 202/116/12 203/115/22 204/118/12
f 204/118/11 203/115/21 202/116/11
f 205/91/17 206/93/17 207/119/17
f 207/119/18 206/93/18 205/91/18
f 208/119/17 209/93/17 210/120/17
f 210/120/18 209/93/18 208/119/18
