# SSTK version 0.8.0
# 20
mtllib original-20.mtl
o 3dw.61c6c6a47e5b9d34496c7671bf276db5/Model/distancia1/distancia/mesh1/mesh1-geometry/material_0/component_19#mesh1-geometry
v 0.135937 -0.516432 0.073697
v 0.134039 -0.511850 0.083196
v 0.134039 -0.511850 0.073697
v 0.134039 -0.511850 0.083196
v 0.135937 -0.516432 0.073697
v 0.135937 -0.516432 0.083196
v 0.138956 -0.520366 0.073697
v 0.135937 -0.516432 0.083196
v 0.135937 -0.516432 0.073697
v 0.135937 -0.516432 0.083196
v 0.138956 -0.520366 0.073697
v 0.138956 -0.520366 0.083196
v 0.138956 -0.520366 0.073697
v 0.142891 -0.523385 0.083196
v 0.138956 -0.520366 0.083196
v 0.142891 -0.523385 0.083196
v 0.138956 -0.520366 0.073697
v 0.142891 -0.523385 0.073697
v 0.142891 -0.523385 0.073697
v 0.147472 -0.525283 0.083196
v 0.142891 -0.523385 0.083196
v 0.147472 -0.525283 0.083196
v 0.142891 -0.523385 0.073697
v 0.147472 -0.525283 0.073697
v 0.147472 -0.525283 0.073697
v 0.152389 -0.525930 0.083196
v 0.147472 -0.525283 0.083196
v 0.152389 -0.525930 0.083196
v 0.147472 -0.525283 0.073697
v 0.152389 -0.525930 0.073697
v 0.152389 -0.525930 0.073697
v 0.157306 -0.525283 0.083196
v 0.152389 -0.525930 0.083196
v 0.157306 -0.525283 0.083196
v 0.152389 -0.525930 0.073697
v 0.157306 -0.525283 0.073697
v 0.157306 -0.525283 0.073697
v 0.161888 -0.523385 0.083196
v 0.157306 -0.525283 0.083196
v 0.161888 -0.523385 0.083196
v 0.157306 -0.525283 0.073697
v 0.161888 -0.523385 0.073697
v 0.161888 -0.523385 0.073697
v 0.165822 -0.520366 0.083196
v 0.161888 -0.523385 0.083196
v 0.165822 -0.520366 0.083196
v 0.161888 -0.523385 0.073697
v 0.165822 -0.520366 0.073697
v 0.168841 -0.516432 0.073697
v 0.165822 -0.520366 0.083196
v 0.165822 -0.520366 0.073697
v 0.165822 -0.520366 0.083196
v 0.168841 -0.516432 0.073697
v 0.168841 -0.516432 0.083196
v 0.170739 -0.511850 0.073697
v 0.168841 -0.516432 0.083196
v 0.168841 -0.516432 0.073697
v 0.168841 -0.516432 0.083196
v 0.170739 -0.511850 0.073697
v 0.170739 -0.511850 0.083196
v 0.171386 -0.506933 0.073697
v 0.170739 -0.511850 0.083196
v 0.170739 -0.511850 0.073697
v 0.170739 -0.511850 0.083196
v 0.171386 -0.506933 0.073697
v 0.171386 -0.506933 0.083196
v 0.170739 -0.502016 0.073697
v 0.171386 -0.506933 0.083196
v 0.171386 -0.506933 0.073697
v 0.171386 -0.506933 0.083196
v 0.170739 -0.502016 0.073697
v 0.170739 -0.502016 0.083196
v 0.168841 -0.497435 0.073697
v 0.170739 -0.502016 0.083196
v 0.170739 -0.502016 0.073697
v 0.170739 -0.502016 0.083196
v 0.168841 -0.497435 0.073697
v 0.168841 -0.497435 0.083196
v 0.165822 -0.493500 0.073697
v 0.168841 -0.497435 0.083196
v 0.168841 -0.497435 0.073697
v 0.168841 -0.497435 0.083196
v 0.165822 -0.493500 0.073697
v 0.165822 -0.493500 0.083196
v 0.165822 -0.493500 0.073697
v 0.161888 -0.490481 0.083196
v 0.165822 -0.493500 0.083196
v 0.161888 -0.490481 0.083196
v 0.165822 -0.493500 0.073697
v 0.161888 -0.490481 0.073697
v 0.133392 -0.506933 0.073697
v 0.134039 -0.502016 0.083196
v 0.134039 -0.502016 0.073697
v 0.134039 -0.502016 0.083196
v 0.133392 -0.506933 0.073697
v 0.133392 -0.506933 0.083196
v 0.134039 -0.511850 0.073697
v 0.133392 -0.506933 0.083196
v 0.133392 -0.506933 0.073697
v 0.133392 -0.506933 0.083196
v 0.134039 -0.511850 0.073697
v 0.134039 -0.511850 0.083196
v 0.134039 -0.511850 0.083196
v 0.134039 -0.502016 0.083196
v 0.133392 -0.506933 0.083196
v 0.134039 -0.502016 0.083196
v 0.134039 -0.511850 0.083196
v 0.135937 -0.516432 0.083196
v 0.134039 -0.502016 0.083196
v 0.135937 -0.516432 0.083196
v 0.135937 -0.497435 0.083196
v 0.135937 -0.497435 0.083196
v 0.135937 -0.516432 0.083196
v 0.138956 -0.520366 0.083196
v 0.135937 -0.497435 0.083196
v 0.138956 -0.520366 0.083196
v 0.138956 -0.493500 0.083196
v 0.138956 -0.493500 0.083196
v 0.138956 -0.520366 0.083196
v 0.142891 -0.523385 0.083196
v 0.138956 -0.493500 0.083196
v 0.142891 -0.523385 0.083196
v 0.142891 -0.490481 0.083196
v 0.142891 -0.490481 0.083196
v 0.142891 -0.523385 0.083196
v 0.147472 -0.525283 0.083196
v 0.142891 -0.490481 0.083196
v 0.147472 -0.525283 0.083196
v 0.147472 -0.488583 0.083196
v 0.147472 -0.488583 0.083196
v 0.147472 -0.525283 0.083196
v 0.152389 -0.525930 0.083196
v 0.147472 -0.488583 0.083196
v 0.152389 -0.525930 0.083196
v 0.152389 -0.487936 0.083196
v 0.152389 -0.487936 0.083196
v 0.152389 -0.525930 0.083196
v 0.157306 -0.525283 0.083196
v 0.152389 -0.487936 0.083196
v 0.157306 -0.525283 0.083196
v 0.157306 -0.488583 0.083196
v 0.157306 -0.488583 0.083196
v 0.157306 -0.525283 0.083196
v 0.161888 -0.523385 0.083196
v 0.157306 -0.488583 0.083196
v 0.161888 -0.523385 0.083196
v 0.161888 -0.490481 0.083196
v 0.161888 -0.490481 0.083196
v 0.161888 -0.523385 0.083196
v 0.165822 -0.520366 0.083196
v 0.161888 -0.490481 0.083196
v 0.165822 -0.520366 0.083196
v 0.165822 -0.493500 0.083196
v 0.165822 -0.493500 0.083196
v 0.165822 -0.520366 0.083196
v 0.168841 -0.516432 0.083196
v 0.165822 -0.493500 0.083196
v 0.168841 -0.516432 0.083196
v 0.168841 -0.497435 0.083196
v 0.168841 -0.497435 0.083196
v 0.168841 -0.516432 0.083196
v 0.170739 -0.511850 0.083196
v 0.168841 -0.497435 0.083196
v 0.170739 -0.511850 0.083196
v 0.170739 -0.502016 0.083196
v 0.170739 -0.502016 0.083196
v 0.170739 -0.511850 0.083196
v 0.171386 -0.506933 0.083196
v 0.161888 -0.490481 0.073697
v 0.157306 -0.488583 0.083196
v 0.161888 -0.490481 0.083196
v 0.157306 -0.488583 0.083196
v 0.161888 -0.490481 0.073697
v 0.157306 -0.488583 0.073697
v 0.157306 -0.488583 0.073697
v 0.152389 -0.487936 0.083196
v 0.157306 -0.488583 0.083196
v 0.152389 -0.487936 0.083196
v 0.157306 -0.488583 0.073697
v 0.152389 -0.487936 0.073697
v 0.152389 -0.487936 0.073697
v 0.147472 -0.488583 0.083196
v 0.152389 -0.487936 0.083196
v 0.147472 -0.488583 0.083196
v 0.152389 -0.487936 0.073697
v 0.147472 -0.488583 0.073697
v 0.147472 -0.488583 0.073697
v 0.142891 -0.490481 0.083196
v 0.147472 -0.488583 0.083196
v 0.142891 -0.490481 0.083196
v 0.147472 -0.488583 0.073697
v 0.142891 -0.490481 0.073697
v 0.142891 -0.490481 0.073697
v 0.138956 -0.493500 0.083196
v 0.142891 -0.490481 0.083196
v 0.138956 -0.493500 0.083196
v 0.142891 -0.490481 0.073697
v 0.138956 -0.493500 0.073697
v 0.135937 -0.497435 0.073697
v 0.138956 -0.493500 0.083196
v 0.138956 -0.493500 0.073697
v 0.138956 -0.493500 0.083196
v 0.135937 -0.497435 0.073697
v 0.135937 -0.497435 0.083196
v 0.134039 -0.502016 0.073697
v 0.135937 -0.497435 0.083196
v 0.135937 -0.497435 0.073697
v 0.135937 -0.497435 0.083196
v 0.134039 -0.502016 0.073697
v 0.134039 -0.502016 0.083196
vt -3.040303945541382 2.375
vt -3.1055679321289062 2.5
vt -3.1055679321289062 2.375
vt -3.040303945541382 2.5
vt -1.135511040687561 2.375
vt -1.2007739543914795 2.5
vt -1.2007739543914795 2.375
vt -1.135511040687561 2.5
vt 0.7836260199546814 2.375
vt 0.8488900065422058 2.5
vt 0.7836260199546814 2.5
vt 0.8488900065422058 2.375
vt 2.712399959564209 2.375
vt 2.777662992477417 2.5
vt 2.712399959564209 2.5
vt 2.777662992477417 2.375
vt 4.454104900360107 2.375
vt 4.5193681716918945 2.5
vt 4.454104900360107 2.5
vt 4.5193681716918945 2.375
vt 5.890045166015625 2.375
vt 5.95530891418457 2.5
vt 5.890045166015625 2.5
vt 5.95530891418457 2.375
vt 6.922366142272949 2.375
vt 6.987628936767578 2.5
vt 6.922366142272949 2.5
vt 6.987628936767578 2.375
vt 7.480713844299316 2.375
vt 7.5459771156311035 2.5
vt 7.480713844299316 2.5
vt 7.5459771156311035 2.375
vt 7.592304229736328 2.375
vt 7.527040958404541 2.5
vt 7.527040958404541 2.375
vt 7.592304229736328 2.5
vt 7.123451232910156 2.375
vt 7.058187961578369 2.5
vt 7.058187961578369 2.375
vt 7.123451232910156 2.5
vt 6.171370983123779 2.375
vt 6.10610818862915 2.5
vt 6.10610818862915 2.375
vt 6.171370983123779 2.5
vt 4.800944805145264 2.375
vt 4.735682010650635 2.5
vt 4.735682010650635 2.375
vt 4.800944805145264 2.5
vt 3.1055679321289062 2.375
vt 3.040303945541382 2.5
vt 3.040303945541382 2.375
vt 3.1055679321289062 2.5
vt 1.2007739543914795 2.375
vt 1.135511040687561 2.5
vt 1.135511040687561 2.375
vt 1.2007739543914795 2.5
vt -0.8488900065422058 2.375
vt -0.7836260199546814 2.5
vt -0.8488900065422058 2.5
vt -0.7836260199546814 2.375
vt -6.10610818862915 2.375
vt -6.171370983123779 2.5
vt -6.171370983123779 2.375
vt -6.10610818862915 2.5
vt -4.735682010650635 2.375
vt -4.800944805145264 2.5
vt -4.800944805145264 2.375
vt -4.735682010650635 2.5
vt 5.008135795593262 5.435880184173584
vt 5.008135795593262 5.5652899742126465
vt 4.999618053436279 5.500585079193115
vt 5.033111095428467 5.375585079193115
vt 5.033111095428467 5.625585079193115
vt 5.072841167449951 5.323808193206787
vt 5.072841167449951 5.677361965179443
vt 5.124618053436279 5.284078121185303
vt 5.124618053436279 5.717091083526611
vt 5.184913158416748 5.259102821350098
vt 5.184913158416748 5.742065906524658
vt 5.249618053436279 5.250585079193115
vt 5.249618053436279 5.750585079193115
vt 5.3143229484558105 5.259102821350098
vt 5.3143229484558105 5.742065906524658
vt 5.374618053436279 5.284078121185303
vt 5.374618053436279 5.717091083526611
vt 5.426394939422607 5.323808193206787
vt 5.426394939422607 5.677361965179443
vt 5.466124057769775 5.375585079193115
vt 5.466124057769775 5.625585079193115
vt 5.491098880767822 5.435880184173584
vt 5.491098880767822 5.5652899742126465
vt 5.499618053436279 5.500585079193115
vt -2.777662992477417 2.375
vt -2.712399959564209 2.5
vt -2.777662992477417 2.5
vt -2.712399959564209 2.375
vt -4.5193681716918945 2.375
vt -4.454104900360107 2.5
vt -4.5193681716918945 2.5
vt -4.454104900360107 2.375
vt -5.95530891418457 2.375
vt -5.890045166015625 2.5
vt -5.95530891418457 2.5
vt -5.890045166015625 2.375
vt -6.987628936767578 2.375
vt -6.922366142272949 2.5
vt -6.987628936767578 2.5
vt -6.922366142272949 2.375
vt -7.5459771156311035 2.375
vt -7.480713844299316 2.5
vt -7.5459771156311035 2.5
vt -7.480713844299316 2.375
vt -7.527040958404541 2.375
vt -7.592304229736328 2.5
vt -7.592304229736328 2.375
vt -7.527040958404541 2.5
vt -7.058187961578369 2.375
vt -7.123451232910156 2.5
vt -7.123451232910156 2.375
vt -7.058187961578369 2.5
vn -0.8660252955903434 -0.5000001873976233 0
vn -0.9659258451755842 -0.25881897461707376 0
vn 0.8660252955903434 0.5000001873976233 0
vn 0.9659258451755842 0.25881897461707376 0
vn -0.7071067811865476 -0.7071067811865476 0
vn 0.7071067811865476 0.7071067811865476 0
vn -0.5000001873976233 -0.8660252955903434 0
vn 0.5000001873976233 0.8660252955903434 0
vn -0.25881897461707376 -0.9659258451755842 0
vn 0.25881897461707376 0.9659258451755842 0
vn 0 -1 0
vn 0 1 0
vn 0.25881897461707376 -0.9659258451755842 0
vn -0.25881897461707376 0.9659258451755842 0
vn 0.5000001873976233 -0.8660252955903434 0
vn -0.5000001873976233 0.8660252955903434 0
vn 0.7071067811865476 -0.7071067811865476 0
vn -0.7071067811865476 0.7071067811865476 0
vn 0.8660252955903434 -0.5000001873976233 0
vn -0.8660252955903434 0.5000001873976233 0
vn 0.9659258451755842 -0.25881897461707376 0
vn -0.9659258451755842 0.25881897461707376 0
vn 1 0 0
vn -1 0 0
vn 0 0 1
vn 0 0 -1
usemtl material_0_2
f 1/1/1 2/2/2 3/3/2
f 3/3/4 2/2/4 1/1/3
f 4/2/2 5/1/1 6/4/1
f 6/4/3 5/1/3 4/2/4
f 7/5/5 8/6/1 9/7/1
f 9/7/3 8/6/3 7/5/6
f 10/6/1 11/5/5 12/8/5
f 12/8/6 11/5/6 10/6/3
f 13/9/5 14/10/7 15/11/5
f 15/11/6 14/10/8 13/9/6
f 16/10/7 17/9/5 18/12/7
f 18/12/8 17/9/6 16/10/8
f 19/13/7 20/14/9 21/15/7
f 21/15/8 20/14/10 19/13/8
f 22/14/9 23/13/7 24/16/9
f 24/16/10 23/13/8 22/14/10
f 25/17/9 26/18/11 27/19/9
f 27/19/10 26/18/12 25/17/10
f 28/18/11 29/17/9 30/20/11
f 30/20/12 29/17/10 28/18/12
f 31/21/11 32/22/13 33/23/11
f 33/23/12 32/22/14 31/21/12
f 34/22/13 35/21/11 36/24/13
f 36/24/14 35/21/12 34/22/14
f 37/25/13 38/26/15 39/27/13
f 39/27/14 38/26/16 37/25/14
f 40/26/15 41/25/13 42/28/15
f 42/28/16 41/25/14 40/26/16
f 43/29/15 44/30/17 45/31/15
f 45/31/16 44/30/18 43/29/16
f 46/30/17 47/29/15 48/32/17
f 48/32/18 47/29/16 46/30/18
f 49/33/19 50/34/17 51/35/17
f 51/35/18 50/34/18 49/33/20
f 52/34/17 53/33/19 54/36/19
f 54/36/20 53/33/20 52/34/18
f 55/37/21 56/38/19 57/39/19
f 57/39/20 56/38/20 55/37/22
f 58/38/19 59/37/21 60/40/21
f 60/40/22 59/37/22 58/38/20
f 61/41/23 62/42/21 63/43/21
f 63/43/22 62/42/22 61/41/24
f 64/42/21 65/41/23 66/44/23
f 66/44/24 65/41/24 64/42/22
f 67/45/4 68/46/23 69/47/23
f 69/47/24 68/46/24 67/45/2
f 70/46/23 71/45/4 72/48/4
f 72/48/2 71/45/2 70/46/24
f 73/49/3 74/50/4 75/51/4
f 75/51/2 74/50/2 73/49/1
f 76/50/4 77/49/3 78/52/3
f 78/52/1 77/49/1 76/50/2
f 79/53/6 80/54/3 81/55/3
f 81/55/1 80/54/1 79/53/5
f 82/54/3 83/53/6 84/56/6
f 84/56/5 83/53/5 82/54/1
f 85/57/6 86/58/8 87/59/6
f 87/59/5 86/58/7 85/57/5
f 88/58/8 89/57/6 90/60/8
f 90/60/7 89/57/5 88/58/7
f 91/61/24 92/62/22 93/63/22
f 93/63/21 92/62/21 91/61/23
f 94/62/22 95/61/24 96/64/24
f 96/64/23 95/61/23 94/62/21
f 97/65/2 98/66/24 99/67/24
f 99/67/23 98/66/23 97/65/4
f 100/66/24 101/65/2 102/68/2
f 102/68/4 101/65/4 100/66/23
f 103/69/25 104/70/25 105/71/25
f 105/71/26 104/70/26 103/69/26
f 106/70/25 107/69/25 108/72/25
f 108/72/26 107/69/26 106/70/26
f 109/70/25 110/72/25 111/73/25
f 111/73/26 110/72/26 109/70/26
f 112/73/25 113/72/25 114/74/25
f 114/74/26 113/72/26 112/73/26
f 115/73/25 116/74/25 117/75/25
f 117/75/26 116/74/26 115/73/26
f 118/75/25 119/74/25 120/76/25
f 120/76/26 119/74/26 118/75/26
f 121/75/25 122/76/25 123/77/25
f 123/77/26 122/76/26 121/75/26
f 124/77/25 125/76/25 126/78/25
f 126/78/26 125/76/26 124/77/26
f 127/77/25 128/78/25 129/79/25
f 129/79/26 128/78/26 127/77/26
f 130/79/25 131/78/25 132/80/25
f 132/80/26 131/78/26 130/79/26
f 133/79/25 134/80/25 135/81/25
f 135/81/26 134/80/26 133/79/26
f 136/81/25 137/80/25 138/82/25
f 138/82/26 137/80/26 136/81/26
f 139/81/25 140/82/25 141/83/25
f 141/83/26 140/82/26 139/81/26
f 142/83/25 143/82/25 144/84/25
f 144/84/26 143/82/26 142/83/26
f 145/83/25 146/84/25 147/85/25
f 147/85/26 146/84/26 145/83/26
f 148/85/25 149/84/25 150/86/25
f 150/86/26 149/84/26 148/85/26
f 151/85/25 152/86/25 153/87/25
f 153/87/26 152/86/26 151/85/26
f 154/87/25 155/86/25 156/88/25
f 156/88/26 155/86/26 154/87/26
f 157/87/25 158/88/25 159/89/25
f 159/89/26 158/88/26 157/87/26
f 160/89/25 161/88/25 162/90/25
f 162/90/26 161/88/26 160/89/26
f 163/89/25 164/90/25 165/91/25
f 165/91/26 164/90/26 163/89/26
f 166/91/25 167/90/25 168/92/25
f 168/92/26 167/90/26 166/91/26
f 169/93/8 170/94/10 171/95/8
f 171/95/7 170/94/9 169/93/7
f 172/94/10 173/93/8 174/96/10
f 174/96/9 173/93/7 172/94/9
f 175/97/10 176/98/12 177/99/10
f 177/99/9 176/98/11 175/97/9
f 178/98/12 179/97/10 180/100/12
f 180/100/11 179/97/9 178/98/11
f 181/101/12 182/102/14 183/103/12
f 183/103/11 182/102/13 181/101/11
f 184/102/14 185/101/12 186/104/14
f 186/104/13 185/101/11 184/102/13
f 187/105/14 188/106/16 189/107/14
f 189/107/13 188/106/15 187/105/13
f 190/106/16 191/105/14 192/108/16
f 192/108/15 191/105/13 190/106/15
f 193/109/16 194/110/18 195/111/16
f 195/111/15 194/110/17 193/109/15
f 196/110/18 197/109/16 198/112/18
f 198/112/17 197/109/15 196/110/17
f 199/113/20 200/114/18 201/115/18
f 201/115/17 200/114/17 199/113/19
f 202/114/18 203/113/20 204/116/20
f 204/116/19 203/113/19 202/114/17
f 205/117/22 206/118/20 207/119/20
f 207/119/19 206/118/19 205/117/21
f 208/118/20 209/117/22 210/120/22
f 210/120/21 209/117/21 208/118/19
