# SSTK version 0.8.0
# 35
mtllib original-35.mtl
o 3dw.61c6c6a47e5b9d34496c7671bf276db5/Model/distancia1/distancia/mesh1/mesh1-geometry/material_2/component_8#mesh1-geometry
v -0.188237 -0.117825 0.073697
v -0.189532 -0.107991 0.083196
v -0.189532 -0.107991 0.073697
v -0.189532 -0.107991 0.083196
v -0.188237 -0.117825 0.073697
v -0.188237 -0.117825 0.083196
v -0.184442 -0.126989 0.073697
v -0.188237 -0.117825 0.083196
v -0.188237 -0.117825 0.073697
v -0.188237 -0.117825 0.083196
v -0.184442 -0.126989 0.073697
v -0.184442 -0.126989 0.083196
v -0.178404 -0.134858 0.073697
v -0.184442 -0.126989 0.083196
v -0.184442 -0.126989 0.073697
v -0.184442 -0.126989 0.083196
v -0.178404 -0.134858 0.073697
v -0.178404 -0.134858 0.083196
v -0.178404 -0.134858 0.073697
v -0.170535 -0.140896 0.083196
v -0.178404 -0.134858 0.083196
v -0.170535 -0.140896 0.083196
v -0.178404 -0.134858 0.073697
v -0.170535 -0.140896 0.073697
v -0.170535 -0.140896 0.073697
v -0.161371 -0.144691 0.083196
v -0.170535 -0.140896 0.083196
v -0.161371 -0.144691 0.083196
v -0.170535 -0.140896 0.073697
v -0.161371 -0.144691 0.073697
v -0.184442 -0.088994 0.073697
v -0.178404 -0.081125 0.083196
v -0.178404 -0.081125 0.073697
v -0.178404 -0.081125 0.083196
v -0.184442 -0.088994 0.073697
v -0.184442 -0.088994 0.083196
v -0.188237 -0.098158 0.073697
v -0.184442 -0.088994 0.083196
v -0.184442 -0.088994 0.073697
v -0.184442 -0.088994 0.083196
v -0.188237 -0.098158 0.073697
v -0.188237 -0.098158 0.083196
v -0.189532 -0.107991 0.073697
v -0.188237 -0.098158 0.083196
v -0.188237 -0.098158 0.073697
v -0.188237 -0.098158 0.083196
v -0.189532 -0.107991 0.073697
v -0.189532 -0.107991 0.083196
v -0.188237 -0.117825 0.083196
v -0.188237 -0.098158 0.083196
v -0.189532 -0.107991 0.083196
v -0.188237 -0.098158 0.083196
v -0.188237 -0.117825 0.083196
v -0.184442 -0.126989 0.083196
v -0.188237 -0.098158 0.083196
v -0.184442 -0.126989 0.083196
v -0.184442 -0.088994 0.083196
v -0.184442 -0.088994 0.083196
v -0.184442 -0.126989 0.083196
v -0.178404 -0.134858 0.083196
v -0.184442 -0.088994 0.083196
v -0.178404 -0.134858 0.083196
v -0.178404 -0.081125 0.083196
v -0.178404 -0.081125 0.083196
v -0.178404 -0.134858 0.083196
v -0.170535 -0.140896 0.083196
v -0.178404 -0.081125 0.083196
v -0.170535 -0.140896 0.083196
v -0.170535 -0.075087 0.083196
v -0.170535 -0.075087 0.083196
v -0.170535 -0.140896 0.083196
v -0.161371 -0.144691 0.083196
v -0.170535 -0.075087 0.083196
v -0.161371 -0.144691 0.083196
v -0.161371 -0.071292 0.083196
v -0.161371 -0.071292 0.083196
v -0.161371 -0.144691 0.083196
v -0.151537 -0.145986 0.083196
v -0.161371 -0.144691 0.073697
v -0.151537 -0.145986 0.083196
v -0.161371 -0.144691 0.083196
v -0.151537 -0.145986 0.083196
v -0.161371 -0.144691 0.073697
v -0.151537 -0.145986 0.073697
v -0.151537 -0.145986 0.073697
v -0.141704 -0.144691 0.083196
v -0.151537 -0.145986 0.083196
v -0.141704 -0.144691 0.083196
v -0.151537 -0.145986 0.073697
v -0.141704 -0.144691 0.073697
v -0.141704 -0.144691 0.073697
v -0.132540 -0.140896 0.083196
v -0.141704 -0.144691 0.083196
v -0.132540 -0.140896 0.083196
v -0.141704 -0.144691 0.073697
v -0.132540 -0.140896 0.073697
v -0.132540 -0.140896 0.073697
v -0.124671 -0.134858 0.083196
v -0.132540 -0.140896 0.083196
v -0.124671 -0.134858 0.083196
v -0.132540 -0.140896 0.073697
v -0.124671 -0.134858 0.073697
v -0.118633 -0.126989 0.073697
v -0.124671 -0.134858 0.083196
v -0.124671 -0.134858 0.073697
v -0.124671 -0.134858 0.083196
v -0.118633 -0.126989 0.073697
v -0.118633 -0.126989 0.083196
v -0.114838 -0.117825 0.073697
v -0.118633 -0.126989 0.083196
v -0.118633 -0.126989 0.073697
v -0.118633 -0.126989 0.083196
v -0.114838 -0.117825 0.073697
v -0.114838 -0.117825 0.083196
v -0.113543 -0.107991 0.073697
v -0.114838 -0.117825 0.083196
v -0.114838 -0.117825 0.073697
v -0.114838 -0.117825 0.083196
v -0.113543 -0.107991 0.073697
v -0.113543 -0.107991 0.083196
v -0.114838 -0.098158 0.073697
v -0.113543 -0.107991 0.083196
v -0.113543 -0.107991 0.073697
v -0.113543 -0.107991 0.083196
v -0.114838 -0.098158 0.073697
v -0.114838 -0.098158 0.083196
v -0.118633 -0.088994 0.073697
v -0.114838 -0.098158 0.083196
v -0.114838 -0.098158 0.073697
v -0.114838 -0.098158 0.083196
v -0.118633 -0.088994 0.073697
v -0.118633 -0.088994 0.083196
v -0.124671 -0.081125 0.073697
v -0.118633 -0.088994 0.083196
v -0.118633 -0.088994 0.073697
v -0.118633 -0.088994 0.083196
v -0.124671 -0.081125 0.073697
v -0.124671 -0.081125 0.083196
v -0.124671 -0.081125 0.073697
v -0.132540 -0.075087 0.083196
v -0.124671 -0.081125 0.083196
v -0.132540 -0.075087 0.083196
v -0.124671 -0.081125 0.073697
v -0.132540 -0.075087 0.073697
v -0.178404 -0.081125 0.083196
v -0.170535 -0.075087 0.073697
v -0.178404 -0.081125 0.073697
v -0.170535 -0.075087 0.073697
v -0.178404 -0.081125 0.083196
v -0.170535 -0.075087 0.083196
v -0.170535 -0.075087 0.083196
v -0.161371 -0.071292 0.073697
v -0.170535 -0.075087 0.073697
v -0.161371 -0.071292 0.073697
v -0.170535 -0.075087 0.083196
v -0.161371 -0.071292 0.083196
v -0.161371 -0.071292 0.083196
v -0.151537 -0.069997 0.073697
v -0.161371 -0.071292 0.073697
v -0.151537 -0.069997 0.073697
v -0.161371 -0.071292 0.083196
v -0.151537 -0.069997 0.083196
v -0.161371 -0.071292 0.083196
v -0.151537 -0.145986 0.083196
v -0.151537 -0.069997 0.083196
v -0.151537 -0.069997 0.083196
v -0.151537 -0.145986 0.083196
v -0.141704 -0.144691 0.083196
v -0.151537 -0.069997 0.083196
v -0.141704 -0.144691 0.083196
v -0.141704 -0.071292 0.083196
v -0.141704 -0.071292 0.083196
v -0.141704 -0.144691 0.083196
v -0.132540 -0.140896 0.083196
v -0.141704 -0.071292 0.083196
v -0.132540 -0.140896 0.083196
v -0.132540 -0.075087 0.083196
v -0.132540 -0.075087 0.083196
v -0.132540 -0.140896 0.083196
v -0.124671 -0.134858 0.083196
v -0.132540 -0.075087 0.083196
v -0.124671 -0.134858 0.083196
v -0.124671 -0.081125 0.083196
v -0.124671 -0.081125 0.083196
v -0.124671 -0.134858 0.083196
v -0.118633 -0.126989 0.083196
v -0.124671 -0.081125 0.083196
v -0.118633 -0.126989 0.083196
v -0.118633 -0.088994 0.083196
v -0.118633 -0.088994 0.083196
v -0.118633 -0.126989 0.083196
v -0.114838 -0.117825 0.083196
v -0.118633 -0.088994 0.083196
v -0.114838 -0.117825 0.083196
v -0.114838 -0.098158 0.083196
v -0.114838 -0.098158 0.083196
v -0.114838 -0.117825 0.083196
v -0.113543 -0.107991 0.083196
v -0.132540 -0.075087 0.073697
v -0.141704 -0.071292 0.083196
v -0.132540 -0.075087 0.083196
v -0.141704 -0.071292 0.083196
v -0.132540 -0.075087 0.073697
v -0.141704 -0.071292 0.073697
v -0.141704 -0.071292 0.073697
v -0.151537 -0.069997 0.083196
v -0.141704 -0.071292 0.083196
v -0.151537 -0.069997 0.083196
v -0.141704 -0.071292 0.073697
v -0.151537 -0.069997 0.073697
vt -10.430191040039062 2.375
vt -10.56071662902832 2.5
vt -10.56071662902832 2.375
vt -10.430191040039062 2.5
vt -9.388628005981445 2.375
vt -9.519153594970703 2.5
vt -9.519153594970703 2.375
vt -9.388628005981445 2.5
vt -7.702796936035156 2.375
vt -7.833323955535889 2.5
vt -7.833323955535889 2.375
vt -7.702796936035156 2.5
vt -5.618113040924072 2.375
vt -5.487586975097656 2.5
vt -5.618113040924072 2.5
vt -5.487586975097656 2.375
vt -3.0244839191436768 2.375
vt -2.89395809173584 2.5
vt -3.0244839191436768 2.5
vt -2.89395809173584 2.375
vt -9.224700927734375 2.375
vt -9.35522747039795 2.5
vt -9.35522747039795 2.375
vt -9.224700927734375 2.5
vt -10.345335960388184 2.375
vt -10.475863456726074 2.5
vt -10.475863456726074 2.375
vt -10.345335960388184 2.5
vt -10.75650691986084 2.375
vt -10.887033462524414 2.5
vt -10.887033462524414 2.375
vt -10.75650691986084 2.5
vt 0.7670369744300842 10.621174812316895
vt 0.7670369744300842 10.87999439239502
vt 0.75 10.750584602355957
vt 0.8169869780540466 10.500584602355957
vt 0.8169869780540466 11.000584602355957
vt 0.8964470028877258 10.3970308303833
vt 0.8964470028877258 11.104138374328613
vt 1 10.317571640014648
vt 1 11.183597564697266
vt 1.1205899715423584 10.267621994018555
vt 1.1205899715423584 11.233548164367676
vt 1.25 10.250584602355957
vt -0.22919000685214996 2.375
vt -0.09866400063037872 2.5
vt -0.22919000685214996 2.5
vt -0.09866400063037872 2.375
vt 2.5772759914398193 2.375
vt 2.7078020572662354 2.5
vt 2.5772759914398193 2.5
vt 2.7078020572662354 2.375
vt 5.203657150268555 2.375
vt 5.334183216094971 2.5
vt 5.203657150268555 2.5
vt 5.334183216094971 2.375
vt 7.470970153808594 2.375
vt 7.60149621963501 2.5
vt 7.470970153808594 2.5
vt 7.60149621963501 2.375
vt 9.35522747039795 2.375
vt 9.224700927734375 2.5
vt 9.224700927734375 2.375
vt 9.35522747039795 2.5
vt 10.475863456726074 2.375
vt 10.345335960388184 2.5
vt 10.345335960388184 2.375
vt 10.475863456726074 2.5
vt 10.887033462524414 2.375
vt 10.75650691986084 2.5
vt 10.75650691986084 2.375
vt 10.887033462524414 2.5
vt 10.56071662902832 2.375
vt 10.430191040039062 2.5
vt 10.430191040039062 2.375
vt 10.56071662902832 2.5
vt 9.519153594970703 2.375
vt 9.388628005981445 2.5
vt 9.388628005981445 2.375
vt 9.519153594970703 2.5
vt 7.833323955535889 2.375
vt 7.702796936035156 2.5
vt 7.702796936035156 2.375
vt 7.833323955535889 2.5
vt 5.487586975097656 2.375
vt 5.618113040924072 2.5
vt 5.487586975097656 2.5
vt 5.618113040924072 2.375
vt -7.470970153808594 2.5
vt -7.60149621963501 2.375
vt -7.470970153808594 2.375
vt -7.60149621963501 2.5
vt -5.203657150268555 2.5
vt -5.334183216094971 2.375
vt -5.203657150268555 2.375
vt -5.334183216094971 2.5
vt -2.5772759914398193 2.5
vt -2.7078020572662354 2.375
vt -2.5772759914398193 2.375
vt -2.7078020572662354 2.5
vt 1.25 11.250584602355957
vt 1.3794100284576416 10.267621994018555
vt 1.3794100284576416 11.233548164367676
vt 1.5 10.317571640014648
vt 1.5 11.183597564697266
vt 1.603553056716919 10.3970308303833
vt 1.603553056716919 11.104138374328613
vt 1.6830129623413086 10.500584602355957
vt 1.6830129623413086 11.000584602355957
vt 1.732962965965271 10.621174812316895
vt 1.732962965965271 10.87999439239502
vt 1.75 10.750584602355957
vt 2.89395809173584 2.375
vt 3.0244839191436768 2.5
vt 2.89395809173584 2.5
vt 3.0244839191436768 2.375
vt 0.09866400063037872 2.375
vt 0.22919000685214996 2.5
vt 0.09866400063037872 2.5
vt 0.22919000685214996 2.375
vn -0.9659258451755842 -0.25881897461707376 0
vn -1 0 0
vn 0.9659258451755842 0.25881897461707376 0
vn 1 0 0
vn -0.8660252955903434 -0.5000001873976233 0
vn 0.8660252955903434 0.5000001873976233 0
vn -0.7071067811865476 -0.7071067811865476 0
vn 0.7071067811865476 0.7071067811865476 0
vn -0.5000001873976233 -0.8660252955903434 0
vn 0.5000001873976233 0.8660252955903434 0
vn -0.25881897461707376 -0.9659258451755842 0
vn 0.25881897461707376 0.9659258451755842 0
vn -0.8660252955903434 0.5000001873976233 0
vn -0.7071067811865476 0.7071067811865476 0
vn 0.8660252955903434 -0.5000001873976233 0
vn 0.7071067811865476 -0.7071067811865476 0
vn -0.9659258451755842 0.25881897461707376 0
vn 0.9659258451755842 -0.25881897461707376 0
vn 0 0 1
vn 0 0 -1
vn 0 -1 0
vn 0 1 0
vn 0.25881897461707376 -0.9659258451755842 0
vn -0.25881897461707376 0.9659258451755842 0
vn 0.5000001873976233 -0.8660252955903434 0
vn -0.5000001873976233 0.8660252955903434 0
usemtl material_0_2
f 1/1/1 2/2/2 3/3/2
f 3/3/4 2/2/4 1/1/3
f 4/2/2 5/1/1 6/4/1
f 6/4/3 5/1/3 4/2/4
f 7/5/5 8/6/1 9/7/1
f 9/7/3 8/6/3 7/5/6
f 10/6/1 11/5/5 12/8/5
f 12/8/6 11/5/6 10/6/3
f 13/9/7 14/10/5 15/11/5
f 15/11/6 14/10/6 13/9/8
f 16/10/5 17/9/7 18/12/7
f 18/12/8 17/9/8 16/10/6
f 19/13/7 20/14/9 21/15/7
f 21/15/8 20/14/10 19/13/8
f 22/14/9 23/13/7 24/16/9
f 24/16/10 23/13/8 22/14/10
f 25/17/9 26/18/11 27/19/9
f 27/19/10 26/18/12 25/17/10
f 28/18/11 29/17/9 30/20/11
f 30/20/12 29/17/10 28/18/12
f 31/21/13 32/22/14 33/23/14
f 33/23/16 32/22/16 31/21/15
f 34/22/14 35/21/13 36/24/13
f 36/24/15 35/21/15 34/22/16
f 37/25/17 38/26/13 39/27/13
f 39/27/15 38/26/15 37/25/18
f 40/26/13 41/25/17 42/28/17
f 42/28/18 41/25/18 40/26/15
f 43/29/2 44/30/17 45/31/17
f 45/31/18 44/30/18 43/29/4
f 46/30/17 47/29/2 48/32/2
f 48/32/4 47/29/4 46/30/18
f 49/33/19 50/34/19 51/35/19
f 51/35/20 50/34/20 49/33/20
f 52/34/19 53/33/19 54/36/19
f 54/36/20 53/33/20 52/34/20
f 55/34/19 56/36/19 57/37/19
f 57/37/20 56/36/20 55/34/20
f 58/37/19 59/36/19 60/38/19
f 60/38/20 59/36/20 58/37/20
f 61/37/19 62/38/19 63/39/19
f 63/39/20 62/38/20 61/37/20
f 64/39/19 65/38/19 66/40/19
f 66/40/20 65/38/20 64/39/20
f 67/39/19 68/40/19 69/41/19
f 69/41/20 68/40/20 67/39/20
f 70/41/19 71/40/19 72/42/19
f 72/42/20 71/40/20 70/41/20
f 73/41/19 74/42/19 75/43/19
f 75/43/20 74/42/20 73/41/20
f 76/43/19 77/42/19 78/44/19
f 78/44/20 77/42/20 76/43/20
f 79/45/11 80/46/21 81/47/11
f 81/47/12 80/46/22 79/45/12
f 82/46/21 83/45/11 84/48/21
f 84/48/22 83/45/12 82/46/22
f 85/49/21 86/50/23 87/51/21
f 87/51/22 86/50/24 85/49/22
f 88/50/23 89/49/21 90/52/23
f 90/52/24 89/49/22 88/50/24
f 91/53/23 92/54/25 93/55/23
f 93/55/24 92/54/26 91/53/24
f 94/54/25 95/53/23 96/56/25
f 96/56/26 95/53/24 94/54/26
f 97/57/25 98/58/16 99/59/25
f 99/59/26 98/58/14 97/57/26
f 100/58/16 101/57/25 102/60/16
f 102/60/14 101/57/26 100/58/14
f 103/61/15 104/62/16 105/63/16
f 105/63/14 104/62/14 103/61/13
f 106/62/16 107/61/15 108/64/15
f 108/64/13 107/61/13 106/62/14
f 109/65/18 110/66/15 111/67/15
f 111/67/13 110/66/13 109/65/17
f 112/66/15 113/65/18 114/68/18
f 114/68/17 113/65/17 112/66/13
f 115/69/4 116/70/18 117/71/18
f 117/71/17 116/70/17 115/69/2
f 118/70/18 119/69/4 120/72/4
f 120/72/2 119/69/2 118/70/17
f 121/73/3 122/74/4 123/75/4
f 123/75/2 122/74/2 121/73/1
f 124/74/4 125/73/3 126/76/3
f 126/76/1 125/73/1 124/74/2
f 127/77/6 128/78/3 129/79/3
f 129/79/1 128/78/1 127/77/5
f 130/78/3 131/77/6 132/80/6
f 132/80/5 131/77/5 130/78/1
f 133/81/8 134/82/6 135/83/6
f 135/83/5 134/82/5 133/81/7
f 136/82/6 137/81/8 138/84/8
f 138/84/7 137/81/7 136/82/5
f 139/85/8 140/86/10 141/87/8
f 141/87/7 140/86/9 139/85/7
f 142/86/10 143/85/8 144/88/10
f 144/88/9 143/85/7 142/86/9
f 145/89/14 146/90/26 147/91/14
f 147/91/16 146/90/25 145/89/16
f 148/90/26 149/89/14 150/92/26
f 150/92/25 149/89/16 148/90/25
f 151/93/26 152/94/24 153/95/26
f 153/95/25 152/94/23 151/93/25
f 154/94/24 155/93/26 156/96/24
f 156/96/23 155/93/25 154/94/23
f 157/97/24 158/98/22 159/99/24
f 159/99/23 158/98/21 157/97/23
f 160/98/22 161/97/24 162/100/22
f 162/100/21 161/97/23 160/98/21
f 163/43/19 164/44/19 165/101/19
f 165/101/20 164/44/20 163/43/20
f 166/101/19 167/44/19 168/102/19
f 168/102/20 167/44/20 166/101/20
f 169/101/19 170/102/19 171/103/19
f 171/103/20 170/102/20 169/101/20
f 172/103/19 173/102/19 174/104/19
f 174/104/20 173/102/20 172/103/20
f 175/103/19 176/104/19 177/105/19
f 177/105/20 176/104/20 175/103/20
f 178/105/19 179/104/19 180/106/19
f 180/106/20 179/104/20 178/105/20
f 181/105/19 182/106/19 183/107/19
f 183/107/20 182/106/20 181/105/20
f 184/107/19 185/106/19 186/108/19
f 186/108/20 185/106/20 184/107/20
f 187/107/19 188/108/19 189/109/19
f 189/109/20 188/108/20 187/107/20
f 190/109/19 191/108/19 192/110/19
f 192/110/20 191/108/20 190/109/20
f 193/109/19 194/110/19 195/111/19
f 195/111/20 194/110/20 193/109/20
f 196/111/19 197/110/19 198/112/19
f 198/112/20 197/110/20 196/111/20
f 199/113/10 200/114/12 201/115/10
f 201/115/9 200/114/11 199/113/9
f 202/114/12 203/113/10 204/116/12
f 204/116/11 203/113/9 202/114/11
f 205/117/12 206/118/22 207/119/12
f 207/119/11 206/118/21 205/117/11
f 208/118/22 209/117/12 210/120/22
f 210/120/21 209/117/11 208/118/21
