# SSTK version 0.8.0
# 47
mtllib original-47.mtl
o 3dw.61c6c6a47e5b9d34496c7671bf276db5/Model/distancia1/distancia/mesh1/mesh1-geometry/material_2/component_20#mesh1-geometry
v -0.083123 0.518873 0.073697
v -0.086919 0.528036 0.083196
v -0.086919 0.528036 0.073697
v -0.086919 0.528036 0.083196
v -0.083123 0.518873 0.073697
v -0.083123 0.518873 0.083196
v -0.077085 0.511004 0.073697
v -0.083123 0.518873 0.083196
v -0.083123 0.518873 0.073697
v -0.083123 0.518873 0.083196
v -0.077085 0.511004 0.073697
v -0.077085 0.511004 0.083196
v -0.077085 0.511004 0.073697
v -0.069216 0.504966 0.083196
v -0.077085 0.511004 0.083196
v -0.069216 0.504966 0.083196
v -0.077085 0.511004 0.073697
v -0.069216 0.504966 0.073697
v -0.069216 0.504966 0.073697
v -0.060053 0.501170 0.083196
v -0.069216 0.504966 0.083196
v -0.060053 0.501170 0.083196
v -0.069216 0.504966 0.073697
v -0.060053 0.501170 0.073697
v -0.060053 0.501170 0.073697
v -0.050219 0.499875 0.083196
v -0.060053 0.501170 0.083196
v -0.050219 0.499875 0.083196
v -0.060053 0.501170 0.073697
v -0.050219 0.499875 0.073697
v -0.050219 0.499875 0.073697
v -0.040385 0.501170 0.083196
v -0.050219 0.499875 0.083196
v -0.040385 0.501170 0.083196
v -0.050219 0.499875 0.073697
v -0.040385 0.501170 0.073697
v -0.040385 0.501170 0.073697
v -0.031222 0.504966 0.083196
v -0.040385 0.501170 0.083196
v -0.031222 0.504966 0.083196
v -0.040385 0.501170 0.073697
v -0.031222 0.504966 0.073697
v -0.031222 0.504966 0.073697
v -0.023353 0.511004 0.083196
v -0.031222 0.504966 0.083196
v -0.023353 0.511004 0.083196
v -0.031222 0.504966 0.073697
v -0.023353 0.511004 0.073697
v -0.017315 0.518873 0.073697
v -0.023353 0.511004 0.083196
v -0.023353 0.511004 0.073697
v -0.023353 0.511004 0.083196
v -0.017315 0.518873 0.073697
v -0.017315 0.518873 0.083196
v -0.013519 0.528036 0.073697
v -0.017315 0.518873 0.083196
v -0.017315 0.518873 0.073697
v -0.017315 0.518873 0.083196
v -0.013519 0.528036 0.073697
v -0.013519 0.528036 0.083196
v -0.012224 0.537870 0.073697
v -0.013519 0.528036 0.083196
v -0.013519 0.528036 0.073697
v -0.013519 0.528036 0.083196
v -0.012224 0.537870 0.073697
v -0.012224 0.537870 0.083196
v -0.013519 0.547704 0.073697
v -0.012224 0.537870 0.083196
v -0.012224 0.537870 0.073697
v -0.012224 0.537870 0.083196
v -0.013519 0.547704 0.073697
v -0.013519 0.547704 0.083196
v -0.017315 0.556867 0.073697
v -0.013519 0.547704 0.083196
v -0.013519 0.547704 0.073697
v -0.013519 0.547704 0.083196
v -0.017315 0.556867 0.073697
v -0.017315 0.556867 0.083196
v -0.023353 0.564736 0.073697
v -0.017315 0.556867 0.083196
v -0.017315 0.556867 0.073697
v -0.017315 0.556867 0.083196
v -0.023353 0.564736 0.073697
v -0.023353 0.564736 0.083196
v -0.023353 0.564736 0.073697
v -0.031222 0.570774 0.083196
v -0.023353 0.564736 0.083196
v -0.031222 0.570774 0.083196
v -0.023353 0.564736 0.073697
v -0.031222 0.570774 0.073697
v -0.088213 0.537870 0.073697
v -0.086919 0.547704 0.083196
v -0.086919 0.547704 0.073697
v -0.086919 0.547704 0.083196
v -0.088213 0.537870 0.073697
v -0.088213 0.537870 0.083196
v -0.086919 0.528036 0.073697
v -0.088213 0.537870 0.083196
v -0.088213 0.537870 0.073697
v -0.088213 0.537870 0.083196
v -0.086919 0.528036 0.073697
v -0.086919 0.528036 0.083196
v -0.086919 0.528036 0.083196
v -0.086919 0.547704 0.083196
v -0.088213 0.537870 0.083196
v -0.086919 0.547704 0.083196
v -0.086919 0.528036 0.083196
v -0.083123 0.518873 0.083196
v -0.086919 0.547704 0.083196
v -0.083123 0.518873 0.083196
v -0.083123 0.556867 0.083196
v -0.083123 0.556867 0.083196
v -0.083123 0.518873 0.083196
v -0.077085 0.511004 0.083196
v -0.083123 0.556867 0.083196
v -0.077085 0.511004 0.083196
v -0.077085 0.564736 0.083196
v -0.077085 0.564736 0.083196
v -0.077085 0.511004 0.083196
v -0.069216 0.504966 0.083196
v -0.077085 0.564736 0.083196
v -0.069216 0.504966 0.083196
v -0.069216 0.570774 0.083196
v -0.069216 0.570774 0.083196
v -0.069216 0.504966 0.083196
v -0.060053 0.501170 0.083196
v -0.069216 0.570774 0.083196
v -0.060053 0.501170 0.083196
v -0.060053 0.574570 0.083196
v -0.060053 0.574570 0.083196
v -0.060053 0.501170 0.083196
v -0.050219 0.499875 0.083196
v -0.060053 0.574570 0.083196
v -0.050219 0.499875 0.083196
v -0.050219 0.575864 0.083196
v -0.050219 0.575864 0.083196
v -0.050219 0.499875 0.083196
v -0.040385 0.501170 0.083196
v -0.050219 0.575864 0.083196
v -0.040385 0.501170 0.083196
v -0.040385 0.574570 0.083196
v -0.040385 0.574570 0.083196
v -0.040385 0.501170 0.083196
v -0.031222 0.504966 0.083196
v -0.040385 0.574570 0.083196
v -0.031222 0.504966 0.083196
v -0.031222 0.570774 0.083196
v -0.031222 0.570774 0.083196
v -0.031222 0.504966 0.083196
v -0.023353 0.511004 0.083196
v -0.031222 0.570774 0.083196
v -0.023353 0.511004 0.083196
v -0.023353 0.564736 0.083196
v -0.023353 0.564736 0.083196
v -0.023353 0.511004 0.083196
v -0.017315 0.518873 0.083196
v -0.023353 0.564736 0.083196
v -0.017315 0.518873 0.083196
v -0.017315 0.556867 0.083196
v -0.017315 0.556867 0.083196
v -0.017315 0.518873 0.083196
v -0.013519 0.528036 0.083196
v -0.017315 0.556867 0.083196
v -0.013519 0.528036 0.083196
v -0.013519 0.547704 0.083196
v -0.013519 0.547704 0.083196
v -0.013519 0.528036 0.083196
v -0.012224 0.537870 0.083196
v -0.031222 0.570774 0.073697
v -0.040385 0.574570 0.083196
v -0.031222 0.570774 0.083196
v -0.040385 0.574570 0.083196
v -0.031222 0.570774 0.073697
v -0.040385 0.574570 0.073697
v -0.040385 0.574570 0.073697
v -0.050219 0.575864 0.083196
v -0.040385 0.574570 0.083196
v -0.050219 0.575864 0.083196
v -0.040385 0.574570 0.073697
v -0.050219 0.575864 0.073697
v -0.050219 0.575864 0.073697
v -0.060053 0.574570 0.083196
v -0.050219 0.575864 0.083196
v -0.060053 0.574570 0.083196
v -0.050219 0.575864 0.073697
v -0.060053 0.574570 0.073697
v -0.060053 0.574570 0.073697
v -0.069216 0.570774 0.083196
v -0.060053 0.574570 0.083196
v -0.069216 0.570774 0.083196
v -0.060053 0.574570 0.073697
v -0.069216 0.570774 0.073697
v -0.069216 0.570774 0.073697
v -0.077085 0.564736 0.083196
v -0.069216 0.570774 0.083196
v -0.077085 0.564736 0.083196
v -0.069216 0.570774 0.073697
v -0.077085 0.564736 0.073697
v -0.083123 0.556867 0.073697
v -0.077085 0.564736 0.083196
v -0.077085 0.564736 0.073697
v -0.077085 0.564736 0.083196
v -0.083123 0.556867 0.073697
v -0.083123 0.556867 0.083196
v -0.086919 0.547704 0.073697
v -0.083123 0.556867 0.083196
v -0.083123 0.556867 0.073697
v -0.083123 0.556867 0.083196
v -0.086919 0.547704 0.073697
v -0.086919 0.547704 0.083196
vt -16.730819702148438 2.375
vt -16.861345291137695 2.5
vt -16.861345291137695 2.375
vt -16.730819702148438 2.5
vt -13.6341552734375 2.375
vt -13.764680862426758 2.5
vt -13.764680862426758 2.375
vt -13.6341552734375 2.5
vt -9.734423637390137 2.375
vt -9.603898048400879 2.5
vt -9.734423637390137 2.5
vt -9.603898048400879 2.375
vt -5.045229911804199 2.375
vt -4.914703845977783 2.5
vt -5.045229911804199 2.5
vt -4.914703845977783 2.375
vt -0.016659999266266823 2.375
vt 0.11386600136756897 2.5
vt -0.016659999266266823 2.5
vt 0.11386600136756897 2.375
vt 5.008598804473877 2.375
vt 5.139124870300293 2.5
vt 5.008598804473877 2.5
vt 5.139124870300293 2.375
vt 9.688081741333008 2.375
vt 9.818608283996582 2.5
vt 9.688081741333008 2.5
vt 9.818608283996582 2.375
vt 13.70289134979248 2.375
vt 13.833416938781738 2.5
vt 13.70289134979248 2.5
vt 13.833416938781738 2.375
vt 16.909948348999023 2.375
vt 16.779422760009766 2.5
vt 16.779422760009766 2.375
vt 16.909948348999023 2.5
vt 18.838542938232422 2.375
vt 18.708017349243164 2.5
vt 18.708017349243164 2.375
vt 18.838542938232422 2.5
vt 19.487768173217773 2.375
vt 19.357242584228516 2.5
vt 19.357242584228516 2.375
vt 19.487768173217773 2.5
vt 18.813383102416992 2.375
vt 18.682857513427734 2.5
vt 18.682857513427734 2.375
vt 18.813383102416992 2.5
vt 16.861345291137695 2.375
vt 16.730819702148438 2.5
vt 16.730819702148438 2.375
vt 16.861345291137695 2.5
vt 13.764680862426758 2.375
vt 13.6341552734375 2.5
vt 13.6341552734375 2.375
vt 13.764680862426758 2.5
vt 9.603898048400879 2.375
vt 9.734423637390137 2.5
vt 9.603898048400879 2.5
vt 9.734423637390137 2.375
vt -19.357242584228516 2.375
vt -19.487768173217773 2.5
vt -19.487768173217773 2.375
vt -19.357242584228516 2.5
vt -18.682857513427734 2.375
vt -18.813383102416992 2.5
vt -18.813383102416992 2.375
vt -18.682857513427734 2.5
vt 2.100369930267334 19.120590209960938
vt 2.100369930267334 19.379409790039062
vt 2.0833330154418945 19.25
vt 2.1503210067749023 19
vt 2.1503210067749023 19.5
vt 2.2297799587249756 18.896446228027344
vt 2.2297799587249756 19.603553771972656
vt 2.3333330154418945 18.816986083984375
vt 2.3333330154418945 19.683013916015625
vt 2.4539239406585693 18.76703643798828
vt 2.4539239406585693 19.73296356201172
vt 2.5833330154418945 18.75
vt 2.5833330154418945 19.75
vt 2.712743043899536 18.76703643798828
vt 2.712743043899536 19.73296356201172
vt 2.8333330154418945 18.816986083984375
vt 2.8333330154418945 19.683013916015625
vt 2.93688702583313 18.896446228027344
vt 2.93688702583313 19.603553771972656
vt 3.016345977783203 19
vt 3.016345977783203 19.5
vt 3.066296100616455 19.120590209960938
vt 3.066296100616455 19.379409790039062
vt 3.0833330154418945 19.25
vt 4.914703845977783 2.375
vt 5.045229911804199 2.5
vt 4.914703845977783 2.5
vt 5.045229911804199 2.375
vt -0.11386600136756897 2.375
vt 0.016659999266266823 2.5
vt -0.11386600136756897 2.5
vt 0.016659999266266823 2.375
vt -5.139124870300293 2.375
vt -5.008598804473877 2.5
vt -5.139124870300293 2.5
vt -5.008598804473877 2.375
vt -9.818608283996582 2.375
vt -9.688081741333008 2.5
vt -9.818608283996582 2.5
vt -9.688081741333008 2.375
vt -13.833416938781738 2.375
vt -13.70289134979248 2.5
vt -13.833416938781738 2.5
vt -13.70289134979248 2.375
vt -16.779422760009766 2.375
vt -16.909948348999023 2.5
vt -16.909948348999023 2.375
vt -16.779422760009766 2.5
vt -18.708017349243164 2.375
vt -18.838542938232422 2.5
vt -18.838542938232422 2.375
vt -18.708017349243164 2.5
vn -0.9238797479109917 -0.38268291234378676 0
vn 0.9238797479109917 0.38268291234378676 0
vn -0.7933534231507683 -0.6087613210240592 0
vn 0.7933534231507683 0.6087613210240592 0
vn -0.6087613210240592 -0.7933534231507683 0
vn 0.6087613210240592 0.7933534231507683 0
vn -0.38268291234378676 -0.9238797479109917 0
vn 0.38268291234378676 0.9238797479109917 0
vn -0.13052599081182487 -0.9914448878896857 0
vn 0.13052599081182487 0.9914448878896857 0
vn 0.13052599081182487 -0.9914448878896857 0
vn -0.13052599081182487 0.9914448878896857 0
vn 0.38268291234378676 -0.9238797479109917 0
vn -0.38268291234378676 0.9238797479109917 0
vn 0.6087613210240592 -0.7933534231507683 0
vn -0.6087613210240592 0.7933534231507683 0
vn 0.7933534231507683 -0.6087613210240592 0
vn -0.7933534231507683 0.6087613210240592 0
vn 0.9238797479109917 -0.38268291234378676 0
vn -0.9238797479109917 0.38268291234378676 0
vn 0.9914448878896857 -0.13052599081182487 0
vn -0.9914448878896857 0.13052599081182487 0
vn 0.9914448878896857 0.13052599081182487 0
vn -0.9914448878896857 -0.13052599081182487 0
vn 0 0 1
vn 0 0 -1
usemtl material_0_2
f 1/1/1 2/2/1 3/3/1
f 3/3/2 2/2/2 1/1/2
f 4/2/1 5/1/1 6/4/1
f 6/4/2 5/1/2 4/2/2
f 7/5/3 8/6/3 9/7/3
f 9/7/4 8/6/4 7/5/4
f 10/6/3 11/5/3 12/8/3
f 12/8/4 11/5/4 10/6/4
f 13/9/5 14/10/5 15/11/5
f 15/11/6 14/10/6 13/9/6
f 16/10/5 17/9/5 18/12/5
f 18/12/6 17/9/6 16/10/6
f 19/13/7 20/14/7 21/15/7
f 21/15/8 20/14/8 19/13/8
f 22/14/7 23/13/7 24/16/7
f 24/16/8 23/13/8 22/14/8
f 25/17/9 26/18/9 27/19/9
f 27/19/10 26/18/10 25/17/10
f 28/18/9 29/17/9 30/20/9
f 30/20/10 29/17/10 28/18/10
f 31/21/11 32/22/11 33/23/11
f 33/23/12 32/22/12 31/21/12
f 34/22/11 35/21/11 36/24/11
f 36/24/12 35/21/12 34/22/12
f 37/25/13 38/26/13 39/27/13
f 39/27/14 38/26/14 37/25/14
f 40/26/13 41/25/13 42/28/13
f 42/28/14 41/25/14 40/26/14
f 43/29/15 44/30/15 45/31/15
f 45/31/16 44/30/16 43/29/16
f 46/30/15 47/29/15 48/32/15
f 48/32/16 47/29/16 46/30/16
f 49/33/17 50/34/17 51/35/17
f 51/35/18 50/34/18 49/33/18
f 52/34/17 53/33/17 54/36/17
f 54/36/18 53/33/18 52/34/18
f 55/37/19 56/38/19 57/39/19
f 57/39/20 56/38/20 55/37/20
f 58/38/19 59/37/19 60/40/19
f 60/40/20 59/37/20 58/38/20
f 61/41/21 62/42/21 63/43/21
f 63/43/22 62/42/22 61/41/22
f 64/42/21 65/41/21 66/44/21
f 66/44/22 65/41/22 64/42/22
f 67/45/23 68/46/23 69/47/23
f 69/47/24 68/46/24 67/45/24
f 70/46/23 71/45/23 72/48/23
f 72/48/24 71/45/24 70/46/24
f 73/49/2 74/50/2 75/51/2
f 75/51/1 74/50/1 73/49/1
f 76/50/2 77/49/2 78/52/2
f 78/52/1 77/49/1 76/50/1
f 79/53/4 80/54/4 81/55/4
f 81/55/3 80/54/3 79/53/3
f 82/54/4 83/53/4 84/56/4
f 84/56/3 83/53/3 82/54/3
f 85/57/6 86/58/6 87/59/6
f 87/59/5 86/58/5 85/57/5
f 88/58/6 89/57/6 90/60/6
f 90/60/5 89/57/5 88/58/5
f 91/61/22 92/62/22 93/63/22
f 93/63/21 92/62/21 91/61/21
f 94/62/22 95/61/22 96/64/22
f 96/64/21 95/61/21 94/62/21
f 97/65/24 98/66/24 99/67/24
f 99/67/23 98/66/23 97/65/23
f 100/66/24 101/65/24 102/68/24
f 102/68/23 101/65/23 100/66/23
f 103/69/25 104/70/25 105/71/25
f 105/71/26 104/70/26 103/69/26
f 106/70/25 107/69/25 108/72/25
f 108/72/26 107/69/26 106/70/26
f 109/70/25 110/72/25 111/73/25
f 111/73/26 110/72/26 109/70/26
f 112/73/25 113/72/25 114/74/25
f 114/74/26 113/72/26 112/73/26
f 115/73/25 116/74/25 117/75/25
f 117/75/26 116/74/26 115/73/26
f 118/75/25 119/74/25 120/76/25
f 120/76/26 119/74/26 118/75/26
f 121/75/25 122/76/25 123/77/25
f 123/77/26 122/76/26 121/75/26
f 124/77/25 125/76/25 126/78/25
f 126/78/26 125/76/26 124/77/26
f 127/77/25 128/78/25 129/79/25
f 129/79/26 128/78/26 127/77/26
f 130/79/25 131/78/25 132/80/25
f 132/80/26 131/78/26 130/79/26
f 133/79/25 134/80/25 135/81/25
f 135/81/26 134/80/26 133/79/26
f 136/81/25 137/80/25 138/82/25
f 138/82/26 137/80/26 136/81/26
f 139/81/25 140/82/25 141/83/25
f 141/83/26 140/82/26 139/81/26
f 142/83/25 143/82/25 144/84/25
f 144/84/26 143/82/26 142/83/26
f 145/83/25 146/84/25 147/85/25
f 147/85/26 146/84/26 145/83/26
f 148/85/25 149/84/25 150/86/25
f 150/86/26 149/84/26 148/85/26
f 151/85/25 152/86/25 153/87/25
f 153/87/26 152/86/26 151/85/26
f 154/87/25 155/86/25 156/88/25
f 156/88/26 155/86/26 154/87/26
f 157/87/25 158/88/25 159/89/25
f 159/89/26 158/88/26 157/87/26
f 160/89/25 161/88/25 162/90/25
f 162/90/26 161/88/26 160/89/26
f 163/89/25 164/90/25 165/91/25
f 165/91/26 164/90/26 163/89/26
f 166/91/25 167/90/25 168/92/25
f 168/92/26 167/90/26 166/91/26
f 169/93/8 170/94/8 171/95/8
f 171/95/7 170/94/7 169/93/7
f 172/94/8 173/93/8 174/96/8
f 174/96/7 173/93/7 172/94/7
f 175/97/10 176/98/10 177/99/10
f 177/99/9 176/98/9 175/97/9
f 178/98/10 179/97/10 180/100/10
f 180/100/9 179/97/9 178/98/9
f 181/101/12 182/102/12 183/103/12
f 183/103/11 182/102/11 181/101/11
f 184/102/12 185/101/12 186/104/12
f 186/104/11 185/101/11 184/102/11
f 187/105/14 188/106/14 189/107/14
f 189/107/13 188/106/13 187/105/13
f 190/106/14 191/105/14 192/108/14
f 192/108/13 191/105/13 190/106/13
f 193/109/16 194/110/16 195/111/16
f 195/111/15 194/110/15 193/109/15
f 196/110/16 197/109/16 198/112/16
f 198/112/15 197/109/15 196/110/15
f 199/113/18 200/114/18 201/115/18
f 201/115/17 200/114/17 199/113/17
f 202/114/18 203/113/18 204/116/18
f 204/116/17 203/113/17 202/114/17
f 205/117/20 206/118/20 207/119/20
f 207/119/19 206/118/19 205/117/19
f 208/118/20 209/117/20 210/120/20
f 210/120/19 209/117/19 208/118/19
