# SSTK version 0.8.0
# 53
mtllib original-53.mtl
o 3dw.61c6c6a47e5b9d34496c7671bf276db5/Model/distancia1/distancia/mesh1/mesh1-geometry/material_2/component_26#mesh1-geometry
v 0.115718 -0.117825 0.073697
v 0.114424 -0.107991 0.083196
v 0.114424 -0.107991 0.073697
v 0.114424 -0.107991 0.083196
v 0.115718 -0.117825 0.073697
v 0.115718 -0.117825 0.083196
v 0.119514 -0.126989 0.073697
v 0.115718 -0.117825 0.083196
v 0.115718 -0.117825 0.073697
v 0.115718 -0.117825 0.083196
v 0.119514 -0.126989 0.073697
v 0.119514 -0.126989 0.083196
v 0.125552 -0.134858 0.073697
v 0.119514 -0.126989 0.083196
v 0.119514 -0.126989 0.073697
v 0.119514 -0.126989 0.083196
v 0.125552 -0.134858 0.073697
v 0.125552 -0.134858 0.083196
v 0.125552 -0.134858 0.073697
v 0.133421 -0.140896 0.083196
v 0.125552 -0.134858 0.083196
v 0.133421 -0.140896 0.083196
v 0.125552 -0.134858 0.073697
v 0.133421 -0.140896 0.073697
v 0.133421 -0.140896 0.073697
v 0.142584 -0.144691 0.083196
v 0.133421 -0.140896 0.083196
v 0.142584 -0.144691 0.083196
v 0.133421 -0.140896 0.073697
v 0.142584 -0.144691 0.073697
v 0.190413 -0.107991 0.073697
v 0.189118 -0.117825 0.083196
v 0.189118 -0.117825 0.073697
v 0.189118 -0.117825 0.083196
v 0.190413 -0.107991 0.073697
v 0.190413 -0.107991 0.083196
v 0.189118 -0.098158 0.073697
v 0.190413 -0.107991 0.083196
v 0.190413 -0.107991 0.073697
v 0.190413 -0.107991 0.083196
v 0.189118 -0.098158 0.073697
v 0.189118 -0.098158 0.083196
v 0.185322 -0.088994 0.073697
v 0.189118 -0.098158 0.083196
v 0.189118 -0.098158 0.073697
v 0.189118 -0.098158 0.083196
v 0.185322 -0.088994 0.073697
v 0.185322 -0.088994 0.083196
v 0.179284 -0.081125 0.073697
v 0.185322 -0.088994 0.083196
v 0.185322 -0.088994 0.073697
v 0.185322 -0.088994 0.083196
v 0.179284 -0.081125 0.073697
v 0.179284 -0.081125 0.083196
v 0.179284 -0.081125 0.073697
v 0.171415 -0.075087 0.083196
v 0.179284 -0.081125 0.083196
v 0.171415 -0.075087 0.083196
v 0.179284 -0.081125 0.073697
v 0.171415 -0.075087 0.073697
v 0.119514 -0.088994 0.073697
v 0.125552 -0.081125 0.083196
v 0.125552 -0.081125 0.073697
v 0.125552 -0.081125 0.083196
v 0.119514 -0.088994 0.073697
v 0.119514 -0.088994 0.083196
v 0.115718 -0.098158 0.073697
v 0.119514 -0.088994 0.083196
v 0.119514 -0.088994 0.073697
v 0.119514 -0.088994 0.083196
v 0.115718 -0.098158 0.073697
v 0.115718 -0.098158 0.083196
v 0.114424 -0.107991 0.073697
v 0.115718 -0.098158 0.083196
v 0.115718 -0.098158 0.073697
v 0.115718 -0.098158 0.083196
v 0.114424 -0.107991 0.073697
v 0.114424 -0.107991 0.083196
v 0.115718 -0.117825 0.083196
v 0.115718 -0.098158 0.083196
v 0.114424 -0.107991 0.083196
v 0.115718 -0.098158 0.083196
v 0.115718 -0.117825 0.083196
v 0.119514 -0.126989 0.083196
v 0.115718 -0.098158 0.083196
v 0.119514 -0.126989 0.083196
v 0.119514 -0.088994 0.083196
v 0.119514 -0.088994 0.083196
v 0.119514 -0.126989 0.083196
v 0.125552 -0.134858 0.083196
v 0.119514 -0.088994 0.083196
v 0.125552 -0.134858 0.083196
v 0.125552 -0.081125 0.083196
v 0.125552 -0.081125 0.083196
v 0.125552 -0.134858 0.083196
v 0.133421 -0.140896 0.083196
v 0.125552 -0.081125 0.083196
v 0.133421 -0.140896 0.083196
v 0.133421 -0.075087 0.083196
v 0.133421 -0.075087 0.083196
v 0.133421 -0.140896 0.083196
v 0.142584 -0.144691 0.083196
v 0.133421 -0.075087 0.083196
v 0.142584 -0.144691 0.083196
v 0.142584 -0.071292 0.083196
v 0.142584 -0.071292 0.083196
v 0.142584 -0.144691 0.083196
v 0.152418 -0.145986 0.083196
v 0.142584 -0.144691 0.073697
v 0.152418 -0.145986 0.083196
v 0.142584 -0.144691 0.083196
v 0.152418 -0.145986 0.083196
v 0.142584 -0.144691 0.073697
v 0.152418 -0.145986 0.073697
v 0.152418 -0.145986 0.073697
v 0.162252 -0.144691 0.083196
v 0.152418 -0.145986 0.083196
v 0.162252 -0.144691 0.083196
v 0.152418 -0.145986 0.073697
v 0.162252 -0.144691 0.073697
v 0.162252 -0.144691 0.073697
v 0.171415 -0.140896 0.083196
v 0.162252 -0.144691 0.083196
v 0.171415 -0.140896 0.083196
v 0.162252 -0.144691 0.073697
v 0.171415 -0.140896 0.073697
v 0.171415 -0.140896 0.073697
v 0.179284 -0.134858 0.083196
v 0.171415 -0.140896 0.083196
v 0.179284 -0.134858 0.083196
v 0.171415 -0.140896 0.073697
v 0.179284 -0.134858 0.073697
v 0.185322 -0.126989 0.073697
v 0.179284 -0.134858 0.083196
v 0.179284 -0.134858 0.073697
v 0.179284 -0.134858 0.083196
v 0.185322 -0.126989 0.073697
v 0.185322 -0.126989 0.083196
v 0.189118 -0.117825 0.073697
v 0.185322 -0.126989 0.083196
v 0.185322 -0.126989 0.073697
v 0.185322 -0.126989 0.083196
v 0.189118 -0.117825 0.073697
v 0.189118 -0.117825 0.083196
v 0.185322 -0.088994 0.083196
v 0.185322 -0.126989 0.083196
v 0.189118 -0.117825 0.083196
v 0.179284 -0.081125 0.083196
v 0.185322 -0.126989 0.083196
v 0.185322 -0.088994 0.083196
v 0.179284 -0.081125 0.083196
v 0.179284 -0.134858 0.083196
v 0.185322 -0.126989 0.083196
v 0.171415 -0.075087 0.083196
v 0.179284 -0.134858 0.083196
v 0.179284 -0.081125 0.083196
v 0.171415 -0.075087 0.083196
v 0.171415 -0.140896 0.083196
v 0.179284 -0.134858 0.083196
v 0.162252 -0.071292 0.083196
v 0.171415 -0.140896 0.083196
v 0.171415 -0.075087 0.083196
v 0.162252 -0.071292 0.083196
v 0.162252 -0.144691 0.083196
v 0.171415 -0.140896 0.083196
v 0.152418 -0.069997 0.083196
v 0.162252 -0.144691 0.083196
v 0.162252 -0.071292 0.083196
v 0.152418 -0.069997 0.083196
v 0.152418 -0.145986 0.083196
v 0.162252 -0.144691 0.083196
v 0.142584 -0.071292 0.083196
v 0.152418 -0.145986 0.083196
v 0.152418 -0.069997 0.083196
v 0.152418 -0.069997 0.073697
v 0.142584 -0.071292 0.083196
v 0.152418 -0.069997 0.083196
v 0.142584 -0.071292 0.083196
v 0.152418 -0.069997 0.073697
v 0.142584 -0.071292 0.073697
v 0.142584 -0.071292 0.073697
v 0.133421 -0.075087 0.083196
v 0.142584 -0.071292 0.083196
v 0.133421 -0.075087 0.083196
v 0.142584 -0.071292 0.073697
v 0.133421 -0.075087 0.073697
v 0.133421 -0.075087 0.073697
v 0.125552 -0.081125 0.083196
v 0.133421 -0.075087 0.083196
v 0.125552 -0.081125 0.083196
v 0.133421 -0.075087 0.073697
v 0.125552 -0.081125 0.073697
v 0.152418 -0.069997 0.083196
v 0.162252 -0.071292 0.073697
v 0.152418 -0.069997 0.073697
v 0.162252 -0.071292 0.073697
v 0.152418 -0.069997 0.083196
v 0.162252 -0.071292 0.083196
v 0.162252 -0.071292 0.083196
v 0.171415 -0.075087 0.073697
v 0.162252 -0.071292 0.073697
v 0.171415 -0.075087 0.073697
v 0.162252 -0.071292 0.083196
v 0.171415 -0.075087 0.083196
v 0.185322 -0.088994 0.083196
v 0.189118 -0.117825 0.083196
v 0.189118 -0.098158 0.083196
v 0.189118 -0.098158 0.083196
v 0.189118 -0.117825 0.083196
v 0.190413 -0.107991 0.083196
vt -9.908085823059082 2.375
vt -10.038613319396973 2.5
vt -10.038613319396973 2.375
vt -9.908085823059082 2.5
vt -7.857893943786621 2.375
vt -7.988420009613037 2.5
vt -7.988420009613037 2.375
vt -7.857893943786621 2.5
vt -5.267752170562744 2.375
vt -5.39827823638916 2.5
vt -5.39827823638916 2.375
vt -5.267752170562744 2.5
vt -2.4446990489959717 2.375
vt -2.3141729831695557 2.5
vt -2.4446990489959717 2.5
vt -2.3141729831695557 2.375
vt 0.6710339784622192 2.375
vt 0.8015599846839905 2.5
vt 0.6710339784622192 2.5
vt 0.8015599846839905 2.375
vt 11.409137725830078 2.375
vt 11.278611183166504 2.5
vt 11.278611183166504 2.375
vt 11.409137725830078 2.5
vt 10.038613319396973 2.375
vt 9.908085823059082 2.5
vt 9.908085823059082 2.375
vt 10.038613319396973 2.5
vt 7.988420009613037 2.375
vt 7.857893943786621 2.5
vt 7.857893943786621 2.375
vt 7.988420009613037 2.5
vt 5.39827823638916 2.375
vt 5.267752170562744 2.5
vt 5.267752170562744 2.375
vt 5.39827823638916 2.5
vt 2.3141729831695557 2.375
vt 2.4446990489959717 2.5
vt 2.3141729831695557 2.5
vt 2.4446990489959717 2.375
vt -11.659747123718262 2.375
vt -11.79027271270752 2.5
vt -11.79027271270752 2.375
vt -11.659747123718262 2.5
vt -11.876070022583008 2.375
vt -12.006595611572266 2.5
vt -12.006595611572266 2.375
vt -11.876070022583008 2.5
vt -11.278611183166504 2.375
vt -11.409137725830078 2.5
vt -11.409137725830078 2.375
vt -11.278611183166504 2.5
vt 4.7670369148254395 10.621174812316895
vt 4.7670369148254395 10.87999439239502
vt 4.75 10.750584602355957
vt 4.816987037658691 10.500584602355957
vt 4.816987037658691 11.000584602355957
vt 4.89644718170166 10.3970308303833
vt 4.89644718170166 11.104138374328613
vt 5 10.317571640014648
vt 5 11.183597564697266
vt 5.1205902099609375 10.267621994018555
vt 5.1205902099609375 11.233548164367676
vt 5.25 10.250584602355957
vt 3.7365899085998535 2.375
vt 3.8671159744262695 2.5
vt 3.7365899085998535 2.5
vt 3.8671159744262695 2.375
vt 6.543055057525635 2.375
vt 6.673582077026367 2.5
vt 6.543055057525635 2.5
vt 6.673582077026367 2.375
vt 8.899174690246582 2.375
vt 9.029701232910156 2.5
vt 8.899174690246582 2.5
vt 9.029701232910156 2.375
vt 10.644383430480957 2.375
vt 10.774909973144531 2.5
vt 10.644383430480957 2.5
vt 10.774909973144531 2.375
vt 11.79027271270752 2.375
vt 11.659747123718262 2.5
vt 11.659747123718262 2.375
vt 11.79027271270752 2.5
vt 12.006595611572266 2.375
vt 11.876070022583008 2.5
vt 11.876070022583008 2.375
vt 12.006595611572266 2.5
vt 5.683012962341309 11.000584602355957
vt 5.683012962341309 10.500584602355957
vt 5.7329630851745605 10.621174812316895
vt 5.60355281829834 11.104138374328613
vt 5.60355281829834 10.3970308303833
vt 5.5 11.183597564697266
vt 5.5 10.317571640014648
vt 5.3794097900390625 11.233548164367676
vt 5.3794097900390625 10.267621994018555
vt 5.25 11.250584602355957
vt -6.673582077026367 2.375
vt -6.543055057525635 2.5
vt -6.673582077026367 2.5
vt -6.543055057525635 2.375
vt -9.029701232910156 2.375
vt -8.899174690246582 2.5
vt -9.029701232910156 2.5
vt -8.899174690246582 2.375
vt -10.774909973144531 2.375
vt -10.644383430480957 2.5
vt -10.774909973144531 2.5
vt -10.644383430480957 2.375
vt -3.7365899085998535 2.5
vt -3.8671159744262695 2.375
vt -3.7365899085998535 2.375
vt -3.8671159744262695 2.5
vt -0.6710339784622192 2.5
vt -0.8015599846839905 2.375
vt -0.6710339784622192 2.375
vt -0.8015599846839905 2.5
vt 5.7329630851745605 10.87999439239502
vt 5.75 10.750584602355957
vn -0.9659258451755842 -0.25881897461707376 0
vn -1 0 0
vn 0.9659258451755842 0.25881897461707376 0
vn 1 0 0
vn -0.8660252955903434 -0.5000001873976233 0
vn 0.8660252955903434 0.5000001873976233 0
vn -0.7071067811865476 -0.7071067811865476 0
vn 0.7071067811865476 0.7071067811865476 0
vn -0.5000001873976233 -0.8660252955903434 0
vn 0.5000001873976233 0.8660252955903434 0
vn -0.25881897461707376 -0.9659258451755842 0
vn 0.25881897461707376 0.9659258451755842 0
vn 0.9659258451755842 -0.25881897461707376 0
vn -0.9659258451755842 0.25881897461707376 0
vn -0.8660252955903434 0.5000001873976233 0
vn -0.7071067811865476 0.7071067811865476 0
vn 0.8660252955903434 -0.5000001873976233 0
vn 0.7071067811865476 -0.7071067811865476 0
vn 0 0 1
vn 0 0 -1
vn 0 -1 0
vn 0 1 0
vn 0.25881897461707376 -0.9659258451755842 0
vn -0.25881897461707376 0.9659258451755842 0
vn 0.5000001873976233 -0.8660252955903434 0
vn -0.5000001873976233 0.8660252955903434 0
usemtl material_0_2
f 1/1/1 2/2/2 3/3/2
f 3/3/4 2/2/4 1/1/3
f 4/2/2 5/1/1 6/4/1
f 6/4/3 5/1/3 4/2/4
f 7/5/5 8/6/1 9/7/1
f 9/7/3 8/6/3 7/5/6
f 10/6/1 11/5/5 12/8/5
f 12/8/6 11/5/6 10/6/3
f 13/9/7 14/10/5 15/11/5
f 15/11/6 14/10/6 13/9/8
f 16/10/5 17/9/7 18/12/7
f 18/12/8 17/9/8 16/10/6
f 19/13/7 20/14/9 21/15/7
f 21/15/8 20/14/10 19/13/8
f 22/14/9 23/13/7 24/16/9
f 24/16/10 23/13/8 22/14/10
f 25/17/9 26/18/11 27/19/9
f 27/19/10 26/18/12 25/17/10
f 28/18/11 29/17/9 30/20/11
f 30/20/12 29/17/10 28/18/12
f 31/21/4 32/22/13 33/23/13
f 33/23/14 32/22/14 31/21/2
f 34/22/13 35/21/4 36/24/4
f 36/24/2 35/21/2 34/22/14
f 37/25/3 38/26/4 39/27/4
f 39/27/2 38/26/2 37/25/1
f 40/26/4 41/25/3 42/28/3
f 42/28/1 41/25/1 40/26/2
f 43/29/6 44/30/3 45/31/3
f 45/31/1 44/30/1 43/29/5
f 46/30/3 47/29/6 48/32/6
f 48/32/5 47/29/5 46/30/1
f 49/33/8 50/34/6 51/35/6
f 51/35/5 50/34/5 49/33/7
f 52/34/6 53/33/8 54/36/8
f 54/36/7 53/33/7 52/34/5
f 55/37/8 56/38/10 57/39/8
f 57/39/7 56/38/9 55/37/7
f 58/38/10 59/37/8 60/40/10
f 60/40/9 59/37/7 58/38/9
f 61/41/15 62/42/16 63/43/16
f 63/43/18 62/42/18 61/41/17
f 64/42/16 65/41/15 66/44/15
f 66/44/17 65/41/17 64/42/18
f 67/45/14 68/46/15 69/47/15
f 69/47/17 68/46/17 67/45/13
f 70/46/15 71/45/14 72/48/14
f 72/48/13 71/45/13 70/46/17
f 73/49/2 74/50/14 75/51/14
f 75/51/13 74/50/13 73/49/4
f 76/50/14 77/49/2 78/52/2
f 78/52/4 77/49/4 76/50/13
f 79/53/19 80/54/19 81/55/19
f 81/55/20 80/54/20 79/53/20
f 82/54/19 83/53/19 84/56/19
f 84/56/20 83/53/20 82/54/20
f 85/54/19 86/56/19 87/57/19
f 87/57/20 86/56/20 85/54/20
f 88/57/19 89/56/19 90/58/19
f 90/58/20 89/56/20 88/57/20
f 91/57/19 92/58/19 93/59/19
f 93/59/20 92/58/20 91/57/20
f 94/59/19 95/58/19 96/60/19
f 96/60/20 95/58/20 94/59/20
f 97/59/19 98/60/19 99/61/19
f 99/61/20 98/60/20 97/59/20
f 100/61/19 101/60/19 102/62/19
f 102/62/20 101/60/20 100/61/20
f 103/61/19 104/62/19 105/63/19
f 105/63/20 104/62/20 103/61/20
f 106/63/19 107/62/19 108/64/19
f 108/64/20 107/62/20 106/63/20
f 109/65/11 110/66/21 111/67/11
f 111/67/12 110/66/22 109/65/12
f 112/66/21 113/65/11 114/68/21
f 114/68/22 113/65/12 112/66/22
f 115/69/21 116/70/23 117/71/21
f 117/71/22 116/70/24 115/69/22
f 118/70/23 119/69/21 120/72/23
f 120/72/24 119/69/22 118/70/24
f 121/73/23 122/74/25 123/75/23
f 123/75/24 122/74/26 121/73/24
f 124/74/25 125/73/23 126/76/25
f 126/76/26 125/73/24 124/74/26
f 127/77/25 128/78/18 129/79/25
f 129/79/26 128/78/16 127/77/26
f 130/78/18 131/77/25 132/80/18
f 132/80/16 131/77/26 130/78/16
f 133/81/17 134/82/18 135/83/18
f 135/83/16 134/82/16 133/81/15
f 136/82/18 137/81/17 138/84/17
f 138/84/15 137/81/15 136/82/16
f 139/85/13 140/86/17 141/87/17
f 141/87/15 140/86/15 139/85/14
f 142/86/17 143/85/13 144/88/13
f 144/88/14 143/85/14 142/86/15
f 145/89/19 146/90/19 147/91/19
f 147/91/20 146/90/20 145/89/20
f 148/92/19 149/90/19 150/89/19
f 150/89/20 149/90/20 148/92/20
f 151/92/19 152/93/19 153/90/19
f 153/90/20 152/93/20 151/92/20
f 154/94/19 155/93/19 156/92/19
f 156/92/20 155/93/20 154/94/20
f 157/94/19 158/95/19 159/93/19
f 159/93/20 158/95/20 157/94/20
f 160/96/19 161/95/19 162/94/19
f 162/94/20 161/95/20 160/96/20
f 163/96/19 164/97/19 165/95/19
f 165/95/20 164/97/20 163/96/20
f 166/98/19 167/97/19 168/96/19
f 168/96/20 167/97/20 166/98/20
f 169/98/19 170/64/19 171/97/19
f 171/97/20 170/64/20 169/98/20
f 172/63/19 173/64/19 174/98/19
f 174/98/20 173/64/20 172/63/20
f 175/99/22 176/100/24 177/101/22
f 177/101/21 176/100/23 175/99/21
f 178/100/24 179/99/22 180/102/24
f 180/102/23 179/99/21 178/100/23
f 181/103/24 182/104/26 183/105/24
f 183/105/23 182/104/25 181/103/23
f 184/104/26 185/103/24 186/106/26
f 186/106/25 185/103/23 184/104/25
f 187/107/26 188/108/16 189/109/26
f 189/109/25 188/108/18 187/107/25
f 190/108/16 191/107/26 192/110/16
f 192/110/18 191/107/25 190/108/18
f 193/111/22 194/112/12 195/113/22
f 195/113/21 194/112/11 193/111/21
f 196/112/12 197/111/22 198/114/12
f 198/114/11 197/111/21 196/112/11
f 199/115/12 200/116/10 201/117/12
f 201/117/11 200/116/9 199/115/11
f 202/116/10 203/115/12 204/118/10
f 204/118/9 203/115/11 202/116/9
f 205/89/19 206/91/19 207/119/19
f 207/119/20 206/91/20 205/89/20
f 208/119/19 209/91/19 210/120/19
f 210/120/20 209/91/20 208/119/20
