# SSTK version 0.8.0
# 16
mtllib original-16.mtl
o 3dw.61c6c6a47e5b9d34496c7671bf276db5/Model/distancia1/distancia/mesh1/mesh1-geometry/material_0/component_15#mesh1-geometry
v -0.169916 -0.616000 0.073697
v -0.168019 -0.611418 0.083196
v -0.168019 -0.611418 0.073697
v -0.168019 -0.611418 0.083196
v -0.169916 -0.616000 0.073697
v -0.169916 -0.616000 0.083196
v -0.170564 -0.620917 0.073697
v -0.169916 -0.616000 0.083196
v -0.169916 -0.616000 0.073697
v -0.169916 -0.616000 0.083196
v -0.170564 -0.620917 0.073697
v -0.170564 -0.620917 0.083196
v -0.169916 -0.625833 0.073697
v -0.170564 -0.620917 0.083196
v -0.170564 -0.620917 0.073697
v -0.170564 -0.620917 0.083196
v -0.169916 -0.625833 0.073697
v -0.169916 -0.625833 0.083196
v -0.168019 -0.630415 0.073697
v -0.169916 -0.625833 0.083196
v -0.169916 -0.625833 0.073697
v -0.169916 -0.625833 0.083196
v -0.168019 -0.630415 0.073697
v -0.168019 -0.630415 0.083196
v -0.165000 -0.634350 0.073697
v -0.168019 -0.630415 0.083196
v -0.168019 -0.630415 0.073697
v -0.168019 -0.630415 0.083196
v -0.165000 -0.634350 0.073697
v -0.165000 -0.634350 0.083196
v -0.165000 -0.634350 0.073697
v -0.161065 -0.637369 0.083196
v -0.165000 -0.634350 0.083196
v -0.161065 -0.637369 0.083196
v -0.165000 -0.634350 0.073697
v -0.161065 -0.637369 0.073697
v -0.161065 -0.637369 0.073697
v -0.156483 -0.639266 0.083196
v -0.161065 -0.637369 0.083196
v -0.156483 -0.639266 0.083196
v -0.161065 -0.637369 0.073697
v -0.156483 -0.639266 0.073697
v -0.156483 -0.639266 0.073697
v -0.151566 -0.639914 0.083196
v -0.156483 -0.639266 0.083196
v -0.151566 -0.639914 0.083196
v -0.156483 -0.639266 0.073697
v -0.151566 -0.639914 0.073697
v -0.151566 -0.639914 0.073697
v -0.146650 -0.639266 0.083196
v -0.151566 -0.639914 0.083196
v -0.146650 -0.639266 0.083196
v -0.151566 -0.639914 0.073697
v -0.146650 -0.639266 0.073697
v -0.146650 -0.639266 0.073697
v -0.142068 -0.637369 0.083196
v -0.146650 -0.639266 0.083196
v -0.142068 -0.637369 0.083196
v -0.146650 -0.639266 0.073697
v -0.142068 -0.637369 0.073697
v -0.142068 -0.637369 0.073697
v -0.138133 -0.634350 0.083196
v -0.142068 -0.637369 0.083196
v -0.138133 -0.634350 0.083196
v -0.142068 -0.637369 0.073697
v -0.138133 -0.634350 0.073697
v -0.135114 -0.630415 0.073697
v -0.138133 -0.634350 0.083196
v -0.138133 -0.634350 0.073697
v -0.138133 -0.634350 0.083196
v -0.135114 -0.630415 0.073697
v -0.135114 -0.630415 0.083196
v -0.133217 -0.625833 0.073697
v -0.135114 -0.630415 0.083196
v -0.135114 -0.630415 0.073697
v -0.135114 -0.630415 0.083196
v -0.133217 -0.625833 0.073697
v -0.133217 -0.625833 0.083196
v -0.132569 -0.620917 0.073697
v -0.133217 -0.625833 0.083196
v -0.133217 -0.625833 0.073697
v -0.133217 -0.625833 0.083196
v -0.132569 -0.620917 0.073697
v -0.132569 -0.620917 0.083196
v -0.133217 -0.616000 0.073697
v -0.132569 -0.620917 0.083196
v -0.132569 -0.620917 0.073697
v -0.132569 -0.620917 0.083196
v -0.133217 -0.616000 0.073697
v -0.133217 -0.616000 0.083196
v -0.135114 -0.611418 0.073697
v -0.133217 -0.616000 0.083196
v -0.133217 -0.616000 0.073697
v -0.133217 -0.616000 0.083196
v -0.135114 -0.611418 0.073697
v -0.135114 -0.611418 0.083196
v -0.138133 -0.607483 0.073697
v -0.135114 -0.611418 0.083196
v -0.135114 -0.611418 0.073697
v -0.135114 -0.611418 0.083196
v -0.138133 -0.607483 0.073697
v -0.138133 -0.607483 0.083196
v -0.138133 -0.607483 0.073697
v -0.142068 -0.604464 0.083196
v -0.138133 -0.607483 0.083196
v -0.142068 -0.604464 0.083196
v -0.138133 -0.607483 0.073697
v -0.142068 -0.604464 0.073697
v -0.168019 -0.611418 0.073697
v -0.165000 -0.607483 0.083196
v -0.165000 -0.607483 0.073697
v -0.165000 -0.607483 0.083196
v -0.168019 -0.611418 0.073697
v -0.168019 -0.611418 0.083196
v -0.168019 -0.611418 0.083196
v -0.165000 -0.634350 0.083196
v -0.165000 -0.607483 0.083196
v -0.168019 -0.611418 0.083196
v -0.168019 -0.630415 0.083196
v -0.165000 -0.634350 0.083196
v -0.169916 -0.616000 0.083196
v -0.168019 -0.630415 0.083196
v -0.168019 -0.611418 0.083196
v -0.169916 -0.616000 0.083196
v -0.169916 -0.625833 0.083196
v -0.168019 -0.630415 0.083196
v -0.169916 -0.625833 0.083196
v -0.169916 -0.616000 0.083196
v -0.170564 -0.620917 0.083196
v -0.165000 -0.607483 0.083196
v -0.165000 -0.634350 0.083196
v -0.161065 -0.637369 0.083196
v -0.165000 -0.607483 0.083196
v -0.161065 -0.637369 0.083196
v -0.161065 -0.604464 0.083196
v -0.161065 -0.604464 0.083196
v -0.161065 -0.637369 0.083196
v -0.156483 -0.639266 0.083196
v -0.161065 -0.604464 0.083196
v -0.156483 -0.639266 0.083196
v -0.156483 -0.602567 0.083196
v -0.156483 -0.602567 0.083196
v -0.156483 -0.639266 0.083196
v -0.151566 -0.639914 0.083196
v -0.156483 -0.602567 0.083196
v -0.151566 -0.639914 0.083196
v -0.151566 -0.601919 0.083196
v -0.151566 -0.601919 0.083196
v -0.151566 -0.639914 0.083196
v -0.146650 -0.639266 0.083196
v -0.151566 -0.601919 0.083196
v -0.146650 -0.639266 0.083196
v -0.146650 -0.602567 0.083196
v -0.146650 -0.602567 0.083196
v -0.146650 -0.639266 0.083196
v -0.142068 -0.637369 0.083196
v -0.146650 -0.602567 0.083196
v -0.142068 -0.637369 0.083196
v -0.142068 -0.604464 0.083196
v -0.142068 -0.604464 0.083196
v -0.142068 -0.637369 0.083196
v -0.138133 -0.634350 0.083196
v -0.142068 -0.604464 0.083196
v -0.138133 -0.634350 0.083196
v -0.138133 -0.607483 0.083196
v -0.138133 -0.607483 0.083196
v -0.138133 -0.634350 0.083196
v -0.135114 -0.630415 0.083196
v -0.138133 -0.607483 0.083196
v -0.135114 -0.630415 0.083196
v -0.135114 -0.611418 0.083196
v -0.135114 -0.611418 0.083196
v -0.135114 -0.630415 0.083196
v -0.133217 -0.625833 0.083196
v -0.135114 -0.611418 0.083196
v -0.133217 -0.625833 0.083196
v -0.133217 -0.616000 0.083196
v -0.133217 -0.616000 0.083196
v -0.133217 -0.625833 0.083196
v -0.132569 -0.620917 0.083196
v -0.142068 -0.604464 0.073697
v -0.146650 -0.602567 0.083196
v -0.142068 -0.604464 0.083196
v -0.146650 -0.602567 0.083196
v -0.142068 -0.604464 0.073697
v -0.146650 -0.602567 0.073697
v -0.146650 -0.602567 0.073697
v -0.151566 -0.601919 0.083196
v -0.146650 -0.602567 0.083196
v -0.151566 -0.601919 0.083196
v -0.146650 -0.602567 0.073697
v -0.151566 -0.601919 0.073697
v -0.151566 -0.601919 0.073697
v -0.156483 -0.602567 0.083196
v -0.151566 -0.601919 0.083196
v -0.156483 -0.602567 0.083196
v -0.151566 -0.601919 0.073697
v -0.156483 -0.602567 0.073697
v -0.156483 -0.602567 0.073697
v -0.161065 -0.604464 0.083196
v -0.156483 -0.602567 0.083196
v -0.161065 -0.604464 0.083196
v -0.156483 -0.602567 0.073697
v -0.161065 -0.604464 0.073697
v -0.161065 -0.604464 0.073697
v -0.165000 -0.607483 0.083196
v -0.161065 -0.604464 0.083196
v -0.165000 -0.607483 0.083196
v -0.161065 -0.604464 0.073697
v -0.165000 -0.607483 0.073697
vt -4.141634941101074 2.375
vt -4.206898212432861 2.5
vt -4.206898212432861 2.375
vt -4.141634941101074 2.5
vt -4.096836090087891 2.375
vt -4.1620988845825195 2.5
vt -4.1620988845825195 2.375
vt -4.096836090087891 2.5
vt -3.770620107650757 2.375
vt -3.8358829021453857 2.5
vt -3.8358829021453857 2.375
vt -3.770620107650757 2.5
vt -3.1852190494537354 2.375
vt -3.2504820823669434 2.5
vt -3.2504820823669434 2.375
vt -3.1852190494537354 2.5
vt -2.3805270195007324 2.375
vt -2.4457900524139404 2.5
vt -2.4457900524139404 2.375
vt -2.3805270195007324 2.5
vt -1.4766449928283691 2.375
vt -1.4113819599151611 2.5
vt -1.4766449928283691 2.5
vt -1.4113819599151611 2.375
vt -0.4090929925441742 2.375
vt -0.3438299894332886 2.5
vt -0.4090929925441742 2.5
vt -0.3438299894332886 2.375
vt 0.6841149926185608 2.375
vt 0.7493780255317688 2.5
vt 0.6841149926185608 2.5
vt 0.7493780255317688 2.375
vt 1.7284770011901855 2.375
vt 1.7937400341033936 2.5
vt 1.7284770011901855 2.5
vt 1.7937400341033936 2.375
vt 2.6528220176696777 2.375
vt 2.7180850505828857 2.5
vt 2.6528220176696777 2.5
vt 2.7180850505828857 2.375
vt 3.3941590785980225 2.375
vt 3.4594221115112305 2.5
vt 3.3941590785980225 2.5
vt 3.4594221115112305 2.375
vt 3.9672279357910156 2.375
vt 3.9019649028778076 2.5
vt 3.9019649028778076 2.375
vt 3.9672279357910156 2.5
vt 4.206898212432861 2.375
vt 4.141634941101074 2.5
vt 4.141634941101074 2.375
vt 4.206898212432861 2.5
vt 4.1620988845825195 2.375
vt 4.096836090087891 2.5
vt 4.096836090087891 2.375
vt 4.1620988845825195 2.5
vt 3.8358829021453857 2.375
vt 3.770620107650757 2.5
vt 3.770620107650757 2.375
vt 3.8358829021453857 2.5
vt 3.2504820823669434 2.375
vt 3.1852190494537354 2.5
vt 3.1852190494537354 2.375
vt 3.2504820823669434 2.5
vt 2.4457900524139404 2.375
vt 2.3805270195007324 2.5
vt 2.3805270195007324 2.375
vt 2.4457900524139404 2.5
vt 1.4113819599151611 2.375
vt 1.4766449928283691 2.5
vt 1.4113819599151611 2.5
vt 1.4766449928283691 2.375
vt -3.9019649028778076 2.375
vt -3.9672279357910156 2.5
vt -3.9672279357910156 2.375
vt -3.9019649028778076 2.5
vt 1.0331109762191772 4.125585079193115
vt 1.0728410482406616 3.823807954788208
vt 1.0728410482406616 4.177361965179443
vt 1.0331109762191772 3.8755850791931152
vt 1.0081360340118408 4.0652899742126465
vt 1.0081360340118408 3.935879945755005
vt 0.9996179938316345 4.000585079193115
vt 1.1246180534362793 3.7840778827667236
vt 1.1246180534362793 4.217091083526611
vt 1.1849130392074585 3.7591030597686768
vt 1.1849130392074585 4.242065906524658
vt 1.2496180534362793 3.7505850791931152
vt 1.2496180534362793 4.250585079193115
vt 1.3143229484558105 3.7591030597686768
vt 1.3143229484558105 4.242065906524658
vt 1.3746180534362793 3.7840778827667236
vt 1.3746180534362793 4.217091083526611
vt 1.426395058631897 3.823807954788208
vt 1.426395058631897 4.177361965179443
vt 1.4661240577697754 3.8755850791931152
vt 1.4661240577697754 4.125585079193115
vt 1.4910989999771118 3.935879945755005
vt 1.4910989999771118 4.0652899742126465
vt 1.4996180534362793 4.000585079193115
vt 0.3438299894332886 2.375
vt 0.4090929925441742 2.5
vt 0.3438299894332886 2.5
vt 0.4090929925441742 2.375
vt -0.7493780255317688 2.375
vt -0.6841149926185608 2.5
vt -0.7493780255317688 2.5
vt -0.6841149926185608 2.375
vt -1.7937400341033936 2.375
vt -1.7284770011901855 2.5
vt -1.7937400341033936 2.5
vt -1.7284770011901855 2.375
vt -2.7180850505828857 2.375
vt -2.6528220176696777 2.5
vt -2.7180850505828857 2.5
vt -2.6528220176696777 2.375
vt -3.4594221115112305 2.375
vt -3.3941590785980225 2.5
vt -3.4594221115112305 2.5
vt -3.3941590785980225 2.375
vn -0.9659258451755842 0.25881897461707376 0
vn -0.8660252955903434 0.5000001873976233 0
vn 0.9659258451755842 -0.25881897461707376 0
vn 0.8660252955903434 -0.5000001873976233 0
vn -1 0 0
vn 1 0 0
vn -0.9659258451755842 -0.25881897461707376 0
vn 0.9659258451755842 0.25881897461707376 0
vn -0.8660252955903434 -0.5000001873976233 0
vn 0.8660252955903434 0.5000001873976233 0
vn -0.7071067811865476 -0.7071067811865476 0
vn 0.7071067811865476 0.7071067811865476 0
vn -0.5000001873976233 -0.8660252955903434 0
vn 0.5000001873976233 0.8660252955903434 0
vn -0.25881897461707376 -0.9659258451755842 0
vn 0.25881897461707376 0.9659258451755842 0
vn 0 -1 0
vn 0 1 0
vn 0.25881897461707376 -0.9659258451755842 0
vn -0.25881897461707376 0.9659258451755842 0
vn 0.5000001873976233 -0.8660252955903434 0
vn -0.5000001873976233 0.8660252955903434 0
vn 0.7071067811865476 -0.7071067811865476 0
vn -0.7071067811865476 0.7071067811865476 0
vn 0 0 1
vn 0 0 -1
usemtl material_0_2
f 1/1/1 2/2/2 3/3/2
f 3/3/4 2/2/4 1/1/3
f 4/2/2 5/1/1 6/4/1
f 6/4/3 5/1/3 4/2/4
f 7/5/5 8/6/1 9/7/1
f 9/7/3 8/6/3 7/5/6
f 10/6/1 11/5/5 12/8/5
f 12/8/6 11/5/6 10/6/3
f 13/9/7 14/10/5 15/11/5
f 15/11/6 14/10/6 13/9/8
f 16/10/5 17/9/7 18/12/7
f 18/12/8 17/9/8 16/10/6
f 19/13/9 20/14/7 21/15/7
f 21/15/8 20/14/8 19/13/10
f 22/14/7 23/13/9 24/16/9
f 24/16/10 23/13/10 22/14/8
f 25/17/11 26/18/9 27/19/9
f 27/19/10 26/18/10 25/17/12
f 28/18/9 29/17/11 30/20/11
f 30/20/12 29/17/12 28/18/10
f 31/21/11 32/22/13 33/23/11
f 33/23/12 32/22/14 31/21/12
f 34/22/13 35/21/11 36/24/13
f 36/24/14 35/21/12 34/22/14
f 37/25/13 38/26/15 39/27/13
f 39/27/14 38/26/16 37/25/14
f 40/26/15 41/25/13 42/28/15
f 42/28/16 41/25/14 40/26/16
f 43/29/15 44/30/17 45/31/15
f 45/31/16 44/30/18 43/29/16
f 46/30/17 47/29/15 48/32/17
f 48/32/18 47/29/16 46/30/18
f 49/33/17 50/34/19 51/35/17
f 51/35/18 50/34/20 49/33/18
f 52/34/19 53/33/17 54/36/19
f 54/36/20 53/33/18 52/34/20
f 55/37/19 56/38/21 57/39/19
f 57/39/20 56/38/22 55/37/20
f 58/38/21 59/37/19 60/40/21
f 60/40/22 59/37/20 58/38/22
f 61/41/21 62/42/23 63/43/21
f 63/43/22 62/42/24 61/41/22
f 64/42/23 65/41/21 66/44/23
f 66/44/24 65/41/22 64/42/24
f 67/45/4 68/46/23 69/47/23
f 69/47/24 68/46/24 67/45/2
f 70/46/23 71/45/4 72/48/4
f 72/48/2 71/45/2 70/46/24
f 73/49/3 74/50/4 75/51/4
f 75/51/2 74/50/2 73/49/1
f 76/50/4 77/49/3 78/52/3
f 78/52/1 77/49/1 76/50/2
f 79/53/6 80/54/3 81/55/3
f 81/55/1 80/54/1 79/53/5
f 82/54/3 83/53/6 84/56/6
f 84/56/5 83/53/5 82/54/1
f 85/57/8 86/58/6 87/59/6
f 87/59/5 86/58/5 85/57/7
f 88/58/6 89/57/8 90/60/8
f 90/60/7 89/57/7 88/58/5
f 91/61/10 92/62/8 93/63/8
f 93/63/7 92/62/7 91/61/9
f 94/62/8 95/61/10 96/64/10
f 96/64/9 95/61/9 94/62/7
f 97/65/12 98/66/10 99/67/10
f 99/67/9 98/66/9 97/65/11
f 100/66/10 101/65/12 102/68/12
f 102/68/11 101/65/11 100/66/9
f 103/69/12 104/70/14 105/71/12
f 105/71/11 104/70/13 103/69/11
f 106/70/14 107/69/12 108/72/14
f 108/72/13 107/69/11 106/70/13
f 109/73/2 110/74/24 111/75/24
f 111/75/23 110/74/23 109/73/4
f 112/74/24 113/73/2 114/76/2
f 114/76/4 113/73/4 112/74/23
f 115/77/25 116/78/25 117/79/25
f 117/79/26 116/78/26 115/77/26
f 118/77/25 119/80/25 120/78/25
f 120/78/26 119/80/26 118/77/26
f 121/81/25 122/80/25 123/77/25
f 123/77/26 122/80/26 121/81/26
f 124/81/25 125/82/25 126/80/25
f 126/80/26 125/82/26 124/81/26
f 127/82/25 128/81/25 129/83/25
f 129/83/26 128/81/26 127/82/26
f 130/79/25 131/78/25 132/84/25
f 132/84/26 131/78/26 130/79/26
f 133/79/25 134/84/25 135/85/25
f 135/85/26 134/84/26 133/79/26
f 136/85/25 137/84/25 138/86/25
f 138/86/26 137/84/26 136/85/26
f 139/85/25 140/86/25 141/87/25
f 141/87/26 140/86/26 139/85/26
f 142/87/25 143/86/25 144/88/25
f 144/88/26 143/86/26 142/87/26
f 145/87/25 146/88/25 147/89/25
f 147/89/26 146/88/26 145/87/26
f 148/89/25 149/88/25 150/90/25
f 150/90/26 149/88/26 148/89/26
f 151/89/25 152/90/25 153/91/25
f 153/91/26 152/90/26 151/89/26
f 154/91/25 155/90/25 156/92/25
f 156/92/26 155/90/26 154/91/26
f 157/91/25 158/92/25 159/93/25
f 159/93/26 158/92/26 157/91/26
f 160/93/25 161/92/25 162/94/25
f 162/94/26 161/92/26 160/93/26
f 163/93/25 164/94/25 165/95/25
f 165/95/26 164/94/26 163/93/26
f 166/95/25 167/94/25 168/96/25
f 168/96/26 167/94/26 166/95/26
f 169/95/25 170/96/25 171/97/25
f 171/97/26 170/96/26 169/95/26
f 172/97/25 173/96/25 174/98/25
f 174/98/26 173/96/26 172/97/26
f 175/97/25 176/98/25 177/99/25
f 177/99/26 176/98/26 175/97/26
f 178/99/25 179/98/25 180/100/25
f 180/100/26 179/98/26 178/99/26
f 181/101/14 182/102/16 183/103/14
f 183/103/13 182/102/15 181/101/13
f 184/102/16 185/101/14 186/104/16
f 186/104/15 185/101/13 184/102/15
f 187/105/16 188/106/18 189/107/16
f 189/107/15 188/106/17 187/105/15
f 190/106/18 191/105/16 192/108/18
f 192/108/17 191/105/15 190/106/17
f 193/109/18 194/110/20 195/111/18
f 195/111/17 194/110/19 193/109/17
f 196/110/20 197/109/18 198/112/20
f 198/112/19 197/109/17 196/110/19
f 199/113/20 200/114/22 201/115/20
f 201/115/19 200/114/21 199/113/19
f 202/114/22 203/113/20 204/116/22
f 204/116/21 203/113/19 202/114/21
f 205/117/22 206/118/24 207/119/22
f 207/119/21 206/118/23 205/117/21
f 208/118/24 209/117/22 210/120/24
f 210/120/23 209/117/21 208/118/23
