# SSTK version 0.8.0
# 59
mtllib original-59.mtl
o 3dw.61c6c6a47e5b9d34496c7671bf276db5/Model/distancia1/distancia/mesh1/mesh1-geometry/material_3/component_0#mesh1-geometry
v -0.227526 -0.867925 0.026204
v 0.228407 -0.867925 -0.002292
v -0.227526 -0.867925 -0.002292
v 0.228407 -0.867925 -0.002292
v -0.227526 -0.867925 0.026204
v 0.228407 -0.867925 0.026204
v 0.228407 -0.867925 0.026204
v -0.227526 -0.867925 0.026204
v -0.227526 -0.867925 0.054700
v -0.245876 0.903734 0.054700
v -0.246524 0.898817 0.027982
v -0.246524 0.898817 0.054700
v -0.246524 0.898817 0.027982
v -0.245876 0.903734 0.054700
v -0.245876 0.903734 0.027982
v -0.243978 0.908316 0.054700
v -0.245876 0.903734 0.027982
v -0.245876 0.903734 0.054700
v -0.245876 0.903734 0.027982
v -0.243978 0.908316 0.054700
v -0.243978 0.908316 0.027982
v -0.240959 0.912250 0.054700
v -0.243978 0.908316 0.027982
v -0.243978 0.908316 0.054700
v -0.243978 0.908316 0.027982
v -0.240959 0.912250 0.054700
v -0.240959 0.912250 0.027982
v -0.240959 0.912250 0.054700
v -0.237025 0.915269 0.027982
v -0.240959 0.912250 0.027982
v -0.237025 0.915269 0.027982
v -0.240959 0.912250 0.054700
v -0.237025 0.915269 0.054700
v -0.237025 0.915269 0.054700
v -0.232443 0.917167 0.027982
v -0.237025 0.915269 0.027982
v -0.232443 0.917167 0.027982
v -0.237025 0.915269 0.054700
v -0.232443 0.917167 0.054700
v -0.232443 0.917167 0.054700
v -0.227526 0.917814 0.027982
v -0.232443 0.917167 0.027982
v -0.227526 0.917814 0.027982
v -0.232443 0.917167 0.054700
v -0.227526 0.917814 0.054700
v -0.227526 0.917814 0.026204
v 0.228407 0.917814 0.054700
v -0.227526 0.917814 0.027982
v -0.227526 0.917814 0.026204
v 0.228407 0.917814 0.026204
v 0.228407 0.917814 0.054700
v -0.227526 0.917814 -0.002292
v 0.228407 0.917814 0.026204
v -0.227526 0.917814 0.026204
v 0.228407 0.917814 0.026204
v -0.227526 0.917814 -0.002292
v 0.228407 0.917814 -0.002292
v 0.228407 -0.867925 0.054700
v 0.228407 0.879820 0.054700
v 0.228407 -0.829930 0.054700
v 0.228407 -0.867925 0.054700
v 0.228407 0.917814 0.054700
v 0.228407 0.879820 0.054700
v 0.228407 -0.867925 0.054700
v 0.095397 0.043986 0.054700
v 0.228407 0.917814 0.054700
v 0.228407 -0.867925 0.054700
v 0.092161 0.019402 0.054700
v 0.095397 0.043986 0.054700
v 0.228407 -0.867925 0.054700
v 0.082672 -0.003507 0.054700
v 0.092161 0.019402 0.054700
v 0.228407 -0.867925 0.054700
v 0.067577 -0.023179 0.054700
v 0.082672 -0.003507 0.054700
v 0.228407 -0.867925 0.054700
v 0.047904 -0.038274 0.054700
v 0.067577 -0.023179 0.054700
v 0.228407 -0.867925 0.054700
v 0.024996 -0.047763 0.054700
v 0.047904 -0.038274 0.054700
v 0.228407 -0.867925 0.054700
v 0.000411 -0.051000 0.054700
v 0.024996 -0.047763 0.054700
v 0.228407 -0.867925 0.054700
v -0.024173 -0.047763 0.054700
v 0.000411 -0.051000 0.054700
v 0.228407 -0.867925 0.054700
v -0.047082 -0.038274 0.054700
v -0.024173 -0.047763 0.054700
v 0.228407 -0.867925 0.054700
v -0.066754 -0.023179 0.054700
v -0.047082 -0.038274 0.054700
v 0.228407 -0.867925 0.054700
v -0.081849 -0.003507 0.054700
v -0.066754 -0.023179 0.054700
v 0.228407 -0.867925 0.054700
v -0.091338 0.019402 0.054700
v -0.081849 -0.003507 0.054700
v 0.228407 -0.867925 0.054700
v -0.227526 -0.829930 0.054700
v -0.091338 0.019402 0.054700
v -0.227526 -0.829930 0.054700
v 0.228407 -0.867925 0.054700
v -0.227526 -0.867925 0.054700
v 0.228407 -0.867925 0.026204
v -0.227526 -0.867925 0.054700
v 0.228407 -0.867925 0.054700
v -0.091338 0.019402 0.054700
v -0.227526 -0.829930 0.054700
v -0.094575 0.043986 0.054700
v -0.227526 -0.829930 0.054700
v -0.091338 0.068571 0.054700
v -0.094575 0.043986 0.054700
v -0.227526 -0.829930 0.054700
v -0.227526 0.917814 0.054700
v -0.091338 0.068571 0.054700
v -0.227526 0.917814 0.054700
v -0.227526 -0.829930 0.054700
v -0.227526 0.879820 0.054700
v -0.091338 0.068571 0.054700
v -0.227526 0.917814 0.054700
v 0.228407 0.917814 0.054700
v -0.227526 0.917814 0.027982
v 0.228407 0.917814 0.054700
v -0.227526 0.917814 0.054700
v -0.091338 0.068571 0.054700
v 0.228407 0.917814 0.054700
v -0.081849 0.091479 0.054700
v -0.081849 0.091479 0.054700
v 0.228407 0.917814 0.054700
v -0.066754 0.111152 0.054700
v -0.066754 0.111152 0.054700
v 0.228407 0.917814 0.054700
v -0.047082 0.126247 0.054700
v -0.047082 0.126247 0.054700
v 0.228407 0.917814 0.054700
v -0.024173 0.135736 0.054700
v -0.024173 0.135736 0.054700
v 0.228407 0.917814 0.054700
v 0.000411 0.138973 0.054700
v 0.000411 0.138973 0.054700
v 0.228407 0.917814 0.054700
v 0.024996 0.135736 0.054700
v 0.024996 0.135736 0.054700
v 0.228407 0.917814 0.054700
v 0.047904 0.126247 0.054700
v 0.047904 0.126247 0.054700
v 0.228407 0.917814 0.054700
v 0.067577 0.111152 0.054700
v 0.067577 0.111152 0.054700
v 0.228407 0.917814 0.054700
v 0.082672 0.091479 0.054700
v 0.082672 0.091479 0.054700
v 0.228407 0.917814 0.054700
v 0.092161 0.068571 0.054700
v 0.092161 0.068571 0.054700
v 0.228407 0.917814 0.054700
v 0.095397 0.043986 0.054700
v 0.092161 0.068571 0.054700
v 0.092161 0.019402 0.054700
v 0.095397 0.043986 0.054700
v 0.082672 0.091479 0.054700
v 0.092161 0.019402 0.054700
v 0.092161 0.068571 0.054700
v 0.082672 0.091479 0.054700
v 0.082672 -0.003507 0.054700
v 0.092161 0.019402 0.054700
v 0.067577 0.111152 0.054700
v 0.082672 -0.003507 0.054700
v 0.082672 0.091479 0.054700
v 0.067577 0.111152 0.054700
v 0.067577 -0.023179 0.054700
v 0.082672 -0.003507 0.054700
v 0.047904 0.126247 0.054700
v 0.067577 -0.023179 0.054700
v 0.067577 0.111152 0.054700
v 0.047904 0.126247 0.054700
v 0.047904 -0.038274 0.054700
v 0.067577 -0.023179 0.054700
v 0.024996 0.135736 0.054700
v 0.047904 -0.038274 0.054700
v 0.047904 0.126247 0.054700
v 0.024996 0.135736 0.054700
v 0.024996 -0.047763 0.054700
v 0.047904 -0.038274 0.054700
v 0.000411 0.138973 0.054700
v 0.024996 -0.047763 0.054700
v 0.024996 0.135736 0.054700
v 0.000411 0.138973 0.054700
v 0.000411 -0.051000 0.054700
v 0.024996 -0.047763 0.054700
v -0.024173 0.135736 0.054700
v 0.000411 -0.051000 0.054700
v 0.000411 0.138973 0.054700
v -0.024173 0.135736 0.054700
v -0.024173 -0.047763 0.054700
v 0.000411 -0.051000 0.054700
v -0.047082 0.126247 0.054700
v -0.024173 -0.047763 0.054700
v -0.024173 0.135736 0.054700
v -0.047082 0.126247 0.054700
v -0.047082 -0.038274 0.054700
v -0.024173 -0.047763 0.054700
v -0.047082 0.126247 0.054700
v -0.054638 0.058737 0.054700
v -0.047082 -0.038274 0.054700
v -0.066754 0.111152 0.054700
v -0.054638 0.058737 0.054700
v -0.047082 0.126247 0.054700
v -0.081849 0.091479 0.054700
v -0.054638 0.058737 0.054700
v -0.066754 0.111152 0.054700
v -0.054638 0.058737 0.054700
v -0.081849 0.091479 0.054700
v -0.091338 0.068571 0.054700
v -0.054638 0.058737 0.054700
v -0.066754 -0.023179 0.054700
v -0.047082 -0.038274 0.054700
v -0.054638 0.058737 0.054700
v -0.081849 -0.003507 0.054700
v -0.066754 -0.023179 0.054700
v -0.054638 0.058737 0.054700
v -0.091338 0.019402 0.054700
v -0.081849 -0.003507 0.054700
v -0.091986 0.063654 0.054700
v -0.091338 0.019402 0.054700
v -0.054638 0.058737 0.054700
v -0.092957 0.056279 0.054700
v -0.091338 0.019402 0.054700
v -0.091986 0.063654 0.054700
v -0.091338 0.019402 0.054700
v -0.092957 0.056279 0.054700
v -0.094575 0.043986 0.054700
v -0.094575 0.043986 0.054700
v -0.091338 0.068571 0.054700
v -0.092957 0.056279 0.054700
v -0.092957 0.056279 0.054700
v -0.091338 0.068571 0.054700
v -0.091986 0.063654 0.054700
v -0.091338 0.068571 0.054700
v -0.091986 0.063654 0.073697
v -0.091986 0.063654 0.054700
v -0.091986 0.063654 0.073697
v -0.091338 0.068571 0.054700
v -0.091338 0.068571 0.073697
v -0.094575 0.043986 0.073697
v -0.092957 0.056279 0.054700
v -0.092957 0.056279 0.073697
v -0.092957 0.056279 0.054700
v -0.094575 0.043986 0.073697
v -0.094575 0.043986 0.054700
v -0.091986 0.063654 0.073697
v -0.054638 0.058737 0.054700
v -0.091986 0.063654 0.054700
vt -0.25 1.75
vt -6.25 1.375
vt -0.25 1.375
vt -6.25 1.75
vt -0.25 2.125
vt -23.859939575195312 2.125
vt -23.794677734375 1.7733999490737915
vt -23.794677734375 2.125
vt -23.859939575195312 1.7733999490737915
vt -22.301410675048828 2.125
vt -22.236148834228516 1.7733999490737915
vt -22.236148834228516 2.125
vt -22.301410675048828 1.7733999490737915
vt -19.22530174255371 2.125
vt -19.1600399017334 1.7733999490737915
vt -19.1600399017334 2.125
vt -19.22530174255371 1.7733999490737915
vt -14.775980949401855 2.125
vt -14.841243743896484 1.7733999490737915
vt -14.775980949401855 1.7733999490737915
vt -14.841243743896484 2.125
vt -9.38274097442627 2.125
vt -9.448003768920898 1.7733999490737915
vt -9.38274097442627 1.7733999490737915
vt -9.448003768920898 2.125
vt -3.34785795211792 2.125
vt -3.413120985031128 1.7733999490737915
vt -3.34785795211792 1.7733999490737915
vt -3.413120985031128 2.125
vt 0.25 1.75
vt 6.25 2.125
vt 0.25 1.7733999490737915
vt 6.25 1.75
vt 0.25 1.375
vt 6.25 1.375
vt -6.25 0.75
vt -6.25 23.75
vt -6.25 1.25
vt -6.25 24.25
vt -4.499618053436279 12.750584602355957
vt -4.457025051116943 12.427061080932617
vt -4.332149982452393 12.125584602355957
vt -4.133501052856445 11.866701126098633
vt -3.8746180534362793 11.668052673339844
vt -3.5731420516967773 11.543177604675293
vt -3.2496180534362793 11.500584602355957
vt -2.9260940551757812 11.543177604675293
vt -2.6246180534362793 11.668052673339844
vt -2.365734100341797 11.866701126098633
vt -2.167085886001587 12.125584602355957
vt -2.0422110557556152 12.427061080932617
vt -0.25 1.25
vt -0.25 0.75
vt -6.25 2.125
vt -1.9996180534362793 12.750584602355957
vt -2.0422110557556152 13.074109077453613
vt -0.25 24.25
vt -0.25 23.75
vt 0.25 2.125
vt -2.167085886001587 13.375584602355957
vt -2.365734100341797 13.634468078613281
vt -2.6246180534362793 13.83311653137207
vt -2.9260940551757812 13.957991600036621
vt -3.2496180534362793 14.000584602355957
vt -3.5731420516967773 13.957991600036621
vt -3.8746180534362793 13.83311653137207
vt -4.133501052856445 13.634468078613281
vt -4.332149982452393 13.375584602355957
vt -4.457025051116943 13.074109077453613
vt 4.457025051116943 13.074109077453613
vt 4.457025051116943 12.427061080932617
vt 4.499618053436279 12.750584602355957
vt 4.332149982452393 13.375584602355957
vt 4.332149982452393 12.125584602355957
vt 4.133501052856445 13.634468078613281
vt 4.133501052856445 11.866701126098633
vt 3.8746180534362793 13.83311653137207
vt 3.8746180534362793 11.668052673339844
vt 3.5731420516967773 13.957991600036621
vt 3.5731420516967773 11.543177604675293
vt 3.2496180534362793 14.000584602355957
vt 3.2496180534362793 11.500584602355957
vt 2.9260940551757812 13.957991600036621
vt 2.9260940551757812 11.543177604675293
vt 2.6246180534362793 13.83311653137207
vt 2.6246180534362793 11.668052673339844
vt 2.5251729488372803 12.94469928741455
vt 2.365734100341797 13.634468078613281
vt 2.167085886001587 13.375584602355957
vt 2.0422110557556152 13.074109077453613
vt 2.365734100341797 11.866701126098633
vt 2.167085886001587 12.125584602355957
vt 2.0422110557556152 12.427061080932617
vt 2.033691883087158 13.009404182434082
vt 2.020914077758789 12.912346839904785
vt 1.9996180534362793 12.750584602355957
vt -2.020914077758789 12.912346839904785
vt -2.033691883087158 13.009404182434082
vt 13.228819847106934 2.125
vt 13.163557052612305 2.375
vt 13.163557052612305 2.125
vt 13.228819847106934 2.375
vt 12.902503967285156 2.375
vt 13.065662384033203 2.125
vt 13.065662384033203 2.375
vt 12.902503967285156 2.125
vt -0.31822600960731506 2.375
vt -0.8139479756355286 2.125
vt -0.31822600960731506 2.125
vn 0 1 0
vn 0 -1 0
vn -0.9659258451755842 0.25881897461707376 0
vn -0.9914448878896857 0.13052599081182487 0
vn 0.9659258451755842 -0.25881897461707376 0
vn 0.9914448878896857 -0.13052599081182487 0
vn -0.8660252955903434 0.5000001873976233 0
vn 0.8660252955903434 -0.5000001873976233 0
vn -0.7071067811865476 0.7071067811865476 0
vn 0.7071067811865476 -0.7071067811865476 0
vn -0.5000001873976233 0.8660252955903434 0
vn 0.5000001873976233 -0.8660252955903434 0
vn -0.25881897461707376 0.9659258451755842 0
vn 0.25881897461707376 -0.9659258451755842 0
vn -0.13052599081182487 0.9914448878896857 0
vn 0.13052599081182487 -0.9914448878896857 0
vn 0 0 -1
vn 0 0 1
vn 0.13052599081182487 0.9914448878896857 0
vn -0.13052599081182487 -0.9914448878896857 0
usemtl material_0_2
f 1/1/1 2/2/1 3/3/1
f 3/3/2 2/2/2 1/1/2
f 4/2/1 5/1/1 6/4/1
f 6/4/2 5/1/2 4/2/2
f 7/4/1 8/1/1 9/5/1
f 9/5/2 8/1/2 7/4/2
f 10/6/3 11/7/4 12/8/4
f 12/8/6 11/7/6 10/6/5
f 13/7/4 14/6/3 15/9/3
f 15/9/5 14/6/5 13/7/6
f 16/10/7 17/11/3 18/12/3
f 18/12/5 17/11/5 16/10/8
f 19/11/3 20/10/7 21/13/7
f 21/13/8 20/10/8 19/11/5
f 22/14/9 23/15/7 24/16/7
f 24/16/8 23/15/8 22/14/10
f 25/15/7 26/14/9 27/17/9
f 27/17/10 26/14/10 25/15/8
f 28/18/9 29/19/11 30/20/9
f 30/20/10 29/19/12 28/18/10
f 31/19/11 32/18/9 33/21/11
f 33/21/12 32/18/10 31/19/12
f 34/22/11 35/23/13 36/24/11
f 36/24/12 35/23/14 34/22/12
f 37/23/13 38/22/11 39/25/13
f 39/25/14 38/22/12 37/23/14
f 40/26/13 41/27/15 42/28/13
f 42/28/14 41/27/16 40/26/14
f 43/27/15 44/26/13 45/29/15
f 45/29/16 44/26/14 43/27/16
f 46/30/2 47/31/2 48/32/2
f 48/32/1 47/31/1 46/30/1
f 49/30/2 50/33/2 51/31/2
f 51/31/1 50/33/1 49/30/1
f 52/34/2 53/33/2 54/30/2
f 54/30/1 53/33/1 52/34/1
f 55/33/2 56/34/2 57/35/2
f 57/35/1 56/34/1 55/33/1
f 58/36/17 59/37/17 60/38/17
f 60/38/18 59/37/18 58/36/18
f 61/36/17 62/39/17 63/37/17
f 63/37/18 62/39/18 61/36/18
f 64/36/17 65/40/17 66/39/17
f 66/39/18 65/40/18 64/36/18
f 67/36/17 68/41/17 69/40/17
f 69/40/18 68/41/18 67/36/18
f 70/36/17 71/42/17 72/41/17
f 72/41/18 71/42/18 70/36/18
f 73/36/17 74/43/17 75/42/17
f 75/42/18 74/43/18 73/36/18
f 76/36/17 77/44/17 78/43/17
f 78/43/18 77/44/18 76/36/18
f 79/36/17 80/45/17 81/44/17
f 81/44/18 80/45/18 79/36/18
f 82/36/17 83/46/17 84/45/17
f 84/45/18 83/46/18 82/36/18
f 85/36/17 86/47/17 87/46/17
f 87/46/18 86/47/18 85/36/18
f 88/36/17 89/48/17 90/47/17
f 90/47/18 89/48/18 88/36/18
f 91/36/17 92/49/17 93/48/17
f 93/48/18 92/49/18 91/36/18
f 94/36/17 95/50/17 96/49/17
f 96/49/18 95/50/18 94/36/18
f 97/36/17 98/51/17 99/50/17
f 99/50/18 98/51/18 97/36/18
f 100/36/17 101/52/17 102/51/17
f 102/51/18 101/52/18 100/36/18
f 103/52/17 104/36/17 105/53/17
f 105/53/18 104/36/18 103/52/18
f 106/4/1 107/5/1 108/54/1
f 108/54/2 107/5/2 106/4/2
f 109/51/17 110/52/17 111/55/17
f 111/55/18 110/52/18 109/51/18
f 112/52/17 113/56/17 114/55/17
f 114/55/18 113/56/18 112/52/18
f 115/52/17 116/57/17 117/56/17
f 117/56/18 116/57/18 115/52/18
f 118/57/17 119/52/17 120/58/17
f 120/58/18 119/52/18 118/57/18
f 121/56/17 122/57/17 123/39/17
f 123/39/18 122/57/18 121/56/18
f 124/32/2 125/31/2 126/59/2
f 126/59/1 125/31/1 124/32/1
f 127/56/17 128/39/17 129/60/17
f 129/60/18 128/39/18 127/56/18
f 130/60/17 131/39/17 132/61/17
f 132/61/18 131/39/18 130/60/18
f 133/61/17 134/39/17 135/62/17
f 135/62/18 134/39/18 133/61/18
f 136/62/17 137/39/17 138/63/17
f 138/63/18 137/39/18 136/62/18
f 139/63/17 140/39/17 141/64/17
f 141/64/18 140/39/18 139/63/18
f 142/64/17 143/39/17 144/65/17
f 144/65/18 143/39/18 142/64/18
f 145/65/17 146/39/17 147/66/17
f 147/66/18 146/39/18 145/65/18
f 148/66/17 149/39/17 150/67/17
f 150/67/18 149/39/18 148/66/18
f 151/67/17 152/39/17 153/68/17
f 153/68/18 152/39/18 151/67/18
f 154/68/17 155/39/17 156/69/17
f 156/69/18 155/39/18 154/68/18
f 157/69/17 158/39/17 159/40/17
f 159/40/18 158/39/18 157/69/18
f 160/70/18 161/71/18 162/72/18
f 162/72/17 161/71/17 160/70/17
f 163/73/18 164/71/18 165/70/18
f 165/70/17 164/71/17 163/73/17
f 166/73/18 167/74/18 168/71/18
f 168/71/17 167/74/17 166/73/17
f 169/75/18 170/74/18 171/73/18
f 171/73/17 170/74/17 169/75/17
f 172/75/18 173/76/18 174/74/18
f 174/74/17 173/76/17 172/75/17
f 175/77/18 176/76/18 177/75/18
f 177/75/17 176/76/17 175/77/17
f 178/77/18 179/78/18 180/76/18
f 180/76/17 179/78/17 178/77/17
f 181/79/18 182/78/18 183/77/18
f 183/77/17 182/78/17 181/79/17
f 184/79/18 185/80/18 186/78/18
f 186/78/17 185/80/17 184/79/17
f 187/81/18 188/80/18 189/79/18
f 189/79/17 188/80/17 187/81/17
f 190/81/18 191/82/18 192/80/18
f 192/80/17 191/82/17 190/81/17
f 193/83/18 194/82/18 195/81/18
f 195/81/17 194/82/17 193/83/17
f 196/83/18 197/84/18 198/82/18
f 198/82/17 197/84/17 196/83/17
f 199/85/18 200/84/18 201/83/18
f 201/83/17 200/84/17 199/85/17
f 202/85/18 203/86/18 204/84/18
f 204/84/17 203/86/17 202/85/17
f 205/85/18 206/87/18 207/86/18
f 207/86/17 206/87/17 205/85/17
f 208/88/18 209/87/18 210/85/18
f 210/85/17 209/87/17 208/88/17
f 211/89/18 212/87/18 213/88/18
f 213/88/17 212/87/17 211/89/17
f 214/87/18 215/89/18 216/90/18
f 216/90/17 215/89/17 214/87/17
f 217/87/18 218/91/18 219/86/18
f 219/86/17 218/91/17 217/87/17
f 220/87/18 221/92/18 222/91/18
f 222/91/17 221/92/17 220/87/17
f 223/87/18 224/93/18 225/92/18
f 225/92/17 224/93/17 223/87/17
f 226/94/18 227/93/18 228/87/18
f 228/87/17 227/93/17 226/94/17
f 229/95/18 230/93/18 231/94/18
f 231/94/17 230/93/17 229/95/17
f 232/93/18 233/95/18 234/96/18
f 234/96/17 233/95/17 232/93/17
f 235/55/17 236/56/17 237/97/17
f 237/97/18 236/56/18 235/55/18
f 238/97/17 239/56/17 240/98/17
f 240/98/18 239/56/18 238/97/18
f 241/99/6 242/100/6 243/101/6
f 243/101/4 242/100/4 241/99/4
f 244/100/6 245/99/6 246/102/6
f 246/102/4 245/99/4 244/100/4
f 247/103/6 248/104/6 249/105/6
f 249/105/4 248/104/4 247/103/4
f 250/104/6 251/103/6 252/106/6
f 252/106/4 251/103/4 250/104/4
f 253/107/19 254/108/19 255/109/19
f 255/109/20 254/108/20 253/107/20
