# SSTK version 0.8.0
# 39
mtllib original-39.mtl
o 3dw.61c6c6a47e5b9d34496c7671bf276db5/Model/distancia1/distancia/mesh1/mesh1-geometry/material_2/component_12#mesh1-geometry
v -0.075578 -0.069699 0.083196
v -0.056580 -0.051000 0.073697
v -0.075578 -0.069699 0.073697
v -0.056580 -0.051000 0.073697
v -0.075578 -0.069699 0.083196
v -0.056580 -0.051000 0.083196
v -0.012048 -0.133478 0.083196
v -0.056580 -0.051000 0.083196
v -0.075578 -0.069699 0.083196
v -0.056580 -0.051000 0.083196
v -0.012048 -0.133478 0.083196
v -0.047340 -0.053839 0.083196
v -0.047340 -0.053839 0.083196
v -0.012048 -0.133478 0.083196
v -0.037959 -0.056174 0.083196
v -0.037959 -0.056174 0.083196
v -0.012048 -0.133478 0.083196
v -0.028465 -0.057997 0.083196
v -0.028465 -0.057997 0.083196
v -0.012048 -0.133478 0.083196
v -0.018887 -0.059302 0.083196
v -0.018887 -0.059302 0.083196
v -0.012048 -0.133478 0.083196
v -0.009252 -0.060088 0.083196
v -0.009252 -0.060088 0.083196
v -0.012048 -0.133478 0.083196
v -0.010465 -0.135291 0.083196
v -0.012048 -0.133478 0.083196
v -0.010465 -0.135291 0.073697
v -0.010465 -0.135291 0.083196
v -0.010465 -0.135291 0.073697
v -0.012048 -0.133478 0.083196
v -0.012048 -0.133478 0.073697
v -0.075578 -0.069699 0.083196
v -0.012048 -0.133478 0.073697
v -0.012048 -0.133478 0.083196
v -0.012048 -0.133478 0.073697
v -0.075578 -0.069699 0.083196
v -0.075578 -0.069699 0.073697
v 0.029288 -0.057997 0.083196
v 0.038782 -0.056174 0.073697
v 0.029288 -0.057997 0.073697
v 0.038782 -0.056174 0.073697
v 0.029288 -0.057997 0.083196
v 0.038782 -0.056174 0.083196
v 0.029288 -0.057997 0.083196
v 0.076400 -0.069699 0.083196
v 0.038782 -0.056174 0.083196
v 0.019710 -0.059302 0.083196
v 0.076400 -0.069699 0.083196
v 0.029288 -0.057997 0.083196
v 0.019710 -0.059302 0.083196
v 0.012871 -0.133478 0.083196
v 0.076400 -0.069699 0.083196
v 0.019710 -0.059302 0.083196
v 0.011287 -0.135291 0.083196
v 0.012871 -0.133478 0.083196
v 0.010075 -0.060088 0.083196
v 0.011287 -0.135291 0.083196
v 0.019710 -0.059302 0.083196
v 0.010075 -0.060088 0.083196
v 0.009443 -0.136837 0.083196
v 0.011287 -0.135291 0.083196
v 0.010075 -0.060088 0.083196
v 0.007382 -0.138081 0.083196
v 0.009443 -0.136837 0.083196
v 0.010075 -0.060088 0.083196
v 0.005153 -0.138991 0.083196
v 0.007382 -0.138081 0.083196
v 0.010075 -0.060088 0.083196
v 0.002811 -0.139545 0.083196
v 0.005153 -0.138991 0.083196
v 0.010075 -0.060088 0.083196
v 0.000411 -0.139732 0.083196
v 0.002811 -0.139545 0.083196
v 0.000411 -0.060350 0.083196
v 0.000411 -0.139732 0.083196
v 0.010075 -0.060088 0.083196
v 0.000411 -0.060350 0.083196
v -0.001988 -0.139545 0.083196
v 0.000411 -0.139732 0.083196
v 0.000411 -0.060350 0.083196
v -0.004331 -0.138991 0.083196
v -0.001988 -0.139545 0.083196
v 0.000411 -0.060350 0.083196
v -0.006559 -0.138081 0.083196
v -0.004331 -0.138991 0.083196
v 0.000411 -0.060350 0.083196
v -0.008620 -0.136837 0.083196
v -0.006559 -0.138081 0.083196
v -0.009252 -0.060088 0.083196
v -0.008620 -0.136837 0.083196
v 0.000411 -0.060350 0.083196
v -0.009252 -0.060088 0.083196
v -0.010465 -0.135291 0.083196
v -0.008620 -0.136837 0.083196
v -0.010465 -0.135291 0.073697
v -0.008620 -0.136837 0.083196
v -0.010465 -0.135291 0.083196
v -0.008620 -0.136837 0.083196
v -0.010465 -0.135291 0.073697
v -0.008620 -0.136837 0.073697
v -0.008620 -0.136837 0.073697
v -0.006559 -0.138081 0.083196
v -0.008620 -0.136837 0.083196
v -0.006559 -0.138081 0.083196
v -0.008620 -0.136837 0.073697
v -0.006559 -0.138081 0.073697
v -0.006559 -0.138081 0.073697
v -0.004331 -0.138991 0.083196
v -0.006559 -0.138081 0.083196
v -0.004331 -0.138991 0.083196
v -0.006559 -0.138081 0.073697
v -0.004331 -0.138991 0.073697
v -0.004331 -0.138991 0.073697
v -0.001988 -0.139545 0.083196
v -0.004331 -0.138991 0.083196
v -0.001988 -0.139545 0.083196
v -0.004331 -0.138991 0.073697
v -0.001988 -0.139545 0.073697
v -0.001988 -0.139545 0.073697
v 0.000411 -0.139732 0.083196
v -0.001988 -0.139545 0.083196
v 0.000411 -0.139732 0.083196
v -0.001988 -0.139545 0.073697
v 0.000411 -0.139732 0.073697
v 0.000411 -0.139732 0.073697
v 0.002811 -0.139545 0.083196
v 0.000411 -0.139732 0.083196
v 0.002811 -0.139545 0.083196
v 0.000411 -0.139732 0.073697
v 0.002811 -0.139545 0.073697
v 0.002811 -0.139545 0.073697
v 0.005153 -0.138991 0.083196
v 0.002811 -0.139545 0.083196
v 0.005153 -0.138991 0.083196
v 0.002811 -0.139545 0.073697
v 0.005153 -0.138991 0.073697
v 0.005153 -0.138991 0.073697
v 0.007382 -0.138081 0.083196
v 0.005153 -0.138991 0.083196
v 0.007382 -0.138081 0.083196
v 0.005153 -0.138991 0.073697
v 0.007382 -0.138081 0.073697
v 0.007382 -0.138081 0.073697
v 0.009443 -0.136837 0.083196
v 0.007382 -0.138081 0.083196
v 0.009443 -0.136837 0.083196
v 0.007382 -0.138081 0.073697
v 0.009443 -0.136837 0.073697
v 0.009443 -0.136837 0.073697
v 0.011287 -0.135291 0.083196
v 0.009443 -0.136837 0.083196
v 0.011287 -0.135291 0.083196
v 0.009443 -0.136837 0.073697
v 0.011287 -0.135291 0.073697
v 0.012871 -0.133478 0.073697
v 0.011287 -0.135291 0.083196
v 0.011287 -0.135291 0.073697
v 0.011287 -0.135291 0.083196
v 0.012871 -0.133478 0.073697
v 0.012871 -0.133478 0.083196
v 0.076400 -0.069699 0.073697
v 0.012871 -0.133478 0.083196
v 0.012871 -0.133478 0.073697
v 0.012871 -0.133478 0.083196
v 0.076400 -0.069699 0.073697
v 0.076400 -0.069699 0.083196
v 0.076400 -0.069699 0.073697
v 0.057403 -0.051000 0.083196
v 0.076400 -0.069699 0.083196
v 0.057403 -0.051000 0.083196
v 0.076400 -0.069699 0.073697
v 0.057403 -0.051000 0.073697
v 0.048162 -0.053839 0.083196
v 0.057403 -0.051000 0.073697
v 0.048162 -0.053839 0.073697
v 0.057403 -0.051000 0.073697
v 0.048162 -0.053839 0.083196
v 0.057403 -0.051000 0.083196
v 0.048162 -0.053839 0.083196
v 0.076400 -0.069699 0.083196
v 0.057403 -0.051000 0.083196
v 0.038782 -0.056174 0.083196
v 0.076400 -0.069699 0.083196
v 0.048162 -0.053839 0.083196
v 0.048162 -0.053839 0.073697
v 0.038782 -0.056174 0.083196
v 0.048162 -0.053839 0.083196
v 0.038782 -0.056174 0.083196
v 0.048162 -0.053839 0.073697
v 0.038782 -0.056174 0.073697
v 0.000411 -0.060350 0.073697
v -0.009252 -0.060088 0.083196
v 0.000411 -0.060350 0.083196
v -0.009252 -0.060088 0.083196
v 0.000411 -0.060350 0.073697
v -0.009252 -0.060088 0.073697
v -0.009252 -0.060088 0.073697
v -0.018887 -0.059302 0.083196
v -0.009252 -0.060088 0.083196
v -0.018887 -0.059302 0.083196
v -0.009252 -0.060088 0.073697
v -0.018887 -0.059302 0.073697
v -0.018887 -0.059302 0.073697
v -0.028465 -0.057997 0.083196
v -0.018887 -0.059302 0.083196
v -0.028465 -0.057997 0.083196
v -0.018887 -0.059302 0.073697
v -0.028465 -0.057997 0.073697
v -0.028465 -0.057997 0.073697
v -0.037959 -0.056174 0.083196
v -0.028465 -0.057997 0.083196
v -0.037959 -0.056174 0.083196
v -0.028465 -0.057997 0.073697
v -0.037959 -0.056174 0.073697
v -0.037959 -0.056174 0.073697
v -0.047340 -0.053839 0.083196
v -0.037959 -0.056174 0.083196
v -0.047340 -0.053839 0.083196
v -0.037959 -0.056174 0.073697
v -0.047340 -0.053839 0.073697
v -0.047340 -0.053839 0.073697
v -0.056580 -0.051000 0.083196
v -0.047340 -0.053839 0.083196
v -0.056580 -0.051000 0.083196
v -0.047340 -0.053839 0.073697
v -0.056580 -0.051000 0.073697
v 0.000411 -0.060350 0.083196
v 0.010075 -0.060088 0.073697
v 0.000411 -0.060350 0.073697
v 0.010075 -0.060088 0.073697
v 0.000411 -0.060350 0.083196
v 0.010075 -0.060088 0.083196
v 0.010075 -0.060088 0.083196
v 0.019710 -0.059302 0.073697
v 0.010075 -0.060088 0.073697
v 0.019710 -0.059302 0.073697
v 0.010075 -0.060088 0.083196
v 0.019710 -0.059302 0.083196
v 0.019710 -0.059302 0.083196
v 0.029288 -0.057997 0.073697
v 0.019710 -0.059302 0.073697
v 0.029288 -0.057997 0.073697
v 0.019710 -0.059302 0.083196
v 0.029288 -0.057997 0.083196
vt -9.498284339904785 2.5
vt -9.849078178405762 2.375
vt -9.498284339904785 2.375
vt -9.849078178405762 2.5
vt 3.085655927658081 10.415188789367676
vt 2.4996180534362793 11.500584602355957
vt 2.2496180534362793 11.254502296447754
vt 2.6212220191955566 11.46321964263916
vt 2.7446720600128174 11.432497024536133
vt 2.86960506439209 11.40850830078125
vt 2.9956541061401367 11.391322135925293
vt 3.1224489212036133 11.380990982055664
vt 3.1064929962158203 10.39133071899414
vt -5.814794063568115 2.5
vt -5.783117771148682 2.375
vt -5.783117771148682 2.5
vt -5.814794063568115 2.375
vt -6.386066913604736 2.5
vt -5.201412200927734 2.375
vt -5.201412200927734 2.5
vt -6.386066913604736 2.375
vt -5.715839862823486 2.5
vt -5.8430562019348145 2.375
vt -5.715839862823486 2.375
vt -5.8430562019348145 2.5
vt 3.6296310424804688 11.40850830078125
vt 4.249618053436279 11.254502296447754
vt 3.754564046859741 11.432497024536133
vt 3.503582000732422 11.391322135925293
vt 3.413578987121582 10.415188789367676
vt 3.3927431106567383 10.39133071899414
vt 3.37678599357605 11.380990982055664
vt 3.3684709072113037 10.370977401733398
vt 3.3413469791412354 10.35461711883545
vt 3.3120219707489014 10.342641830444336
vt 3.2811989784240723 10.335339546203613
vt 3.2496180534362793 10.332886695861816
vt 3.2496180534362793 11.377543449401855
vt 3.2180368900299072 10.335339546203613
vt 3.187213897705078 10.342641830444336
vt 3.157888889312744 10.35461711883545
vt 3.130764961242676 10.370977401733398
vt -4.296599864959717 2.375
vt -4.264924049377441 2.5
vt -4.296599864959717 2.5
vt -4.264924049377441 2.375
vt -2.675673007965088 2.375
vt -2.6439969539642334 2.5
vt -2.675673007965088 2.5
vt -2.6439969539642334 2.375
vt -0.9909129738807678 2.375
vt -0.9592369794845581 2.5
vt -0.9909129738807678 2.5
vt -0.9592369794845581 2.375
vt 0.7172480225563049 2.375
vt 0.7489240169525146 2.5
vt 0.7172480225563049 2.5
vt 0.7489240169525146 2.375
vt 2.4078149795532227 2.375
vt 2.439491033554077 2.5
vt 2.4078149795532227 2.5
vt 2.439491033554077 2.375
vt 4.040217876434326 2.375
vt 4.07189416885376 2.5
vt 4.040217876434326 2.5
vt 4.07189416885376 2.375
vt 5.57528018951416 2.375
vt 5.6069560050964355 2.5
vt 5.57528018951416 2.5
vt 5.6069560050964355 2.375
vt 6.976161003112793 2.375
vt 7.007836818695068 2.5
vt 6.976161003112793 2.5
vt 7.007836818695068 2.375
vt 8.20924186706543 2.375
vt 8.240918159484863 2.5
vt 8.20924186706543 2.5
vt 8.240918159484863 2.375
vt 9.2449312210083 2.375
vt 9.276606559753418 2.5
vt 9.2449312210083 2.5
vt 9.276606559753418 2.375
vt 10.090046882629395 2.375
vt 10.058370590209961 2.5
vt 10.058370590209961 2.375
vt 10.090046882629395 2.5
vt 10.972728729248047 2.375
vt 9.788073539733887 2.5
vt 9.788073539733887 2.375
vt 10.972728729248047 2.5
vt 4.866488933563232 2.375
vt 5.217282772064209 2.5
vt 4.866488933563232 2.5
vt 5.217282772064209 2.375
vt -7.0739030838012695 2.5
vt -7.201117992401123 2.375
vt -7.0739030838012695 2.375
vt -7.201117992401123 2.5
vt 3.878014087677002 11.46321964263916
vt 3.9996180534362793 11.500584602355957
vt -6.531586170196533 2.375
vt -6.404369831085205 2.5
vt -6.531586170196533 2.5
vt -6.404369831085205 2.375
vt -2.9401180744171143 2.375
vt -2.8129019737243652 2.5
vt -2.9401180744171143 2.5
vt -2.8129019737243652 2.375
vt -2.187839984893799 2.375
vt -2.0606250762939453 2.5
vt -2.187839984893799 2.5
vt -2.0606250762939453 2.375
vt -1.4293229579925537 2.375
vt -1.3021080493927002 2.5
vt -1.4293229579925537 2.5
vt -1.3021080493927002 2.375
vt -0.666795015335083 2.375
vt -0.5395789742469788 2.5
vt -0.666795015335083 2.5
vt -0.5395789742469788 2.375
vt 0.09750500321388245 2.375
vt 0.2247209995985031 2.5
vt 0.09750500321388245 2.5
vt 0.2247209995985031 2.375
vt 0.8613319993019104 2.375
vt 0.9885470271110535 2.5
vt 0.8613319993019104 2.5
vt 0.9885470271110535 2.375
vt -3.5567309856414795 2.5
vt -3.6839470863342285 2.375
vt -3.5567309856414795 2.375
vt -3.6839470863342285 2.5
vt -4.289927005767822 2.5
vt -4.417141914367676 2.375
vt -4.289927005767822 2.375
vt -4.417141914367676 2.5
vt -5.0103349685668945 2.5
vt -5.137549877166748 2.375
vt -5.0103349685668945 2.375
vt -5.137549877166748 2.5
vn -0.7015017544052469 0.7126677266204501 0
vn 0.7015017544052469 -0.7126677266204501 0
vn 0 0 1
vn 0 0 -1
vn -0.7531848570938723 -0.6578089168174015 0
vn -0.6999701244403019 -0.7141721255348937 0
vn 0.7531848570938723 0.6578089168174015 0
vn 0.6999701244403019 0.7141721255348937 0
vn -0.7084879295080426 -0.7057229298679524 0
vn 0.7084879295080426 0.7057229298679524 0
vn -0.16189093955312886 0.9868086560679356 0
vn -0.21511493309227844 0.9765887392145706 0
vn 0.16189093955312886 -0.9868086560679356 0
vn 0.21511493309227844 -0.9765887392145706 0
vn -0.5812662720073838 -0.8137134145549269 0
vn 0.5812662720073838 0.8137134145549269 0
vn -0.4486130417317946 -0.8937260983031362 0
vn 0.4486130417317946 0.8937260983031362 0
vn -0.3051940495055382 -0.9522901827418002 0
vn 0.3051940495055382 0.9522901827418002 0
vn -0.154449940913274 -0.9880006152588602 0
vn 0.154449940913274 0.9880006152588602 0
vn 0 -1 0
vn 0 1 0
vn 0.154449940913274 -0.9880006152588602 0
vn -0.154449940913274 0.9880006152588602 0
vn 0.3051940495055382 -0.9522901827418002 0
vn -0.3051940495055382 0.9522901827418002 0
vn 0.4486130417317946 -0.8937260983031362 0
vn -0.4486130417317946 0.8937260983031362 0
vn 0.5812662720073838 -0.8137134145549269 0
vn -0.5812662720073838 0.8137134145549269 0
vn 0.6999701244403019 -0.7141721255348937 0
vn -0.6999701244403019 0.7141721255348937 0
vn 0.7531848570938723 -0.6578089168174015 0
vn -0.7531848570938723 0.6578089168174015 0
vn 0.7084879295080426 -0.7057229298679524 0
vn -0.7084879295080426 0.7057229298679524 0
vn 0.7015017544052469 0.7126677266204501 0
vn -0.7015017544052469 -0.7126677266204501 0
vn -0.2677059213812249 0.9635006692563474 0
vn -0.2937168406986308 0.9558924717195001 0
vn 0.2677059213812249 -0.9635006692563474 0
vn 0.2937168406986308 -0.9558924717195001 0
vn 0.054176021641450474 0.9985314009479648 0
vn -0.054176021641450474 -0.9985314009479648 0
vn 0.10819199704866148 0.9941300175402724 0
vn -0.10819199704866148 -0.9941300175402724 0
vn 0.16189093955312886 0.9868086560679356 0
vn -0.16189093955312886 -0.9868086560679356 0
vn 0.21511493309227844 0.9765887392145706 0
vn -0.21511493309227844 -0.9765887392145706 0
vn 0.2677059213812249 0.9635006692563474 0
vn -0.2677059213812249 -0.9635006692563474 0
vn 0.2937168406986308 0.9558924717195001 0
vn -0.2937168406986308 -0.9558924717195001 0
vn -0.054176021641450474 0.9985314009479648 0
vn 0.054176021641450474 -0.9985314009479648 0
vn -0.10819199704866148 0.9941300175402724 0
vn 0.10819199704866148 -0.9941300175402724 0
usemtl material_0_2
f 1/1/1 2/2/1 3/3/1
f 3/3/2 2/2/2 1/1/2
f 4/2/1 5/1/1 6/4/1
f 6/4/2 5/1/2 4/2/2
f 7/5/3 8/6/3 9/7/3
f 9/7/4 8/6/4 7/5/4
f 10/6/3 11/5/3 12/8/3
f 12/8/4 11/5/4 10/6/4
f 13/8/3 14/5/3 15/9/3
f 15/9/4 14/5/4 13/8/4
f 16/9/3 17/5/3 18/10/3
f 18/10/4 17/5/4 16/9/4
f 19/10/3 20/5/3 21/11/3
f 21/11/4 20/5/4 19/10/4
f 22/11/3 23/5/3 24/12/3
f 24/12/4 23/5/4 22/11/4
f 25/12/3 26/5/3 27/13/3
f 27/13/4 26/5/4 25/12/4
f 28/14/5 29/15/6 30/16/6
f 30/16/8 29/15/8 28/14/7
f 31/15/6 32/14/5 33/17/5
f 33/17/7 32/14/7 31/15/8
f 34/18/9 35/19/9 36/20/9
f 36/20/10 35/19/10 34/18/10
f 37/19/9 38/18/9 39/21/9
f 39/21/10 38/18/10 37/19/10
f 40/22/11 41/23/12 42/24/11
f 42/24/13 41/23/14 40/22/13
f 43/23/12 44/22/11 45/25/12
f 45/25/14 44/22/13 43/23/14
f 46/26/3 47/27/3 48/28/3
f 48/28/4 47/27/4 46/26/4
f 49/29/3 50/27/3 51/26/3
f 51/26/4 50/27/4 49/29/4
f 52/29/3 53/30/3 54/27/3
f 54/27/4 53/30/4 52/29/4
f 55/29/3 56/31/3 57/30/3
f 57/30/4 56/31/4 55/29/4
f 58/32/3 59/31/3 60/29/3
f 60/29/4 59/31/4 58/32/4
f 61/32/3 62/33/3 63/31/3
f 63/31/4 62/33/4 61/32/4
f 64/32/3 65/34/3 66/33/3
f 66/33/4 65/34/4 64/32/4
f 67/32/3 68/35/3 69/34/3
f 69/34/4 68/35/4 67/32/4
f 70/32/3 71/36/3 72/35/3
f 72/35/4 71/36/4 70/32/4
f 73/32/3 74/37/3 75/36/3
f 75/36/4 74/37/4 73/32/4
f 76/38/3 77/37/3 78/32/3
f 78/32/4 77/37/4 76/38/4
f 79/38/3 80/39/3 81/37/3
f 81/37/4 80/39/4 79/38/4
f 82/38/3 83/40/3 84/39/3
f 84/39/4 83/40/4 82/38/4
f 85/38/3 86/41/3 87/40/3
f 87/40/4 86/41/4 85/38/4
f 88/38/3 89/42/3 90/41/3
f 90/41/4 89/42/4 88/38/4
f 91/12/3 92/42/3 93/38/3
f 93/38/4 92/42/4 91/12/4
f 94/12/3 95/13/3 96/42/3
f 96/42/4 95/13/4 94/12/4
f 97/43/6 98/44/15 99/45/6
f 99/45/8 98/44/16 97/43/8
f 100/44/15 101/43/6 102/46/15
f 102/46/16 101/43/8 100/44/16
f 103/47/15 104/48/17 105/49/15
f 105/49/16 104/48/18 103/47/16
f 106/48/17 107/47/15 108/50/17
f 108/50/18 107/47/16 106/48/18
f 109/51/17 110/52/19 111/53/17
f 111/53/18 110/52/20 109/51/18
f 112/52/19 113/51/17 114/54/19
f 114/54/20 113/51/18 112/52/20
f 115/55/19 116/56/21 117/57/19
f 117/57/20 116/56/22 115/55/20
f 118/56/21 119/55/19 120/58/21
f 120/58/22 119/55/20 118/56/22
f 121/59/21 122/60/23 123/61/21
f 123/61/22 122/60/24 121/59/22
f 124/60/23 125/59/21 126/62/23
f 126/62/24 125/59/22 124/60/24
f 127/63/23 128/64/25 129/65/23
f 129/65/24 128/64/26 127/63/24
f 130/64/25 131/63/23 132/66/25
f 132/66/26 131/63/24 130/64/26
f 133/67/25 134/68/27 135/69/25
f 135/69/26 134/68/28 133/67/26
f 136/68/27 137/67/25 138/70/27
f 138/70/28 137/67/26 136/68/28
f 139/71/27 140/72/29 141/73/27
f 141/73/28 140/72/30 139/71/28
f 142/72/29 143/71/27 144/74/29
f 144/74/30 143/71/28 142/72/30
f 145/75/29 146/76/31 147/77/29
f 147/77/30 146/76/32 145/75/30
f 148/76/31 149/75/29 150/78/31
f 150/78/32 149/75/30 148/76/32
f 151/79/31 152/80/33 153/81/31
f 153/81/32 152/80/34 151/79/32
f 154/80/33 155/79/31 156/82/33
f 156/82/34 155/79/32 154/80/34
f 157/83/35 158/84/33 159/85/33
f 159/85/34 158/84/34 157/83/36
f 160/84/33 161/83/35 162/86/35
f 162/86/36 161/83/36 160/84/34
f 163/87/37 164/88/37 165/89/37
f 165/89/38 164/88/38 163/87/38
f 166/88/37 167/87/37 168/90/37
f 168/90/38 167/87/38 166/88/38
f 169/91/39 170/92/39 171/93/39
f 171/93/40 170/92/40 169/91/40
f 172/92/39 173/91/39 174/94/39
f 174/94/40 173/91/40 172/92/40
f 175/95/41 176/96/42 177/97/41
f 177/97/43 176/96/44 175/95/43
f 178/96/42 179/95/41 180/98/42
f 180/98/44 179/95/43 178/96/44
f 181/99/3 182/27/3 183/100/3
f 183/100/4 182/27/4 181/99/4
f 184/28/3 185/27/3 186/99/3
f 186/99/4 185/27/4 184/28/4
f 187/101/41 188/102/12 189/103/41
f 189/103/43 188/102/14 187/101/43
f 190/102/12 191/101/41 192/104/12
f 192/104/14 191/101/43 190/102/14
f 193/105/24 194/106/45 195/107/24
f 195/107/23 194/106/46 193/105/23
f 196/106/45 197/105/24 198/108/45
f 198/108/46 197/105/23 196/106/46
f 199/109/45 200/110/47 201/111/45
f 201/111/46 200/110/48 199/109/46
f 202/110/47 203/109/45 204/112/47
f 204/112/48 203/109/46 202/110/48
f 205/113/47 206/114/49 207/115/47
f 207/115/48 206/114/50 205/113/48
f 208/114/49 209/113/47 210/116/49
f 210/116/50 209/113/48 208/114/50
f 211/117/49 212/118/51 213/119/49
f 213/119/50 212/118/52 211/117/50
f 214/118/51 215/117/49 216/120/51
f 216/120/52 215/117/50 214/118/52
f 217/121/51 218/122/53 219/123/51
f 219/123/52 218/122/54 217/121/52
f 220/122/53 221/121/51 222/124/53
f 222/124/54 221/121/52 220/122/54
f 223/125/53 224/126/55 225/127/53
f 225/127/54 224/126/56 223/125/54
f 226/126/55 227/125/53 228/128/55
f 228/128/56 227/125/54 226/126/56
f 229/129/24 230/130/57 231/131/24
f 231/131/23 230/130/58 229/129/23
f 232/130/57 233/129/24 234/132/57
f 234/132/58 233/129/23 232/130/58
f 235/133/57 236/134/59 237/135/57
f 237/135/58 236/134/60 235/133/58
f 238/134/59 239/133/57 240/136/59
f 240/136/60 239/133/58 238/134/60
f 241/137/59 242/138/11 243/139/59
f 243/139/60 242/138/13 241/137/60
f 244/138/11 245/137/59 246/140/11
f 246/140/13 245/137/60 244/138/13
